{
.appVersion = "3516";
.formatVersion = 3;
axes = (
{
name = Weight;
tag = wght;
},
{
name = Width;
tag = wdth;
}
);
classes = (
{
automatic = 1;

glyphs = (
{
glyphname = A;
kernLeft = A;
kernRight = A;
layers = (
{
anchors = (
{
name = bottom;
pos = (342,0);
},
{
name = ogonek;
pos = (660,0);
},
{
name = top;
pos = (342,688);
}
);
background = {
shapes = (
{
closed = 1;
nodes = (
(78,0,l),
(169,222,l),
(513,222,l),
(604,0,l),
(643,0,l),
(359,688,l),
(324,688,l),
(40,0,l)
);
},
{
closed = 1;
nodes = (
(339,637,l),
(344,637,l),
(499,256,l),
(183,256,l)
);
}
);
};
layerId = UUID0;
shapes = (
{
closed = 1;
nodes = (
(643,0,l),
(359,688,l),
(322,688,l),
(499,256,l),
(230,256,l),
(216,222,l),
(513,222,l),
(604,0,l)
);
},
{
closed = 1;
nodes = (
(78,0,l),
(320,591,l),
(302,636,l),
(40,0,l)
);
}
);
width = 683;
},
{
anchors = (
{
name = bottom;
pos = (349,0);
},
{
name = ogonek;
pos = (702,0);
},
{
name = top;
pos = (349,688);
}
);
background = {
shapes = (
{
closed = 1;
nodes = (
(222,0,l),
(246,103,l),
(445,103,l),
(470,0,l),
(702,0,l),
(511,688,l),
(186,688,l),
(-5,0,l)
);
},
{
closed = 1;
nodes = (
(340,500,l),
(349,500,l),
(406,263,l),
(284,263,l)
);
}
);
};
layerId = "4F93A97B-747D-4721-B098-38A63C534D7A";
shapes = (
{
closed = 1;
nodes = (
(706,0,l),
(462,688,l),
(232,688,l),
(384,253,l),
(335,253,l),
(283,93,l),
(440,93,l),
(473,0,l)
);
},
{
closed = 1;
nodes = (
(219,0,l),
(324,326,l),
(215,639,l),
(-9,0,l)
);
}
);
width = 697;
},
{
anchors = (
{
name = bottom;
pos = (247,0);
},
{
name = ogonek;
pos = (480,0);
},
{
name = top;
pos = (247,688);
}
);
background = {
shapes = (
{
closed = 1;
nodes = (
(63,0,l),
(126,219,l),
(366,219,l),
(429,0,l),
(467,0,l),
(266,688,l),
(227,688,l),
(27,0,l)
);
},
{
closed = 1;
nodes = (
(244,624,l),
(249,624,l),
(356,253,l),
(136,253,l)
);
}
);
};
guides = (
{
angle = -73.9119;
pos = (303,439);
},
{
angle = 73.7695;
pos = (190,439);
},
{
angle = 73.7695;
pos = (233,439);
},
{
angle = -73.9119;
pos = (261,439);
}
);
layerId = "E6BBBBE7-ECAD-4929-840D-43673C7BDEAF";
shapes = (
{
closed = 1;
nodes = (
(467,0,l),
(266,688,l),
(231,688,l),
(356,253,l),
(179,253,l),
(169,219,l),
(366,219,l),
(429,0,l)
);
},
{
closed = 1;
nodes = (
(63,0,l),
(226,561,l),
(208,623,l),
(27,0,l)
);
}
);
width = 494;
},
{
anchors = (
{
name = bottom;
pos = (259,0);
},
{
name = ogonek;
pos = (516,0);
},
{
name = top;
pos = (259,688);
}
);
background = {
shapes = (
{
closed = 1;
nodes = (
(178,0,l),
(194,117,l),
(319,117,l),
(335,0,l),
(516,0,l),
(390,688,l),
(127,688,l),
(1,0,l)
);
},
{
closed = 1;
nodes = (
(253,529,l),
(260,529,l),
(297,260,l),
(216,260,l)
);
}
);
};
layerId = "7836D3B9-397C-42C1-8084-A98A44B9119A";
shapes = (
{
closed = 1;
nodes = (
(516,0,l),
(355,688,l),
(186,688,l),
(281,261,l),
(256,261,l),
(226,117,l),
(313,117,l),
(339,0,l)
);
},
{
closed = 1;
nodes = (
(178,0,l),
(244,319,l),
(162,688,l),
(1,0,l)
);
}
);
width = 517;
},
{
anchors = (
{
name = bottom;
pos = (248,0);
},
{
name = ogonek;
pos = (481,0);
},
{
name = top;
pos = (248,688);
}
);
background = {
shapes = (
{
closed = 1;
nodes = (
(108,0,l),
(149,176,l),
(343,176,l),
(385,0,l),
(481,0,l),
(313,688,l),
(183,688,l),
(14,0,l)
);
},
{
closed = 1;
nodes = (
(243,586,l),
(249,586,l),
(324,257,l),
(168,257,l)
);
}
);
};
guides = (
{
angle = -76.471;
pos = (315,293);
},
{
angle = -76.471;
pos = (279,293);
},
{
angle = 76.5634;
pos = (178,293);
},
{
angle = 76.5634;
pos = (214,293);
}
);
layerId = "374FF654-0B40-45EE-AE97-0DEB7620D1EC";
shapes = (
{
closed = 1;
nodes = (
(481,0,l),
(308,688,l),
(220,688,l),
(323,257,l),
(205,257,l),
(186,176,l),
(343,176,l),
(385,0,l)
);
},
{
closed = 1;
nodes = (
(108,0,l),
(228,503,l),
(186,680,l),
(14,0,l)
);
}
);
width = 495;
},
{
anchors = (
{
name = bottom;
pos = (342,0);
},
{
name = ogonek;
pos = (666,0);
},
{
name = top;
pos = (342,688);
}
);
background = {
shapes = (
{
closed = 1;
nodes = (
(147,0,l),
(200,160,l),
(480,160,l),
(534,0,l),
(666,0,l),
(427,688,l),
(257,688,l),
(18,0,l)
);
},
{
closed = 1;
nodes = (
(337,568,l),
(342,568,l),
(443,268,l),
(236,268,l)
);
}
);
};
layerId = "E7A95A6A-7487-49EE-B62A-BA87B06E4B57";
shapes = (
{
closed = 1;
nodes = (
(666,0,l),
(407,688,l),
(282,688,l),
(436,268,l),
(278,268,l),
(242,160,l),
(475,160,l),
(534,0,l)
);
},
{
closed = 1;
nodes = (
(147,0,l),
(311,491,l),
(248,663,l),
(18,0,l)
);
}
);
width = 684;
},
{
anchors = (
{
name = bottom;
pos = (173,0);
},
{
name = ogonek;
pos = (334,0);
},
{
name = top;
pos = (173,688);
}
);
background = {
shapes = (
{
closed = 1;
nodes = (
(87,0,l),
(115,184,l),
(226,184,l),
(254,0,l),
(334,0,l),
(229,688,l),
(116,688,l),
(11,0,l)
);
},
{
closed = 1;
nodes = (
(169,586,l),
(173,586,l),
(215,252,l),
(126,252,l)
);
}
);
};
guides = (
{
angle = 82.6639;
pos = (146,419);
},
{
angle = 82.6639;
pos = (176,419);
},
{
angle = -81.99;
pos = (192,419);
},
{
angle = -81.99;
pos = (161,419);
}
);
layerId = "487ADAF7-57C4-4091-879E-1D750F439591";
shapes = (
{
closed = 1;
nodes = (
(334,0,l),
(224,688,l),
(154,688,l),
(215,252,l),
(155,252,l),
(146,184,l),
(226,184,l),
(254,0,l)
);
},
{
closed = 1;
nodes = (
(87,0,l),
(155,461,l),
(123,688,l),
(11,0,l)
);
}
);
width = 345;
},
{
anchors = (
{
name = bottom;
pos = (178,0);
},
{
name = ogonek;
pos = (349,0);
},
{
name = top;
pos = (178,688);
}
);
background = {
shapes = (
{
closed = 1;
nodes = (
(140,0,l),
(149,134,l),
(206,134,l),
(214,0,l),
(349,0,l),
(282,688,l),
(73,688,l),
(6,0,l)
);
},
{
closed = 1;
nodes = (
(174,563,l),
(181,563,l),
(200,258,l),
(155,258,l)
);
}
);
};
layerId = "7674DAFD-136A-491A-A3F0-195DB056B53F";
shapes = (
{
closed = 1;
nodes = (
(349,0,l),
(261,688,l),
(119,688,l),
(187,218,l),
(175,218,l),
(166,93,l),
(205,93,l),
(219,0,l)
);
},
{
closed = 1;
nodes = (
(140,0,l),
(158,254,l),
(95,688,l),
(6,0,l)
);
}
);
width = 355;
},
{
anchors = (
{
name = bottom;
pos = (164,0);
},
{
name = ogonek;
pos = (322,0);
},
{
name = top;
pos = (164,688);
}
);
background = {
shapes = (
{
closed = 1;
nodes = (
(48,0,l),
(88,215,l),
(236,215,l),
(276,0,l),
(312,0,l),
(185,688,l),
(141,688,l),
(14,0,l)
);
},
{
closed = 1;
nodes = (
(161,624,l),
(164,624,l),
(230,249,l),
(94,249,l)
);
}
);
};
guides = (
{
angle = 79.87;
pos = (128,437);
},
{
angle = 79.87;
pos = (163,437);
},
{
angle = -80.0182;
pos = (197,437);
},
{
angle = -80.0182;
pos = (161,437);
}
);
layerId = "B5B62657-8F5D-48EE-9125-14A639410D02";
shapes = (
{
closed = 1;
nodes = (
(312,0,l),
(185,688,l),
(153,688,l),
(230,249,l),
(129,249,l),
(123,215,l),
(236,215,l),
(276,0,l)
);
},
{
closed = 1;
nodes = (
(48,0,l),
(144,530,l),
(128,620,l),
(14,0,l)
);
}
);
width = 327;
},
{
anchors = (
{
name = bottom;
pos = (403,0);
},
{
name = ogonek;
pos = (814,0);
},
{
name = top;
pos = (403,688);
}
);
background = {
shapes = (
{
closed = 1;
nodes = (
(248,0,l),
(276,95,l),
(522,95,l),
(551,0,l),
(814,0,l),
(584,688,l),
(221,688,l),
(-9,0,l)
);
},
{
closed = 1;
nodes = (
(394,500,l),
(404,500,l),
(472,265,l),
(325,265,l)
);
}
);
};
layerId = "8EBCA172-37CB-4E59-A5FF-33FE92477777";
shapes = (
{
closed = 1;
nodes = (
(814,0,l),
(549,688,l),
(296,688,l),
(456,265,l),
(382,265,l),
(321,95,l),
(520,95,l),
(556,0,l)
);
},
{
closed = 1;
nodes = (
(248,0,l),
(379,363,l),
(256,688,l),
(-9,0,l)
);
}
);
width = 805;
},
{
anchors = (
{
name = bottom;
pos = (399,0);
},
{
name = ogonek;
pos = (771,0);
},
{
name = top;
pos = (399,688);
}
);
background = {
shapes = (
{
closed = 1;
nodes = (
(152,0,l),
(224,168,l),
(566,168,l),
(636,0,l),
(771,0,l),
(477,688,l),
(321,688,l),
(26,0,l)
);
},
{
closed = 1;
nodes = (
(391,577,l),
(402,577,l),
(523,271,l),
(267,271,l)
);
}
);
};
layerId = "C6199351-AF36-494D-BF00-13EB6406F65F";
shapes = (
{
closed = 1;
nodes = (
(771,0,l),
(477,688,l),
(359,688,l),
(523,271,l),
(316,271,l),
(270,168,l),
(566,168,l),
(636,0,l)
);
},
{
closed = 1;
nodes = (
(152,0,l),
(373,532,l),
(316,675,l),
(26,0,l)
);
}
);
width = 797;
},
{
anchors = (
{
name = bottom;
pos = (398,0);
},
{
name = ogonek;
pos = (768,0);
},
{
name = top;
pos = (398,688);
}
);
background = {
shapes = (
{
closed = 1;
nodes = (
(87,0,l),
(195,224,l),
(601,224,l),
(709,0,l),
(749,0,l),
(415,688,l),
(382,688,l),
(48,0,l)
);
},
{
closed = 1;
nodes = (
(396,645,l),
(401,645,l),
(585,258,l),
(211,258,l)
);
}
);
};
guides = (
{
angle = -64.5711;
pos = (493,452);
},
{
angle = 64.4505;
pos = (304,452);
},
{
angle = 64.4505;
pos = (360,452);
},
{
angle = -64.5711;
pos = (436,452);
}
);
layerId = "E7639064-56EC-4BF1-BEDD-A20273C7A444";
shapes = (
{
closed = 1;
nodes = (
(749,0,l),
(415,688,l),
(381,688,l),
(585,258,l),
(267,258,l),
(251,224,l),
(601,224,l),
(709,0,l)
);
},
{
closed = 1;
nodes = (
(87,0,l),
(370,591,l),
(353,627,l),
(48,0,l)
);
}
);
width = 796;
}
);
unicode = 65;
},
{
glyphname = AE;
kernLeft = A;
kernRight = E;
layers = (
{
anchors = (
{
name = bottom;
pos = (468,0);
},
{
name = top;
pos = (468,688);
}
);
background = {
shapes = (
{
closed = 1;
nodes = (
(38,0,l),
(151,222,l),
(496,222,l),
(564,0,l),
(890,0,l),
(890,34,l),
(592,34,l),
(500,331,l),
(843,331,l),
(843,365,l),
(490,365,l),
(400,654,l),
(890,654,l),
(890,688,l),
(354,688,l),
(0,0,l)
);
},
{
closed = 1;
nodes = (
(364,637,l),
(369,637,l),
(485,256,l),
(169,256,l)
);
}
);
};
layerId = UUID0;
shapes = (
{
closed = 1;
nodes = (
(602,0,l),
(389,688,l),
(352,688,l),
(485,256,l),
(215,256,l),
(198,222,l),
(496,222,l),
(564,0,l)
);
},
{
closed = 1;
nodes = (
(38,0,l),
(339,590,l),
(326,635,l),
(0,0,l)
);
},
{
closed = 1;
nodes = (
(890,0,l),
(890,34,l),
(637,34,l),
(648,0,l)
);
},
{
closed = 1;
nodes = (
(843,331,l),
(843,365,l),
(535,365,l),
(545,331,l)
);
},
{
closed = 1;
nodes = (
(890,654,l),
(890,688,l),
(435,688,l),
(446,654,l)
);
}
);
width = 947;
},
{
anchors = (
{
name = bottom;
pos = (490,0);
},
{
name = top;
pos = (490,688);
}
);
background = {
shapes = (
{
closed = 1;
nodes = (
(202,0,l),
(242,106,l),
(445,106,l),
(455,0,l),
(932,0,l),
(932,167,l),
(646,167,l),
(636,266,l),
(885,266,l),
(885,429,l),
(618,429,l),
(609,521,l),
(932,521,l),
(932,688,l),
(284,688,l),
(-25,0,l)
);
},
{
closed = 1;
nodes = (
(400,521,l),
(409,521,l),
(431,266,l),
(303,266,l)
);
}
);
};
layerId = "4F93A97B-747D-4721-B098-38A63C534D7A";
shapes = (
{
closed = 1;
nodes = (
(645,0,l),
(515,688,l),
(291,688,l),
(375,241,l),
(345,241,l),
(275,81,l),
(405,81,l),
(421,0,l)
);
},
{
closed = 1;
nodes = (
(203,0,l),
(331,291,l),
(266,634,l),
(-28,0,l)
);
},
{
closed = 1;
nodes = (
(913,0,l),
(913,167,l),
(648,167,l),
(680,0,l)
);
},
{
closed = 1;
nodes = (
(866,266,l),
(866,429,l),
(599,429,l),
(630,266,l)
);
},
{
closed = 1;
nodes = (
(913,521,l),
(913,688,l),
(550,688,l),
(581,521,l)
);
}
);
width = 980;
},
{
anchors = (
{
name = bottom;
pos = (339,0);
},
{
name = top;
pos = (339,688);
}
);
background = {
shapes = (
{
closed = 1;
nodes = (
(37,0,l),
(119,219,l),
(358,219,l),
(403,0,l),
(638,0,l),
(638,34,l),
(433,34,l),
(372,331,l),
(604,331,l),
(604,365,l),
(366,365,l),
(307,654,l),
(638,654,l),
(638,688,l),
(261,688,l),
(0,0,l)
);
},
{
closed = 1;
nodes = (
(272,624,l),
(277,624,l),
(351,253,l),
(131,253,l)
);
}
);
};
guides = (
{
angle = -78.7198;
pos = (314,439);
},
{
angle = 69.1905;
pos = (202,439);
},
{
angle = 101.5385;
pos = (337,510);
},
{
angle = 69.1905;
pos = (246,439);
},
{
angle = -78.7198;
pos = (272,439);
},
{
angle = 101.5385;
pos = (379,510);
}
);
layerId = "E6BBBBE7-ECAD-4929-840D-43673C7BDEAF";
shapes = (
{
closed = 1;
nodes = (
(441,0,l),
(301,688,l),
(264,688,l),
(351,253,l),
(175,253,l),
(163,219,l),
(358,219,l),
(403,0,l)
);
},
{
closed = 1;
nodes = (
(37,0,l),
(248,559,l),
(236,621,l),
(0,0,l)
);
},
{
closed = 1;
nodes = (
(638,0,l),
(638,34,l),
(476,34,l),
(483,0,l)
);
},
{
closed = 1;
nodes = (
(604,331,l),
(604,365,l),
(408,365,l),
(415,331,l)
);
},
{
closed = 1;
nodes = (
(638,654,l),
(638,688,l),
(342,688,l),
(349,654,l)
);
}
);
width = 677;
},
{
anchors = (
{
name = bottom;
pos = (348,0);
},
{
name = top;
pos = (348,688);
}
);
background = {
shapes = (
{
closed = 1;
nodes = (
(159,0,l),
(183,118,l),
(312,118,l),
(321,0,l),
(662,0,l),
(662,148,l),
(480,148,l),
(468,274,l),
(637,274,l),
(637,421,l),
(454,421,l),
(443,540,l),
(662,540,l),
(662,688,l),
(163,688,l),
(-18,0,l)
);
},
{
closed = 1;
nodes = (
(272,536,l),
(279,536,l),
(301,261,l),
(215,261,l)
);
}
);
};
guides = (
{
angle = -83.4018;
pos = (465,274);
},
{
angle = -83.4018;
pos = (290,268);
},
{
angle = -83.4018;
pos = (265,268);
},
{
angle = -83.4018;
pos = (489,274);
}
);
layerId = "7836D3B9-397C-42C1-8084-A98A44B9119A";
shapes = (
{
closed = 1;
nodes = (
(497,0,l),
(417,688,l),
(241,688,l),
(293,242,l),
(272,242,l),
(221,98,l),
(310,98,l),
(321,0,l)
);
},
{
closed = 1;
nodes = (
(159,0,l),
(263,289,l),
(217,675,l),
(-18,0,l)
);
},
{
closed = 1;
nodes = (
(662,0,l),
(662,148,l),
(504,148,l),
(520,0,l)
);
},
{
closed = 1;
nodes = (
(637,274,l),
(637,421,l),
(472,421,l),
(489,274,l)
);
},
{
closed = 1;
nodes = (
(662,540,l),
(662,688,l),
(441,688,l),
(458,540,l)
);
}
);
width = 696;
},
{
anchors = (
{
name = bottom;
pos = (345,0);
},
{
name = top;
pos = (345,688);
}
);
background = {
shapes = (
{
closed = 1;
nodes = (
(86,0,l),
(142,176,l),
(336,176,l),
(362,0,l),
(642,0,l),
(642,82,l),
(445,82,l),
(410,306,l),
(611,306,l),
(611,388,l),
(397,388,l),
(363,606,l),
(642,606,l),
(642,688,l),
(221,688,l),
(-7,0,l)
);
},
{
closed = 1;
nodes = (
(272,587,l),
(277,587,l),
(325,257,l),
(168,257,l)
);
}
);
};
guides = (
{
angle = -81.7241;
pos = (301,422);
},
{
angle = 72.5077;
pos = (220,422);
},
{
angle = 98.8646;
pos = (380,497);
},
{
angle = 72.5077;
pos = (257,422);
},
{
angle = -81.7241;
pos = (265,422);
},
{
angle = 98.8646;
pos = (416,497);
}
);
layerId = "374FF654-0B40-45EE-AE97-0DEB7620D1EC";
shapes = (
{
closed = 1;
nodes = (
(457,0,l),
(350,688,l),
(262,688,l),
(325,257,l),
(205,257,l),
(180,176,l),
(336,176,l),
(362,0,l)
);
},
{
closed = 1;
nodes = (
(86,0,l),
(251,520,l),
(226,688,l),
(-7,0,l)
);
},
{
closed = 1;
nodes = (
(642,0,l),
(642,82,l),
(481,82,l),
(494,0,l)
);
},
{
closed = 1;
nodes = (
(611,306,l),
(611,388,l),
(433,388,l),
(446,306,l)
);
},
{
closed = 1;
nodes = (
(642,606,l),
(642,688,l),
(386,688,l),
(399,606,l)
);
}
);
width = 680;
},
{
anchors = (
{
name = bottom;
pos = (481,0);
},
{
name = top;
pos = (481,688);
}
);
background = {
shapes = (
{
closed = 1;
nodes = (
(115,0,l),
(188,160,l),
(467,160,l),
(502,0,l),
(905,0,l),
(905,108,l),
(609,108,l),
(567,293,l),
(858,293,l),
(858,401,l),
(542,401,l),
(502,580,l),
(905,580,l),
(905,688,l),
(306,688,l),
(-13,0,l)
);
},
{
closed = 1;
nodes = (
(372,568,l),
(377,568,l),
(443,268,l),
(236,268,l)
);
},
{
closed = 1;
nodes = (
(612,213,o),
(621,222,o),
(621,233,cs),
(621,244,o),
(612,253,o),
(601,253,cs),
(590,253,o),
(581,244,o),
(581,233,cs),
(581,222,o),
(590,213,o),
(601,213,cs)
);
}
);
};
layerId = "E7A95A6A-7487-49EE-B62A-BA87B06E4B57";
shapes = (
{
closed = 1;
nodes = (
(632,0,l),
(481,688,l),
(351,688,l),
(443,268,l),
(282,268,l),
(233,160,l),
(467,160,l),
(502,0,l)
);
},
{
closed = 1;
nodes = (
(115,0,l),
(349,509,l),
(310,688,l),
(-13,0,l)
);
},
{
closed = 1;
nodes = (
(905,0,l),
(905,108,l),
(649,108,l),
(673,0,l)
);
},
{
closed = 1;
nodes = (
(858,293,l),
(858,401,l),
(584,401,l),
(608,293,l)
);
},
{
closed = 1;
nodes = (
(905,580,l),
(905,688,l),
(520,688,l),
(544,580,l)
);
}
);
width = 961;
},
{
anchors = (
{
name = bottom;
pos = (234,0);
},
{
name = top;
pos = (234,688);
}
);
background = {
shapes = (
{
closed = 1;
nodes = (
(72,0,l),
(108,184,l),
(227,184,l),
(244,0,l),
(427,0,l),
(427,71,l),
(317,71,l),
(294,312,l),
(410,312,l),
(410,383,l),
(287,383,l),
(265,617,l),
(427,617,l),
(427,688,l),
(131,688,l),
(-5,0,l)
);
},
{
closed = 1;
nodes = (
(183,587,l),
(189,587,l),
(220,252,l),
(121,252,l)
);
}
);
};
guides = (
{
angle = -84.7131;
pos = (205,420);
},
{
angle = 95.371;
pos = (276,500);
},
{
angle = -84.7131;
pos = (175,420);
},
{
angle = 95.371;
pos = (306,500);
},
{
angle = 77.6572;
pos = (122,229);
},
{
angle = 77.6572;
pos = (152,229);
}
);
layerId = "487ADAF7-57C4-4091-879E-1D750F439591";
shapes = (
{
closed = 1;
nodes = (
(323,0,l),
(258,688,l),
(180,688,l),
(220,252,l),
(157,252,l),
(142,184,l),
(227,184,l),
(244,0,l)
);
},
{
closed = 1;
nodes = (
(72,0,l),
(172,457,l),
(151,688,l),
(-5,0,l)
);
},
{
closed = 1;
nodes = (
(427,0,l),
(427,71,l),
(347,71,l),
(353,0,l)
);
},
{
closed = 1;
nodes = (
(410,312,l),
(410,383,l),
(317,383,l),
(324,312,l)
);
},
{
closed = 1;
nodes = (
(427,617,l),
(427,688,l),
(288,688,l),
(295,617,l)
);
}
);
width = 447;
},
{
anchors = (
{
name = bottom;
pos = (210,0);
},
{
name = top;
pos = (210,688);
}
);
background = {
shapes = (
{
closed = 1;
nodes = (
(120,0,l),
(130,132,l),
(191,132,l),
(200,0,l),
(421,0,l),
(421,126,l),
(331,126,l),
(317,284,l),
(415,284,l),
(415,411,l),
(306,411,l),
(294,562,l),
(421,562,l),
(421,688,l),
(53,688,l),
(-13,0,l)
);
},
{
closed = 1;
nodes = (
(159,562,l),
(165,562,l),
(185,256,l),
(136,256,l)
);
}
);
};
guides = (
{
angle = -86.4364;
pos = (183,281);
},
{
angle = -86.4364;
pos = (162,281);
},
{
angle = 94.5438;
pos = (300,487);
},
{
angle = 94.5438;
pos = (323,487);
}
);
layerId = "7674DAFD-136A-491A-A3F0-195DB056B53F";
shapes = (
{
closed = 1;
nodes = (
(339,0,l),
(284,688,l),
(158,688,l),
(188,196,l),
(174,196,l),
(153,72,l),
(196,72,l),
(200,0,l)
);
},
{
closed = 1;
nodes = (
(120,0,l),
(164,256,l),
(137,687,l),
(-13,0,l)
);
},
{
closed = 1;
nodes = (
(421,0,l),
(421,126,l),
(351,126,l),
(362,0,l)
);
},
{
closed = 1;
nodes = (
(415,284,l),
(415,411,l),
(329,411,l),
(339,284,l)
);
},
{
closed = 1;
nodes = (
(421,562,l),
(421,688,l),
(307,688,l),
(317,562,l)
);
}
);
width = 440;
},
{
anchors = (
{
name = bottom;
pos = (240,0);
},
{
name = top;
pos = (240,688);
}
);
background = {
shapes = (
{
closed = 1;
nodes = (
(35,0,l),
(90,215,l),
(237,215,l),
(261,0,l),
(417,0,l),
(417,34,l),
(294,34,l),
(261,331,l),
(393,331,l),
(393,365,l),
(257,365,l),
(224,654,l),
(417,654,l),
(417,688,l),
(178,688,l),
(0,0,l)
);
},
{
closed = 1;
nodes = (
(190,611,l),
(195,611,l),
(234,249,l),
(99,249,l)
);
}
);
};
guides = (
{
angle = -83.851;
pos = (215,430);
},
{
angle = -83.851;
pos = (179,430);
},
{
angle = 75.8893;
pos = (145,430);
},
{
angle = 75.8893;
pos = (181,430);
},
{
angle = 96.5142;
pos = (241,510);
},
{
angle = 96.5142;
pos = (276,510);
}
);
layerId = "B5B62657-8F5D-48EE-9125-14A639410D02";
shapes = (
{
closed = 1;
nodes = (
(299,0,l),
(221,688,l),
(187,688,l),
(234,249,l),
(135,249,l),
(127,215,l),
(237,215,l),
(261,0,l)
);
},
{
closed = 1;
nodes = (
(36,0,l),
(169,526,l),
(159,615,l),
(0,0,l)
);
},
{
closed = 1;
nodes = (
(417,0,l),
(417,34,l),
(330,34,l),
(334,0,l)
);
},
{
closed = 1;
nodes = (
(393,331,l),
(393,365,l),
(293,365,l),
(296,331,l)
);
},
{
closed = 1;
nodes = (
(417,654,l),
(417,688,l),
(256,688,l),
(260,654,l)
);
}
);
width = 439;
},
{
anchors = (
{
name = bottom;
pos = (595,0);
},
{
name = top;
pos = (595,688);
}
);
background = {
shapes = (
{
closed = 1;
nodes = (
(228,0,l),
(277,99,l),
(525,99,l),
(535,0,l),
(1094,0,l),
(1094,178,l),
(746,178,l),
(737,261,l),
(1034,261,l),
(1034,434,l),
(718,434,l),
(709,510,l),
(1094,510,l),
(1094,688,l),
(357,688,l),
(-29,0,l)
);
},
{
closed = 1;
nodes = (
(477,512,l),
(486,512,l),
(509,269,l),
(356,269,l)
);
}
);
};
guides = (
{
angle = 97.6481;
pos = (535,0);
},
{
angle = 97.6481;
pos = (495,0);
},
{
angle = 97.6481;
pos = (770,0);
},
{
angle = 97.6481;
pos = (810,0);
}
);
layerId = "8EBCA172-37CB-4E59-A5FF-33FE92477777";
shapes = (
{
closed = 1;
nodes = (
(770,0,l),
(678,688,l),
(443,688,l),
(499,269,l),
(428,269,l),
(330,99,l),
(522,99,l),
(535,0,l)
);
},
{
closed = 1;
nodes = (
(228,0,l),
(445,375,l),
(403,688,l),
(-29,0,l)
);
},
{
closed = 1;
nodes = (
(1094,0,l),
(1094,178,l),
(786,178,l),
(811,0,l)
);
},
{
closed = 1;
nodes = (
(1034,261,l),
(1034,434,l),
(752,434,l),
(775,261,l)
);
},
{
closed = 1;
nodes = (
(1094,510,l),
(1094,688,l),
(717,688,l),
(741,510,l)
);
}
);
width = 1150;
},
{
anchors = (
{
name = bottom;
pos = (574,0);
},
{
name = top;
pos = (574,688);
}
);
background = {
shapes = (
{
closed = 1;
nodes = (
(112,0,l),
(207,168,l),
(554,168,l),
(604,0,l),
(1061,0,l),
(1061,103,l),
(704,103,l),
(645,295,l),
(1004,295,l),
(1004,399,l),
(615,399,l),
(558,585,l),
(1061,585,l),
(1061,688,l),
(374,688,l),
(-13,0,l)
);
},
{
closed = 1;
nodes = (
(431,574,l),
(438,574,l),
(522,271,l),
(265,271,l)
);
}
);
};
guides = (
{
angle = -73.426;
pos = (579,84);
},
{
angle = 61.2837;
pos = (348,423);
},
{
angle = 107.0818;
pos = (675,199);
},
{
angle = 107.0818;
pos = (722,199);
},
{
angle = -73.426;
pos = (531,84);
},
{
angle = 61.2837;
pos = (400,423);
}
);
layerId = "C6199351-AF36-494D-BF00-13EB6406F65F";
shapes = (
{
closed = 1;
nodes = (
(736,0,l),
(525,688,l),
(399,688,l),
(522,271,l),
(316,271,l),
(261,168,l),
(554,168,l),
(604,0,l)
);
},
{
closed = 1;
nodes = (
(112,0,l),
(401,520,l),
(359,661,l),
(-13,0,l)
);
},
{
closed = 1;
nodes = (
(1061,0,l),
(1061,103,l),
(751,103,l),
(783,0,l)
);
},
{
closed = 1;
nodes = (
(1004,295,l),
(1004,399,l),
(660,399,l),
(692,295,l)
);
},
{
closed = 1;
nodes = (
(1061,585,l),
(1061,688,l),
(573,688,l),
(604,585,l)
);
}
);
width = 1127;
},
{
anchors = (
{
name = bottom;
pos = (555,0);
},
{
name = top;
pos = (555,688);
}
);
background = {
shapes = (
{
closed = 1;
nodes = (
(39,0,l),
(170,224,l),
(579,224,l),
(661,0,l),
(1041,0,l),
(1041,34,l),
(685,34,l),
(575,331,l),
(986,331,l),
(986,365,l),
(563,365,l),
(456,654,l),
(1041,654,l),
(1041,688,l),
(410,688,l),
(0,0,l)
);
},
{
closed = 1;
nodes = (
(419,645,l),
(424,645,l),
(565,258,l),
(192,258,l)
);
}
);
};
guides = (
{
angle = -69.9812;
pos = (495,452);
},
{
angle = 59.6057;
pos = (306,452);
},
{
angle = 110.3167;
pos = (510,510);
},
{
angle = 59.6057;
pos = (364,452);
},
{
angle = -69.9812;
pos = (441,452);
},
{
angle = 110.3167;
pos = (563,510);
}
);
layerId = "E7639064-56EC-4BF1-BEDD-A20273C7A444";
shapes = (
{
closed = 1;
nodes = (
(699,0,l),
(444,688,l),
(409,688,l),
(565,258,l),
(250,258,l),
(230,224,l),
(579,224,l),
(661,0,l)
);
},
{
closed = 1;
nodes = (
(39,0,l),
(390,595,l),
(376,631,l),
(0,0,l)
);
},
{
closed = 1;
nodes = (
(1041,0,l),
(1041,34,l),
(739,34,l),
(752,0,l)
);
},
{
closed = 1;
nodes = (
(986,331,l),
(986,365,l),
(617,365,l),
(629,331,l)
);
},
{
closed = 1;
nodes = (
(1041,654,l),
(1041,688,l),
(497,688,l),
(509,654,l)
);
}
);
width = 1109;
}
);
unicode = 198;
},
{
glyphname = B;
kernLeft = H;
kernRight = B;
layers = (
{
anchors = (
{
name = bottom;
pos = (344,0);
},
{
name = top;
pos = (344,688);
}
);
background = {
shapes = (
{
closed = 1;
nodes = (
(413,0,l),
(578,0,o),
(602,95,o),
(602,180,cs),
(602,249,o),
(588,332,o),
(477,350,c),
(477,354,l),
(562,370,o),
(594,432,o),
(594,516,cs),
(594,615,o),
(558,688,o),
(422,688,cs),
(115,688,l),
(115,0,l)
);
},
{
closed = 1;
nodes = (
(151,332,l),
(417,332,ls),
(522,332,o),
(566,284,o),
(566,183,cs),
(566,84,o),
(530,34,o),
(417,34,cs),
(151,34,l)
);
},
{
closed = 1;
nodes = (
(151,654,l),
(414,654,ls),
(526,654,o),
(558,606,o),
(558,510,cs),
(558,419,o),
(506,366,o),
(414,366,cs),
(151,366,l)
);
}
);
};
layerId = UUID0;
shapes = (
{
closed = 1;
nodes = (
(413,0,ls),
(578,0,o),
(602,95,o),
(602,180,cs),
(602,249,o),
(588,332,o),
(477,350,c),
(477,354,l),
(562,370,o),
(594,432,o),
(594,516,cs),
(594,615,o),
(558,688,o),
(422,688,cs),
(197,688,l),
(197,654,l),
(414,654,ls),
(526,654,o),
(558,606,o),
(558,510,cs),
(558,419,o),
(506,366,o),
(414,366,cs),
(197,366,l),
(197,332,l),
(417,332,ls),
(522,332,o),
(566,284,o),
(566,183,cs),
(566,84,o),
(530,34,o),
(417,34,cs),
(197,34,l),
(197,0,l)
);
},
{
closed = 1;
nodes = (
(151,0,l),
(151,688,l),
(115,688,l),
(115,0,l)
);
}
);
width = 687;
},
{
anchors = (
{
name = bottom;
pos = (330,0);
},
{
name = top;
pos = (330,688);
}
);
background = {
shapes = (
{
closed = 1;
nodes = (
(417,0,l),
(561,0,o),
(623,61,o),
(623,184,cs),
(623,300,o),
(576,330,o),
(498,349,c),
(498,353,l),
(580,372,o),
(621,414,o),
(621,515,cs),
(621,636,o),
(545,688,o),
(419,688,cs),
(51,688,l),
(51,0,l)
);
},
{
closed = 1;
nodes = (
(281,279,l),
(329,279,ls),
(383,279,o),
(389,272,o),
(389,219,cs),
(389,166,o),
(383,161,o),
(329,161,cs),
(281,161,l)
);
},
{
closed = 1;
nodes = (
(281,527,l),
(329,527,ls),
(383,527,o),
(389,522,o),
(389,471,cs),
(389,422,o),
(383,416,o),
(329,416,cs),
(281,416,l)
);
}
);
};
guides = (
{
angle = 90;
pos = (281,744);
},
{
angle = 90;
pos = (315,744);
}
);
layerId = "4F93A97B-747D-4721-B098-38A63C534D7A";
shapes = (
{
closed = 1;
nodes = (
(417,0,ls),
(561,0,o),
(623,61,o),
(623,184,cs),
(623,300,o),
(576,330,o),
(498,349,c),
(498,353,l),
(580,372,o),
(621,414,o),
(621,515,cs),
(621,636,o),
(545,688,o),
(419,688,cs),
(315,688,l),
(315,527,l),
(329,527,ls),
(383,527,o),
(389,522,o),
(389,471,cs),
(389,422,o),
(383,416,o),
(329,416,cs),
(315,416,l),
(315,279,l),
(329,279,ls),
(383,279,o),
(389,272,o),
(389,219,cs),
(389,166,o),
(383,161,o),
(329,161,cs),
(315,161,l),
(315,0,l)
);
},
{
closed = 1;
nodes = (
(281,0,l),
(281,688,l),
(51,688,l),
(51,0,l)
);
}
);
width = 660;
},
{
anchors = (
{
name = bottom;
pos = (248,0);
},
{
name = top;
pos = (248,688);
}
);
background = {
shapes = (
{
closed = 1;
nodes = (
(273,0,ls),
(404,0,o),
(438,72,o),
(438,180,cs),
(438,271,o),
(416,334,o),
(329,350,c),
(329,354,l),
(401,370,o),
(432,426,o),
(432,516,cs),
(432,627,o),
(393,688,o),
(280,688,cs),
(81,688,l),
(81,0,l)
);
},
{
closed = 1;
nodes = (
(117,332,l),
(276,332,ls),
(365,332,o),
(402,287,o),
(402,183,cs),
(402,79,o),
(369,34,o),
(276,34,cs),
(117,34,l)
);
},
{
closed = 1;
nodes = (
(117,654,l),
(274,654,ls),
(367,654,o),
(396,613,o),
(396,510,cs),
(396,417,o),
(351,366,o),
(274,366,cs),
(117,366,l)
);
}
);
};
guides = (
{
angle = 90;
pos = (158,748);
},
{
angle = 90;
pos = (117,744);
}
);
layerId = "E6BBBBE7-ECAD-4929-840D-43673C7BDEAF";
shapes = (
{
closed = 1;
nodes = (
(273,0,ls),
(404,0,o),
(438,72,o),
(438,180,cs),
(438,271,o),
(416,334,o),
(329,350,c),
(329,354,l),
(401,370,o),
(432,426,o),
(432,516,cs),
(432,627,o),
(393,688,o),
(280,688,cs),
(158,688,l),
(158,654,l),
(274,654,ls),
(367,654,o),
(396,613,o),
(396,510,cs),
(396,417,o),
(351,366,o),
(274,366,cs),
(158,366,l),
(158,332,l),
(276,332,ls),
(365,332,o),
(402,287,o),
(402,183,cs),
(402,79,o),
(369,34,o),
(276,34,cs),
(158,34,l),
(158,0,l)
);
},
{
closed = 1;
nodes = (
(117,0,l),
(117,688,l),
(81,688,l),
(81,0,l)
);
}
);
userData = {
LWTimeline = "H4sIAAAAAAAAE+2dXY8kOXae/0qjrlsJfn/MpWUJNrD2ApJsXQgLY7Qz2h14NL2YmbUuFvvfHUxmREaQTBZjqktTxX7QF9nB/DjBPOc9z1sZEYy/PP3bj1//+7c/PX31L395+v4//s9P336//Pd3H5/+4R//y9NXxn58+tPXP/8xP/377z/99O03T1/9/OOfv/349MOnb65ve1LCfBAffvPf/+ffPX180jouG7/9+7//2//1D//7OmDDhyjLERnEh+v2h3/8H7/97T/9t9uwsu7wSuM+aK32Q8r6D9re3rxtmy28Wt7hix3QH4w6fu4yZKWr90B/cDIcXqmWoXAYUlJch4o3O3sdve3HsnX7Sn73148Pvzkp5HV+tzcp4bfN+wer5VOLL0Er9SENF0My6HKv0nA4fPsq2g/aHEZSWFO+87pvt+/1uTm4ewKUsNvmbg5RX0f3Oyz98mUfM7UMWVkXxjJs5HGXvfmg3SGnKXAaak1jGb7NYynsr3/4/R8//Zgr+oel9J++evr505+Wl/7p00/f/fzdpx+Wgb8ooT6mfP71KU399rJ//fTzz5/+vfVKsbxu+ej/+O6bn/+4qEboj09//unbH//r1z9//fTVX55+88//9F36BGmjCUopJy/Oumj/+vHp/33748//nN/2N/Lj02+S6tyiun/9+vf/9w8/fvrzD9+kD0CDr6vBbd/friKfncNa5HkSb1aSr6vBv6aXgrFfQUJvUjRg7LyExjHm9SUo7Z0b5tir7TS6R/eHd6L7sxI6oXtz8V7ZKNSw8J9Xode3krtPftmRi3P+g7gIcfimjQ4f/KGk0khDlMvw9b3Ki+sn7d8h7XVIa1N+vFbxINK8vdWISTk5itRodf0Qo+xFa1081RLr+g6nXLlnOurrhyz5K/dMhaZ4F4nsxLtsbf3s/v+eCNZ6vL1JLhVbbO4lsry4loh2Pu+0rb/O6PJUpaqn6pqSub3DyPrLsfIaZ9m/Ms46i7zdn6/be/403ePWrqmll1ZNTbucZ33L4j7fIjW3Y6mJZnNLwz4eJudi/tjqO7zt8Tq11+wDR5T+i/soPorffVwe5e1R3R717dHcHu3t0d0e/e0x3B7j+jnbB66fKNePlOtnyvVD5fqp4qO87UV+VLdHfXs0t0d7e3S3R397DLdH8VHdPic/qtujvj2a26O9Pbrbo789huVx9Rd6yF/Ivb8wpb9wlb9wzVaWhkt/YWt/kTra3l9ct+/+Qtf+wtX+wrX9hav9RW5Thz1QzRblD/7Cj/kLefQXO2Xu2Vz7C137C92UYBo++gudOHyEdW4PxTuv+zbiL+TRX8iWv9Ci9heq9heq7S9U7S9C7S9k21+kabw1fxHMxcYYrX7kLzz+Yv9US6z4i9tTTcngL6q54S/wF/iLWor4ixn9hRM+xuXz8Re38PgL/EXON/7ii/EXashfqL2/sKW/8JW/8M1WloZLf+Fqf+ELf3HdvvuLdESl8Be+9he+7S987S9M7S90u0Ud/EUY8xfq6C9Uy19oUfsLU/sL05RgGi78ReLwEdYpbO0v0r6N+At19Beq6S9k7S907S9021/o2l/E2l+otr9I03hz/sJejDE6CvnAXwT8xf6plljxF7enmpLBX1Rzw1/gL/AXDSniL2b0F1Y5GyX+Yg2Pv8Bf5HzjL74cf+GG/MXa2a7lG0p/4St/4VutLA1X/sKWaL3WycFfpO2dv7Bl69JLI638RbNlpeHKX6jKXyzNstWizKFFbZarJ1OpxNFfNKV4O+vzsFey9heyJcE0XPoLU/mLu/T2YBaD/kIc/UWzeUpV+wtX+4t2s1yGK39xbZDHWeyaYzGNN+gv4lKl0sdH/sLgL3ZPtcSKv7g91ZQM/qKaG/4Cf4G/aEgRfzGjvzBWyUfXP2MvDk+1tIq9uD3VVAz2opob9uIN2gs/ZC/U3l740l64yl64VitLw5W9MCVZlbeFvUjbO3thytalvazthWy1rDRc2YvcefZ7oEKzReXjKGtb2hxXT6ZSxqO9yG6qkKLIAj3slajthWhJMA2X9iLJ7zih6wGT4p3XfRuxF8vrDvYiHwgp5nA7B3S/H9rW9sI2m+UyXNkLVduL7Dha03hz9sJdZIzOP7p6JGjsxe6pllaxF7enmorBXlRzw15gL7AXDSliLya0F0p4E+XDoyP4i/1TLbHiL25PNSWDv6jmhr94g/4iDPmLnR7TBaUF3m3lL2yrlaXhyl9cK7DSwMFfpO2dv9Bl60qblb8QrZaVhit/kfvRfg/SZZWNFpUPo6xtabNcPZlKmU/cXKWYfuCvpZguJy38hY6Vv1iGGhJMw6W/UJW/uB4vKd553bchfxGO/iIfBynmIPMhlMMOm9pfmGazXIYrf5HP2TzMIluO1jTeoL+wQUjx+OoRhb/YPdUSK/7i9lRTMviLam74C/wF/qIhRfzFlP4iaPlo1V7sxeGpllaxF7enmorBXlRzw168QXsRh+yF2NuLdFnmPuVL0Zb2wrRaWRqu7IUqyZra6NFepO2dvVBl61pqrrIXy1CjZaXh0l7ofCbnfg+WzzrRonoyLaWYfuGvpSiqY0R6gUFlLxIfKgmm4dJeXC86PUwoCbJ8575pPDeHg724X6u6n0M+hnLYYV3bi3TNcF0Yy3BlL/Ipm4dZZMfRmsabsxf+It2S10drawWJvdg91dIq9uL2VFMx2ItqbtgL7AX2oiFF7MWM9sLLJbHYizU89gJ7kfONvfgc9uIXmohfYhpWsyCHzILem4XrLbr2CQyVWQhtsxBqs+BrsxAKs3DdvpsFW5sFX5sF3zYLvjYLpjYL6QrJ8YbTE10prCyfUljpytDCLJjaLJi2WTCVWcgLYB0m9DnNgm6ahdv5nIcdrs2CaZsFU5kFLWqzoN+PWYhLi9RBPz6TArOwf6qlVczC7ammYjAL1dwwCzkWZgGzgFl4Z2bBOKM8ZmENj1nALOR8YxbeqVkY8gpm7xWu9846lHPlFWLbK8TaK4TaK6S1i/Ze4bp99wrpuEXhFULtFULbK4TaK9jaK5hX8wrpBNBaV7czKw97VXuF623lKz2l4cIrJKYevUIK+9m8Qrpotu6EqvYK19vNHzN1vTF9XRjpFvaFV5C1VzDvyissWXVLKjALa3jMAmYh5xuzgFk4jDT6EmYBs/AFmYUlD5IfFrbweAW8Qs43XuGdeoXUvp7vU3ZvFq53tTpkujQLaaTVmERtFtIiQgUnxdEs5O27WUjHLQqzEGuzENtmIdZmIZ3yWJgF+2pmwTbNgq7NQrqNe2EWrjd8rwSVhguzkKB6NAsp7GczC7ZpFtJpooVZuN4I/pip6y3jq8K43ly+MAu3Fa8Ps3hXZsFbp6yXuIU1PG4Bt5DzjVvALRxHWo0Jt4BbaLa+Sd2CM1wNsYXHLGAWcr4xC+/WLAy5Bbd3C7F0C7JyC7LtFmTlFlI9lKBMCy/vO9F1++4W0qGLohOJyi2koVYHSlf4FW4hnfRYuAX3am7httBVoay0GHfxJaRbrBdu4Xoz9kpRabhwC4mqR7eQwn42t+CabiGdKFq4BV+7Bd92C752C7p2C+5duYVoYpSOtRm28NgF7ELON3YBu1CMtDoTdgG70Ox9U9oFG7xVD2+khV3YP9UUK3YhP9WUDHahmht2Icd6RbughuyC39kFI0q7oCq7oNp2QdV2Ia2BXJAyLSN06ERHu5COXhSdSNZ2QbbtQrrKr7AL6czHwi74V7MLaZWpWlm2tguhtguhbRdCZRcSVo92IYX9bHYh3Vus7oXpbNHCLoTaLoS2XQi1XTC1XfDvyC4sOLNqmZfELqzhsQvYhZxv7AJ2oRhpdSbsAnah2fvmtAsxWvXwNprYhf1TTbFiF/JTTclgF6q5YRdyrFe0C3rILoS9XZClXdCVXdBtu6Bru5DuRFSQMhXDvhNdt3edqLYLqrYLqm0XVG0X0smPhV0Ir2YXQtMu1Lce17G2C7FtF2JlFxJWj3Yhhf1sdiF9D41eWNuFWNuF2LYLsbYLtrYL4V3ZBS/EYuWwC1t47AJ2Iecbu4BdKEaanQm7gF1o9r4p7UKQS61hF9bw2AXsQs43duG92gUzZBfi3i6o0i6Yyi6Ytl0wtV3QtV1I6wntO9F1+96J0uGLshPVdkG37UK62u9oF65nPxZ2Ib6aXUjLTdXKSiI+fglGVHYhDTUVVdmFhNWjXUhhP5tdiE27kM4YPdqFBWWlXUhDjd6Xhku74Gq7EN+RXTAXZaQMhl8XtvDYBexCzjd2AbtQjLQ6E3YBu9DqfXPaBSuWl2EXtvDYBexCzjd24d3aBTFiF0Lc2wVT2gVd2QXd7EzLcGUXZEnK602pD3Yhbe/sQqMThdouhHYHCrVdCLVdsGc6Tk91pbJui1IVyrqdAHnYK1/bBd9WlK/sgqjsgvqcdkG0eqEPtV1QtV1IYKgLYxku7YKNtV3IDqI1jTdoF5xf/h8ldmENj13ALuR8YxewC8VIqzNhF7ALrd43p10IxgeJXdjCYxewCznf2IX3ahf00O2lFqHt7ELqWvtULzwv7UJKflXiabiyC6Ik5XUJ44NdSNs7uyDqTuRru+DbHcjXdsHXdsGc6Tg91ZXKSr+n18pKy1qXdsHVdsG1FeVKu7AIrLQL18MTxTt/qV1IV57WvdDnFx12WNZ2QbZ6Xxqu7EKo7ELIDqI1jTdoF4KJIbAG9BYet4BbyPnGLeAWipFWZ8It4BZavW9Ot2CDV55TF7bw2AXsQs43duHd2oUwZBf83i6o0i7Iyi7IZmdahku7kNpMaRdEYRfS9q4TxboTudouJJE1OpCr7UI+rXFfeOkCwPGO01Ndqaz0c3qtrHThY2kXbG0XbFtRtrILobIL16MTxTt/sV3IRx3KObjaLqT+VzQK0ep9abiyC7kf72cRsoNoTePN2QV7EVJL73ALa3jcAm4h5xu3gFsoRlqdCbeAW2j1vjndgpJRWX5c2MJjF7ALOd/YhXdrF/yQXXB7u5D0tU/1wvPSLohmZ1qGK7sQSlKm+yAfOtF1e9eJQt2JbG0XbLsD2dou5LMa94UX1ZmO01Ndqaz0c3qtLF8dkLne6Lu0C+na1IaiTGUXrtreTyiF/Xx24b65n4Mt7UK+VXjRFtPVrVVhXG8/XtoFV9uF3KJb03iDdkEp77XELmzhsQvYhZxv7AJ2oRhpdSbsAnah3ftmtAvLVyI9azpu4bEL2IWcb+zCu7ULbsgupHWZ1lag0opNB7XH0i4sI83OFGu7kCtvXxBLWzvahbS960S+7kSmtgum3YFMbRfyaY37wkvLEI13nJ7qSmWF7I5KZVVHZBYM1HYhXZvaUJSu7MJVN/sJpbCfzy7kww7FHG4dcr8fMV2zWrTFdHVrVRhpuLILtrYL2UG0pvEG7YKNXgTHrwtbeOwCdiHnG7uAXShGmp0Ju4BdaPa+Ce2CE9Z4Vl24h8cuYBdyvrEL79Yu2CG7kNZlWluBTCs2FX2otAuPOlNtF3Kp7QtC+8IupO1dJ3J1J9K1XUhrDTc6kK7tQj6vcV94aRmi8Y7TU12prPR7ekNZ1RGZrKhiRx8qqrQLtrILV7UX7/zFdiEfdijm4K998LAf0dd2IV3eWhVGGq7sQm5sh1lkB9Gaxhu0CzGducD9KO/hsQvYhZxv7AJ2YagzYReaysIuTGgXgtRW4xbW8LgF3ELO93RuIZEbot6TCVGfnwNEPUnUeBHGK8XKBFt4iApRc74hKkTtqrJXmYPVB1HnI6rUUnB6/T08RIWoOd8QFaJ2VdmrzMHqg6gTEjVIK1mafwsPUSFqzjdEhahdVfYqc7D6IOp8RFXSBMNx1C08RIWoOd8QFaJ2VdmrzMHqg6jzEdWlq55Ys/UeHqSC1JxvkApSu6rsVeZg9YHUCZFqnbMKoq7hISpEzfmejqhcPnNMJkR9fg4Q9RRRtZAXKYSVnJq0hYeoEDXnG6JC1K4qe5U5WH0QdYSo+35QTOMNElVJJzRE3cJDVIia8w1RIWpXlb3KHKw+iDofUb0IwVgJUtfwIBWk5nyDVJDaVWWvMgerD6ROiFTpowWp9/AgFaTmfE+H1LRwIUi9JxOkPj8HkHoSqfqibBROcLrvFh6kgtScb5AKUruq7FXmYPW9K6S2+wVILZCqhQgmgtQtPEgFqTnfIBWkdlXZq8zB6gOpEyI16iAtRF3DQ1SImvMNUSFqV5W9yhysPog6H1GDEEpFDqVu4UEqSM35BqkgtavKXmUOVh9InRGp0UdWTrqHB6kgNed7PqSm+7LC1Hs2Yerzc3i+YcDUA1PtReilVA1/pm7hYSpMzfmGqV8eU8/Jsleag+UHU+djqlymILhT6hYepILUnG+QClL7suyV5mD5gdT5kKpMdNGD1DU8SAWpOd8gFaT2ZdkrzcHyA6nzIdUJHyO//N7Dw1SYmvMNU2FqX5a90hwsP5g6IVOlj4pFfrfwIBWk5nzPh1QFUg/ZBKnPz+H5hgFSD0j1F6PE8vHc3G0LD1Nhas43TJ2bqYs8Yeqzc3i+YcDUkqnBOWNA6hoepILUnG+QClL7suyV5mD5gdT5kGq9ENJxbeoWHqbC1JxvmApT+7LsleZg+cHU+ZjqgjZKcobSFh6mwtScb5gKU/uy7JXmYPnB1PmYGpWIljOUtvAgFaTmfE+HVMWqhEd1QtRn5/B8v4CoB6Iuwo8soLQPD1Ehas43RIWoXVX2KnOw+iYgqssvOnyzXzRRjTFegtR7eJAKUnO+QSpI7aqyV5mD1QdS50OqlcFwM5p7eIgKUXO+ISpE7aqyV5mD1QdR5yNqFEpzL5p7eIgKUXO+pyOq+yh+93F59G/9FCVXkDVtQ9ZO9UHWt0ZWJS7WKsetyLfwgBWw5nwDVsB6ePMjdfYqdLAKAet8YHVCWO85+XcLD1pBa843aP210GoLtKbtnWptrVrQup8RaH0lSZ1Ca9A+KFYpvIcHraA15xu0gtbDmx+ps1ehg1UIWmdEa5BBcaR1Cw9aQWvON2j9tdBqCrSmbdDaqT7Q+ubQKi9SSmcDpwVv4UEraM35Bq2g9fDmR+rsVehgFYLWCdFqg7dccXMPD1pBa843aP210KoLtKZt0NqpPtD6BtG61LDwDrKu4SErZM35hqyQ9fDmR+rsVehgFULWCckaveS2cFt4wApYc74B638KWG3JlLR5BGvaBqyd6gOsbxCs1ruo+ZN1Cw9ZIWvON2SFrIc3P1Jnr0IHqxCyzkdWp5Yqdhxn3cKDVtCa8w1afy20ygKtaXunWlOrFrTuZwRaX0lSp9AajBWR1SK28JAVsuZ8Q1bIenjzI3X2KnSwCiHrhGSNcik3yLqGh6yQNecbsv5aZBUFWdM2ZO1UH2R9c2RVFxk9WF3Dg1WwmvMNVsHq4c2P1Nmr0MEqBKvzYVUt5R45f2kLD1kha843ZP2VyPqcaiFrWX2Q9Q2S1S1dwGtWN9zCg1bQmvMNWkHr4c2P1Nmr0MEqBK0TojVoGfg5eAsPWSFrzvd0ZA0Q9ahOiPrsHEb6BUTdEdVdoo7WcLHNPTxIBak53yD1jSG1oVaQup8RSH0lKZ1Aqr8Ia6XhyOoWHqJC1JxviApRu6rsVeZg9UHU+YgqdbA6cN3qFh6kgtScb5AKUruq7FXmYPWB1PmQamLQ0XKS0hYepILUnG+QClK7quxV5mD1gdT5kGqFFwKibuEhKkTN+Z6OqPZNEVV9KAT2S9QKUfczgqivJKUTRA2X4LxSVoHUNTxIBak53yAVpHZV2avMweoDqVMi1XmuoNnCQ1SImvMNUV+VqAKiQtQZiRpjiC5yBc0WHqSC1JxvkPqaSF0+DKSC1OmQGi8iRhs9h1K38CAVpOZ8g9RXRWpKx7GZ/gK1gtT9jEDqK0npFFKVWPbM81fqFh6kgtScb5AKUruq7FXmYPWB1PmQ6kLUllu+beEhKkTN+YaoELWryl5lDlYfRJ2QqNEHgLqFB6gANed7OqCqjxKg7tUJUJ+dw0i/AKh3oGpxidF6Fnm4h4eoEDXnG6JC1K4qe5U5Wn0QdTKiyovUJnD9zD08RIWoOd8QFaJ2VdmrzNHqg6jTEVVppSN/o27hISpEzfmGqBC1q8peZY5WH0SdjqhOCWcsRF3DQ1SImvM9HVEXpkLUvToh6rNzGOkXEHVHVH0xIgjNLd228BAVouZ8Q1SI2lVlrzJHqw+iVkSV75qoSfEhchh1Cw9QAWrON0AFqF1V9ipztPoA6nxAjd4tWgGpa3iQClJzvkEqSO2qsleZo9UHUqdDqoo2BMOaSVt4kApSc75BKkjtqrJXmaPVB1KnQ6pxzljJHd228CAVpOZ8T4dUA1KP6gSpz85hoF+4GqmuRuqj/lAjVbxrpC6tPirLFan38BAVouZ8Q1SI2lVlrzJHqw+iTkdUKWS0kt99t/AgFaTmfE+HVCne+dK+oiHXmqmPZFozVcHUZ+cw0DBg6p6p8RKUMIJrUrfwIBWk5nyDVJDal2WvNEfLD6TOh1S9IJVbut3Dw1SYmvM9HVPtO//lF6SWVQdS3xpSjbqYEJb/QtQ1PESFqDnfEBWidlXZq8zR6oOoRhZ94X0TVV+kj1JG/kjdwoNUkJrzDVJBaleVvcocrT6QOh1SlXYapO4VCVJB6jXfIBWkdlXZq8zR6gOp0yHVSW2jY/GkLTxIBak53yAVpHZV2avM0eoDqfMhVVnLCb/38BAVouZ8T0fU9752EkQtq25Kor7rtZOMvRillgoMIHUND1JBas43SAWpXVX2KnO0+kDqfEjVMhiIuoWHqBA15xuiQtSuKnuVOVp9ELUiqnrXRF26mRHGcQXNFh6iQtScb4gKUbuq7FXmaPVB1PmIaoVXLJl/Dw9SQWrON0gFqV1V9ipztPpAaoXU9/2z79I9hROBBX7v4UEqSM35BqkgtavKXmWOVh9InQ+pcmFB5AqaLTxIBak539MhNbzz9X1bagWpuxmB1FeS0gmkhkv0zioFUrfwIBWk5nyDVJDaVWWvMkerD6TOh9TgFv3zw+8WHqSC1Jzv6ZAa50SqLYfaKgWpBxaB1BNSGkfq0tWW0jb8kXoPD1Ehas43RIWoXVX2KnO0+iDqfERV1kPUe3iIClFzviHq+yAqP/uuM4KorySlE0S1F7moJrAW4RYeokLUnG+IClG7quxV5mj1QdT5iKq9dxqiruEhKkTN+Z6OqFItSP24/Ee98ytpWrJ9CVqvEn2BPHslOlqGE6A1v+jwzX7BaI2XoLyS/LG6hQetoDXnG7SC1uObH8mzV6KjZQha50OrDoJlH+7hQStozfkGrV8KWg1ofXYOA40jgNY7Wp24yKgEC+lv4SErZM35hqyQ9fjmR/LslehoGULW6ciqhPTScz7wFh62wtacb9j6pbCVH4Sfn8NI44CtB7Z6L4TlWpt7eNgKW3O+YStsPb75kTx7JTpahrB1PrYGoaSErVt42Apbc77nY6v80i+7OSYJpg7MYaRhwNQdU/XFCM/tyu/hISpEzfmGqBC1L8teaY6WH0Sdj6jSBf5K3SsSpsLUa75h6mxMVUU5w9Tn5zDSMGDqganWixBZHGILD1JBas43SAWpfVn2SnO0/EDqfEgNwgSQuoUHqSA15xukTofUI4BA6sAcRhoGSD0g1QthlGc1iC08TIWpOd8wFab2ZdkrzdHyg6nzMVUKFVm7cAsPUkFqzjdInQ6ph1YDUkfmMNIwQOoBqcFH71n+4R4epsLUnG+YClP7suyV5mj5wdT5mBqilxxN3cKDVJCa8w1Sp0PqQdAgdWQOIw0DpO6QukjeCGG8gqlreJgKU3O+YSpM7cuyV5qj5QdTJ2RqNI5ffrfwIBWk5nyD1OmQWjR+kPr8HEYaBkg9IFUJH3XkpN8tPEyFqTnfMBWm9mXZK83R8oOp8zFVeqn5O/UeHqbC1JxvmDodU20hT5j67BxGGgZMPTBVh6gDF9Js4UEqSM35BqkgtS/LXmmOlh9InQ+pMQRlOUNpCw9TYWrON0ydjqmHV8LUkTmMNAyYemCqjdazLOE9PEgFqTnfIBWk9mXZK83R8gOp0yHVCeutB6lreJAKUnO+Qep0SC3lCVKfncNIwwCpB6RGa4SxnPS7hYepMDXnG6bC1L4se6U5Wn4wdT6mOm2jgqlbeJgKU3O+p2Oq/qhA6l6dIPXZOYz0izZSj7v2sD/MhlR3iUYZEUDqFh6kgtScb5AKUruq7FXmaPWB1PmQalWQHEzdwkNUiJrzDVEhaleVvcocrb55iXqY1uP+MBtR/UU5GwTr/N7Dg1SQmvMNUkFqV5W9yhytPpA6IVKdtKz1sIWHqBA15xuiQtSuKnuVOVp98xK1uEvBo/4wH1G9WWRjOJK6hQepIDXnG6SC1K4qe5U5Wn0gdT6kWqWi4nffLTxIBak53xMiVYLUvTrfLFJHqw6kvjWken2JIgTP775beIgKUXO+T/U2iLqOtNULUdvVB1HnI6p0UiruRLOFB6kgNef7VHN7D0g1v+o6D8c2CVLTLoDU6ZDqLlaaoPnZdwsPUSFqzvep3gZR15G2eiFqu/og6nxEVYsEJH+kbuFBKkjN+T7V3EDqOtJW74LUQrUgFaROiFR/EcFazwK/9/AgFaTmfJ9qbiB1HWmrF6S2qw+kzofUqHwUIHULD1JBas73qeYGUteRtnoXpB6vCwGp1+oDqdMhVS1INSxGuIWHqBA15/tUb4Oo60hbvRC1XX0QdTqiaiGk5PbjW3iIClFzvk/1Noi6jrTVuxD18A1B1LQLEHVCopooDX+j3sNDVIia832qt0HUdaStXojarj6IOiFRo5EGoq7hISpEzfk+1dsg6jrSVm9S7lG1EBWiTknU4IIVjgtotvAgFaTmfJ9qbiB1HWmrF6S2qw+kzodUb6PwIHULD1JBas73qeYGUteRtnoX5R5fCVKv1QdSJ0NquERlnLMgdQsPUkFqzvep5gZS15G2ekFqu/pA6oxIjdGA1C08SAWpOd+nmtt7QKr/VVfMB6mt6ntlpC5lCVIbAjkppXGkBnVd5kGxGOE9PEgFqTnfp5obSF1H2uoFqe3qA6nTIVUK5QIn/G7hISpEzfk+1dsg6jrSVi9EbVcfRJ2PqNYF4SDqGh6iQtSc71O9DaKuI231QtR29UHU6YiqYhSSZR628BAVouZ8n+ptEHUdaasXorar77WJeq+2AkUQ9YSUThFVh+XTOY66hYeoEDXn+1Rvg6jrSFu9ELVdfRB1OqKGqKJSIHULD1JBas73qeYGUteRtnpBarv6QOp0SI1CWxsg6hoeokLUnO9Tve09EFW84JLU3WwBa3rRmCBHixCwTgZWc7HOiuAg6xYeskLWnO9TzQ2yDokYsraLELLOR1ZvfOQ25Ft4wApYc75P9TbAOiRiwNouQsA6GVjtxUgpNKcAb+EBK2DN+T7V2yYFa0vMgDW9aEyQo0UIWOcDq5eWP1n3ioSskPWa71PNDbIOiRiytosQsk5HVuuMXLIKWdfwkBWy5nyfam6QdUjEkLVdhJB1OrI6ayMrLN3DA1bAmvN9qrcB1iERA9Z2EQLW+cDqhXGaH4O38JAVsuZ8n2pukHVIxJC1XYSQdTqyeiOCY3WILTxgBaw536d6G2AdEjFgbRchYJ0MrO6ipLXOAtY1PGAFrDnfp3obYB0SMWBtFyFgnQ+syhqtWSRiCw9ZIWvO96nm9h7IKiErZC2QBFlPKOoEWcNFWuOD4yjrFh6yQtac71PN7Usiq4Kso4IcLULIOh9Zo9Ja8DfrFh6yQtac71PNDbIOiRiytosQsk5HVhW0WYoVsq7hIStkzfk+1dy+ILIKfg3OWwOCHC1CyDodWXWMQllODd7CQ1bImvN9qrl9SWT1kHVUkKNFCFmnI6sVZikk/mbdwkNWyJrzfaq5fUlkTSv0F5KFrO0vcLQIIet0ZHXaGI6ybuHhKlzN+T7V2uDqkIjharsI4ep0XPVLlQbJX6xbeMgKWXO+TzU3yDokYsjaLkLIOh1Zgw6R9Zfu4QErYM35PtXbAOuQiAFruwgB63RgjTpoaSDrFh6yQtac71PNDbIOiRiytosQsk5G1ngRhp+C93qEq3D1mu9TrQ2uDokYrraLEK5Ox1WZ7h4HWLfwgBWw5nyf6m3vAawLWgHrB8C6JxJgPaGocbBGcQnBSasB6xoesALWnO9TvQ2wDokYsLaL8LOC1UXA+iqKOgXWaI3kCOsWHq7C1ZzvU60Nrg6JGK62ixCuTsZVeRE6eBkVZF3DQ1bImvN9qrlB1iERQ9Z2EULW+cjqrJOeg6xbeMgKWXO+TzU3yDokYsjaLkLIOh1ZpVv6pOLX4C08ZIWsOd+nmhtkHRIxZG0XIWSdjqzWL3+0WsC6hgesgDXn+1Rvew9gtYAVsBZEAqwnFHUCrPqigrGCS1nv4SErZM35PtXcIOuQiCFruwhfRtaq+CDrqyjqFFl1DD5wv/N7eMgKWXO+X9bcIGtVDZD1YRFC1unIGqy0hjODt/CAFbDmfL+stwHWqhoA68MiBKzzgdUp7bia9R4eskLWnO+XNbc3SFbFuoaQtUASZD2hqBNktRfh3TJ7yLqFh6yQNef7Zc3tyyJrGBQxZG0XIWSdjqxSWasEZN3CQ1bImvP9suYGWatqgKwPixCyzkfWoKVSHGfdwkNWyJrz/bLm9mWRdVTEkLVdhJB1OrIq4bzjb9Z7eMgKWXO+X9bcIGtVDZD1YRFC1unIqqU31gPWNTxgBaw53y/rbYC1qgbA+rAIAet0YDUyRMWpwffwkBWy5ny/rLlB1qoaIOvDIoSs05HVyuUfiwbfw0NWyJrz/bLmBlmraoCsD4sQsk5HVies5T439/CAFbDmfL+stwHWqhoA68MiBKzzgTV6GzgxeAsPWAFrzvfLehtgraoBsD4sQsA6HVi9DF5owLqGB6yANef7Zb0NsFbVAFgfFiFgnQys7iK9stZykHULD1kha873y5obZK2qAbI+LELIOh9Zw1JHgqOsW3jICllzvl/W3N4aWVek2gBRrx8PUQfmMNIuviSiRtclqhH+oiTrGe71CE/h6TXfL2tt8HQvXnjaLj54+p/OUxNGlZReeZKnUlyiVyFEiLqFh6gQNef7Zc0Nou7FC1HbxQdRJyNqvAjjhI+cALyFh6gQNef7Zc3tLRB1+fQfv/39px+/+e6HPzx99W9ff//T8uV9//VPP//tH7/+4Q/tRvD/AY4cJQ66kAYA";
};
width = 496;
},
{
anchors = (
{
name = bottom;
pos = (204,0);
},
{
name = top;
pos = (204,688);
}
);
background = {
shapes = (
{
closed = 1;
nodes = (
(297,0,ls),
(416,0,o),
(469,60,o),
(469,185,cs),
(469,293,o),
(439,332,o),
(372,349,c),
(372,353,l),
(435,370,o),
(464,414,o),
(464,515,cs),
(464,630,o),
(408,688,o),
(297,688,cs),
(40,688,l),
(40,0,l)
);
},
{
closed = 1;
nodes = (
(217,280,l),
(245,280,ls),
(288,280,o),
(288,267,o),
(288,213,cs),
(288,155,o),
(288,146,o),
(245,146,cs),
(217,146,l)
);
},
{
closed = 1;
nodes = (
(217,542,l),
(245,542,ls),
(288,542,o),
(288,533,o),
(288,478,cs),
(288,425,o),
(288,415,o),
(245,415,cs),
(217,415,l)
);
}
);
};
guides = (
{
angle = 90;
pos = (241,795);
},
{
angle = 90;
pos = (217,794);
}
);
layerId = "7836D3B9-397C-42C1-8084-A98A44B9119A";
shapes = (
{
closed = 1;
nodes = (
(297,0,ls),
(416,0,o),
(469,60,o),
(469,185,cs),
(469,293,o),
(439,332,o),
(372,349,c),
(372,353,l),
(435,370,o),
(464,414,o),
(464,515,cs),
(464,630,o),
(408,688,o),
(297,688,cs),
(241,688,l),
(241,542,l),
(245,542,ls),
(288,542,o),
(288,533,o),
(288,478,cs),
(288,425,o),
(288,415,o),
(245,415,cs),
(241,415,l),
(241,280,l),
(245,280,ls),
(288,280,o),
(288,267,o),
(288,213,cs),
(288,155,o),
(288,146,o),
(245,146,cs),
(241,146,l),
(241,0,l)
);
},
{
closed = 1;
nodes = (
(217,0,l),
(217,688,l),
(40,688,l),
(40,0,l)
);
}
);
width = 492;
},
{
anchors = (
{
name = bottom;
pos = (249,0);
},
{
name = top;
pos = (249,688);
}
);
background = {
shapes = (
{
closed = 1;
nodes = (
(278,0,ls),
(403,0,o),
(447,67,o),
(447,182,cs),
(447,279,o),
(421,332,o),
(342,349,c),
(342,353,l),
(410,370,o),
(441,420,o),
(441,515,cs),
(441,628,o),
(393,688,o),
(281,688,cs),
(64,688,l),
(64,0,l)
);
},
{
closed = 1;
nodes = (
(158,308,l),
(257,308,ls),
(328,308,o),
(352,279,o),
(352,194,cs),
(352,111,o),
(333,81,o),
(257,81,cs),
(158,81,l)
);
},
{
closed = 1;
nodes = (
(158,606,l),
(254,606,ls),
(329,606,o),
(346,578,o),
(346,497,cs),
(346,418,o),
(319,389,o),
(254,389,cs),
(158,389,l)
);
}
);
};
guides = (
{
angle = 90;
pos = (193,746);
},
{
angle = 90;
pos = (158,744);
}
);
layerId = "374FF654-0B40-45EE-AE97-0DEB7620D1EC";
shapes = (
{
closed = 1;
nodes = (
(278,0,ls),
(403,0,o),
(447,67,o),
(447,182,cs),
(447,279,o),
(421,332,o),
(342,349,c),
(342,353,l),
(410,370,o),
(441,420,o),
(441,515,cs),
(441,628,o),
(393,688,o),
(281,688,cs),
(193,688,l),
(193,606,l),
(254,606,ls),
(329,606,o),
(346,578,o),
(346,497,cs),
(346,418,o),
(319,389,o),
(254,389,cs),
(193,389,l),
(193,308,l),
(257,308,ls),
(328,308,o),
(352,279,o),
(352,194,cs),
(352,111,o),
(333,81,o),
(257,81,cs),
(193,81,l),
(193,0,l)
);
},
{
closed = 1;
nodes = (
(158,0,l),
(158,688,l),
(64,688,l),
(64,0,l)
);
}
);
width = 489;
},
{
anchors = (
{
name = bottom;
pos = (339,0);
},
{
name = top;
pos = (339,688);
}
);
background = {
shapes = (
{
closed = 1;
nodes = (
(419,0,l),
(573,0,o),
(616,75,o),
(616,182,cs),
(616,278,o),
(585,330,o),
(491,349,c),
(491,353,l),
(573,370,o),
(609,421,o),
(609,515,cs),
(609,626,o),
(554,688,o),
(418,688,cs),
(87,688,l),
(87,0,l)
);
},
{
closed = 1;
nodes = (
(215,294,l),
(378,294,ls),
(462,294,o),
(488,272,o),
(488,200,cs),
(488,127,o),
(464,107,o),
(378,107,cs),
(215,107,l)
);
},
{
closed = 1;
nodes = (
(215,580,l),
(373,580,ls),
(460,580,o),
(481,562,o),
(481,490,cs),
(481,425,o),
(452,402,o),
(373,402,cs),
(215,402,l)
);
}
);
};
layerId = "E7A95A6A-7487-49EE-B62A-BA87B06E4B57";
shapes = (
{
closed = 1;
nodes = (
(419,0,l),
(573,0,o),
(616,75,o),
(616,182,cs),
(616,278,o),
(585,330,o),
(491,349,c),
(491,353,l),
(573,370,o),
(609,421,o),
(609,515,cs),
(609,626,o),
(554,688,o),
(418,688,cs),
(255,688,l),
(255,580,l),
(373,580,ls),
(460,580,o),
(481,562,o),
(481,490,cs),
(481,425,o),
(452,402,o),
(373,402,cs),
(255,402,l),
(255,294,l),
(378,294,ls),
(462,294,o),
(488,272,o),
(488,200,cs),
(488,127,o),
(464,107,o),
(378,107,cs),
(255,107,l),
(255,0,l)
);
},
{
closed = 1;
nodes = (
(215,0,l),
(215,688,l),
(87,688,l),
(87,0,l)
);
}
);
width = 677;
},
{
anchors = (
{
name = bottom;
pos = (169,0);
},
{
name = top;
pos = (169,688);
}
);
background = {
shapes = (
{
closed = 1;
nodes = (
(169,0,ls),
(283,0,o),
(311,63,o),
(311,182,cs),
(311,296,o),
(294,335,o),
(227,351,c),
(227,355,l),
(283,371,o),
(307,402,o),
(307,517,cs),
(307,645,o),
(269,688,o),
(172,688,cs),
(42,688,l),
(42,0,l)
);
},
{
closed = 1;
nodes = (
(119,315,l),
(158,315,ls),
(212,315,o),
(233,288,o),
(233,194,cs),
(233,103,o),
(221,71,o),
(168,71,cs),
(119,71,l)
);
},
{
closed = 1;
nodes = (
(119,617,l),
(167,617,ls),
(218,617,o),
(229,588,o),
(229,499,cs),
(229,414,o),
(203,382,o),
(157,382,cs),
(119,382,l)
);
}
);
};
guides = (
{
angle = 90;
pos = (119,744);
},
{
angle = 270;
pos = (149,746);
}
);
layerId = "487ADAF7-57C4-4091-879E-1D750F439591";
shapes = (
{
closed = 1;
nodes = (
(169,0,ls),
(283,0,o),
(311,63,o),
(311,182,cs),
(311,296,o),
(294,335,o),
(227,351,c),
(227,355,l),
(283,371,o),
(307,402,o),
(307,517,cs),
(307,645,o),
(269,688,o),
(172,688,cs),
(149,688,l),
(149,617,l),
(167,617,ls),
(218,617,o),
(229,588,o),
(229,499,cs),
(229,414,o),
(203,382,o),
(157,382,cs),
(149,382,l),
(149,315,l),
(158,315,ls),
(212,315,o),
(233,288,o),
(233,194,cs),
(233,103,o),
(221,71,o),
(168,71,cs),
(149,71,l),
(149,0,l)
);
},
{
closed = 1;
nodes = (
(119,0,l),
(119,688,l),
(42,688,l),
(42,0,l)
);
}
);
width = 338;
},
{
anchors = (
{
name = bottom;
pos = (171,0);
},
{
name = top;
pos = (171,688);
}
);
background = {
shapes = (
{
closed = 1;
nodes = (
(190,0,ls),
(286,0,o),
(330,60,o),
(330,185,cs),
(330,303,o),
(302,335,o),
(259,349,c),
(259,353,l),
(305,368,o),
(329,414,o),
(329,515,cs),
(329,637,o),
(275,688,o),
(187,688,cs),
(29,688,l),
(29,0,l)
);
},
{
closed = 1;
nodes = (
(159,285,l),
(169,285,ls),
(193,285,o),
(198,281,o),
(198,206,cs),
(198,130,o),
(198,126,o),
(169,126,cs),
(159,126,l)
);
},
{
closed = 1;
nodes = (
(159,562,l),
(169,562,ls),
(197,562,o),
(198,558,o),
(198,488,cs),
(198,418,o),
(196,410,o),
(169,410,cs),
(159,410,l)
);
}
);
};
guides = (
{
angle = 270;
pos = (179,845);
},
{
angle = 90;
pos = (159,844);
}
);
layerId = "7674DAFD-136A-491A-A3F0-195DB056B53F";
shapes = (
{
closed = 1;
nodes = (
(190,0,ls),
(286,0,o),
(330,60,o),
(330,185,cs),
(330,303,o),
(302,335,o),
(259,349,c),
(259,353,l),
(305,368,o),
(329,414,o),
(329,515,cs),
(329,637,o),
(275,688,o),
(187,688,cs),
(179,688,l),
(179,562,l),
(181,562,ls),
(194,562,o),
(202,558,o),
(202,488,cs),
(202,418,o),
(193,410,o),
(181,410,cs),
(179,410,l),
(179,285,l),
(181,285,ls),
(190,285,o),
(202,281,o),
(202,206,cs),
(202,130,o),
(195,126,o),
(181,126,cs),
(179,126,l),
(179,0,l)
);
},
{
closed = 1;
nodes = (
(159,0,l),
(159,688,l),
(29,688,l),
(29,0,l)
);
}
);
width = 341;
},
{
anchors = (
{
name = bottom;
pos = (165,0);
},
{
name = top;
pos = (165,688);
}
);
background = {
shapes = (
{
closed = 1;
nodes = (
(149,0,ls),
(277,0,o),
(294,90,o),
(294,180,cs),
(294,258,o),
(283,332,o),
(199,350,c),
(199,354,l),
(264,370,o),
(290,424,o),
(290,516,cs),
(290,619,o),
(261,688,o),
(154,688,cs),
(52,688,l),
(52,0,l)
);
},
{
closed = 1;
nodes = (
(88,332,l),
(152,332,ls),
(226,332,o),
(258,289,o),
(258,183,cs),
(258,80,o),
(233,34,o),
(152,34,cs),
(88,34,l)
);
},
{
closed = 1;
nodes = (
(88,654,l),
(150,654,ls),
(231,654,o),
(254,611,o),
(254,510,cs),
(254,412,o),
(213,366,o),
(150,366,cs),
(88,366,l)
);
}
);
};
guides = (
{
angle = 90;
pos = (88,827);
},
{
angle = 90;
pos = (124,827);
}
);
layerId = "B5B62657-8F5D-48EE-9125-14A639410D02";
shapes = (
{
closed = 1;
nodes = (
(149,0,ls),
(277,0,o),
(294,90,o),
(294,180,cs),
(294,258,o),
(283,332,o),
(199,350,c),
(199,354,l),
(264,370,o),
(290,424,o),
(290,516,cs),
(290,619,o),
(261,688,o),
(154,688,cs),
(124,688,l),
(124,654,l),
(150,654,ls),
(231,654,o),
(254,611,o),
(254,510,cs),
(254,412,o),
(213,366,o),
(150,366,cs),
(124,366,l),
(124,332,l),
(152,332,ls),
(226,332,o),
(258,289,o),
(258,183,cs),
(258,80,o),
(233,34,o),
(152,34,cs),
(124,34,l),
(124,0,l)
);
},
{
closed = 1;
nodes = (
(88,0,l),
(88,688,l),
(52,688,l),
(52,0,l)
);
}
);
width = 329;
},
{
anchors = (
{
name = bottom;
pos = (381,0);
},
{
name = top;
pos = (381,688);
}
);
background = {
shapes = (
{
closed = 1;
nodes = (
(488,0,ls),
(648,0,o),
(715,62,o),
(715,183,cs),
(715,299,o),
(662,328,o),
(574,349,c),
(574,353,l),
(668,373,o),
(715,414,o),
(715,515,cs),
(715,635,o),
(631,688,o),
(492,688,cs),
(58,688,l),
(58,0,l)
);
},
{
closed = 1;
nodes = (
(319,278,l),
(379,278,ls),
(443,278,o),
(450,270,o),
(450,223,cs),
(450,176,o),
(441,170,o),
(379,170,cs),
(319,170,l)
);
},
{
closed = 1;
nodes = (
(319,518,l),
(379,518,ls),
(442,518,o),
(450,512,o),
(450,467,cs),
(450,423,o),
(442,417,o),
(379,417,cs),
(319,417,l)
);
}
);
};
guides = (
{
angle = 90;
pos = (319,744);
},
{
angle = 270;
pos = (358,745);
}
);
layerId = "8EBCA172-37CB-4E59-A5FF-33FE92477777";
shapes = (
{
closed = 1;
nodes = (
(488,0,ls),
(648,0,o),
(715,62,o),
(715,183,cs),
(715,299,o),
(662,328,o),
(574,349,c),
(574,353,l),
(668,373,o),
(715,414,o),
(715,515,cs),
(715,635,o),
(631,688,o),
(492,688,cs),
(358,688,l),
(358,518,l),
(379,518,ls),
(442,518,o),
(450,512,o),
(450,467,cs),
(450,423,o),
(442,417,o),
(379,417,cs),
(358,417,l),
(358,278,l),
(379,278,ls),
(443,278,o),
(450,270,o),
(450,223,cs),
(450,176,o),
(441,170,o),
(379,170,cs),
(358,170,l),
(358,0,l)
);
},
{
closed = 1;
nodes = (
(319,0,l),
(319,688,l),
(58,688,l),
(58,0,l)
);
}
);
width = 761;
},
{
anchors = (
{
name = bottom;
pos = (396,0);
},
{
name = top;
pos = (396,688);
}
);
background = {
shapes = (
{
closed = 1;
nodes = (
(496,0,ls),
(669,0,o),
(714,78,o),
(714,182,cs),
(714,272,o),
(683,329,o),
(576,349,c),
(576,353,l),
(667,371,o),
(706,424,o),
(706,515,cs),
(706,623,o),
(648,688,o),
(497,688,cs),
(108,688,l),
(108,0,l)
);
},
{
closed = 1;
nodes = (
(233,296,l),
(458,296,ls),
(557,296,o),
(590,271,o),
(590,199,cs),
(590,126,o),
(560,102,o),
(458,102,cs),
(233,102,l)
);
},
{
closed = 1;
nodes = (
(233,585,l),
(455,585,ls),
(556,585,o),
(582,563,o),
(582,491,cs),
(582,427,o),
(546,399,o),
(455,399,cs),
(233,399,l)
);
}
);
};
guides = (
{
angle = 90;
pos = (278,846);
},
{
angle = 90;
pos = (233,844);
}
);
layerId = "C6199351-AF36-494D-BF00-13EB6406F65F";
shapes = (
{
closed = 1;
nodes = (
(496,0,ls),
(669,0,o),
(714,78,o),
(714,182,cs),
(714,272,o),
(683,329,o),
(576,349,c),
(576,353,l),
(667,371,o),
(706,424,o),
(706,515,cs),
(706,623,o),
(648,688,o),
(497,688,cs),
(278,688,l),
(278,585,l),
(455,585,ls),
(556,585,o),
(582,563,o),
(582,491,cs),
(582,427,o),
(546,399,o),
(455,399,cs),
(278,399,l),
(278,296,l),
(458,296,ls),
(557,296,o),
(590,271,o),
(590,199,cs),
(590,126,o),
(560,102,o),
(458,102,cs),
(278,102,l),
(278,0,l)
);
},
{
closed = 1;
nodes = (
(233,0,l),
(233,688,l),
(108,688,l),
(108,0,l)
);
}
);
width = 792;
},
{
anchors = (
{
name = bottom;
pos = (401,0);
},
{
name = top;
pos = (401,688);
}
);
background = {
shapes = (
{
closed = 1;
nodes = (
(497,0,ls),
(675,0,o),
(700,97,o),
(700,180,cs),
(700,246,o),
(686,332,o),
(566,350,c),
(566,354,l),
(657,370,o),
(691,434,o),
(691,516,cs),
(691,614,o),
(653,688,o),
(507,688,cs),
(135,688,l),
(135,0,l)
);
},
{
closed = 1;
nodes = (
(171,332,l),
(502,332,ls),
(616,332,o),
(664,282,o),
(664,183,cs),
(664,85,o),
(625,34,o),
(502,34,cs),
(171,34,l)
);
},
{
closed = 1;
nodes = (
(171,654,l),
(498,654,ls),
(620,654,o),
(655,604,o),
(655,510,cs),
(655,421,o),
(600,366,o),
(498,366,cs),
(171,366,l)
);
}
);
};
guides = (
{
angle = 90;
pos = (222,848);
},
{
angle = 90;
pos = (171,844);
}
);
layerId = "E7639064-56EC-4BF1-BEDD-A20273C7A444";
shapes = (
{
closed = 1;
nodes = (
(497,0,ls),
(675,0,o),
(700,97,o),
(700,180,cs),
(700,246,o),
(686,332,o),
(566,350,c),
(566,354,l),
(657,370,o),
(691,434,o),
(691,516,cs),
(691,614,o),
(653,688,o),
(507,688,cs),
(222,688,l),
(222,654,l),
(498,654,ls),
(620,654,o),
(655,604,o),
(655,510,cs),
(655,421,o),
(600,366,o),
(498,366,cs),
(222,366,l),
(222,332,l),
(502,332,ls),
(616,332,o),
(664,282,o),
(664,183,cs),
(664,85,o),
(625,34,o),
(502,34,cs),
(222,34,l),
(222,0,l)
);
},
{
closed = 1;
nodes = (
(171,0,l),
(171,688,l),
(135,688,l),
(135,0,l)
);
}
);
width = 802;
}
);
unicode = 66;
},
{
glyphname = C;
kernLeft = O;
kernRight = C;
layers = (
{
anchors = (
{
name = bottom;
pos = (349,0);
},
{
name = top;
pos = (329,688);
}
);
background = {
shapes = (
{
closed = 1;
nodes = (
(407,-8,o),
(472,-4,o),
(513,2,c),
(513,36,l),
(473,30,o),
(413,26,o),
(367,26,cs),
(149,26,o),
(126,51,o),
(126,344,cs),
(126,637,o),
(149,662,o),
(367,662,cs),
(411,662,o),
(469,658,o),
(509,652,c),
(509,684,l),
(471,691,o),
(408,696,o),
(357,696,cs),
(129,696,o),
(90,658,o),
(90,344,cs),
(90,26,o),
(129,-8,o),
(357,-8,cs)
);
}
);
};
layerId = UUID0;
shapes = (
{
closed = 1;
nodes = (
(407,-8,o),
(472,-4,o),
(513,2,c),
(513,36,l),
(473,30,o),
(413,26,o),
(367,26,cs),
(149,26,o),
(126,51,o),
(126,344,cs),
(126,619,l),
(97,568,o),
(90,483,o),
(90,344,cs),
(90,26,o),
(129,-8,o),
(357,-8,cs)
);
},
{
closed = 1;
nodes = (
(206,656,o),
(265,662,o),
(367,662,cs),
(411,662,o),
(469,658,o),
(509,652,c),
(509,684,l),
(471,691,o),
(408,696,o),
(357,696,cs),
(271,696,o),
(212,690,o),
(172,667,c),
(172,621,l)
);
}
);
width = 578;
},
{
anchors = (
{
name = bottom;
pos = (322,0);
},
{
name = top;
pos = (322,688);
}
);
background = {
shapes = (
{
closed = 1;
nodes = (
(407,-8,o),
(487,-1,o),
(532,8,c),
(532,167,l),
(493,162,o),
(437,159,o),
(397,159,cs),
(277,159,o),
(277,174,o),
(277,344,cs),
(277,513,o),
(277,529,o),
(397,529,cs),
(416,529,o),
(447,527,o),
(528,521,c),
(528,677,l),
(482,688,o),
(405,696,o),
(342,696,cs),
(74,696,o),
(42,614,o),
(42,344,cs),
(42,74,o),
(74,-8,o),
(342,-8,cs)
);
}
);
};
layerId = "4F93A97B-747D-4721-B098-38A63C534D7A";
shapes = (
{
closed = 1;
nodes = (
(407,-8,o),
(487,-1,o),
(532,8,c),
(532,167,l),
(493,162,o),
(437,159,o),
(397,159,cs),
(277,159,o),
(277,174,o),
(277,343,cs),
(277,694,l),
(68,680,o),
(42,590,o),
(42,344,cs),
(42,74,o),
(74,-8,o),
(342,-8,cs)
);
},
{
closed = 1;
nodes = (
(329,527,o),
(355,529,o),
(397,529,cs),
(416,529,o),
(447,527,o),
(528,521,c),
(528,677,l),
(482,688,o),
(405,696,o),
(342,696,cs),
(331,696,o),
(321,696,o),
(311,695,c),
(311,517,l)
);
}
);
width = 567;
},
{
anchors = (
{
name = bottom;
pos = (251,0);
},
{
name = top;
pos = (232,688);
}
);
background = {
shapes = (
{
closed = 1;
nodes = (
(302,-8,o),
(334,-5,o),
(365,2,c),
(365,36,l),
(340,31,o),
(302,26,o),
(270,26,cs),
(118,26,o),
(99,51,o),
(99,344,cs),
(99,637,o),
(118,662,o),
(270,662,cs),
(303,662,o),
(332,659,o),
(363,652,c),
(363,684,l),
(338,691,o),
(297,696,o),
(262,696,cs),
(99,696,o),
(63,666,o),
(63,344,cs),
(63,22,o),
(99,-8,o),
(262,-8,cs)
);
}
);
};
guides = (
{
angle = 90;
pos = (140,748);
},
{
angle = 90;
pos = (99,744);
}
);
layerId = "E6BBBBE7-ECAD-4929-840D-43673C7BDEAF";
shapes = (
{
closed = 1;
nodes = (
(302,-8,o),
(334,-5,o),
(365,2,c),
(365,36,l),
(340,31,o),
(302,26,o),
(270,26,cs),
(118,26,o),
(99,51,o),
(99,344,cs),
(99,636,l),
(71,588,o),
(63,500,o),
(63,344,cs),
(63,22,o),
(99,-8,o),
(262,-8,cs)
);
},
{
closed = 1;
nodes = (
(165,658,o),
(206,662,o),
(270,662,cs),
(303,662,o),
(332,659,o),
(363,652,c),
(363,684,l),
(338,691,o),
(297,696,o),
(262,696,cs),
(209,696,o),
(169,693,o),
(140,677,c),
(140,630,l)
);
}
);
width = 403;
},
{
anchors = (
{
name = bottom;
pos = (235,0);
},
{
name = top;
pos = (222,688);
}
);
background = {
shapes = (
{
closed = 1;
nodes = (
(294,-8,o),
(347,-1,o),
(378,10,c),
(378,146,l),
(353,142,o),
(323,140,o),
(288,140,cs),
(216,140,o),
(211,143,o),
(211,344,cs),
(211,543,o),
(217,548,o),
(288,548,cs),
(305,548,o),
(334,546,o),
(376,542,c),
(376,679,l),
(351,688,o),
(298,696,o),
(251,696,cs),
(56,696,o),
(30,606,o),
(30,344,cs),
(30,84,o),
(51,-8,o),
(251,-8,cs)
);
}
);
};
guides = (
{
angle = 90;
pos = (235,795);
},
{
angle = 90;
pos = (211,794);
}
);
layerId = "7836D3B9-397C-42C1-8084-A98A44B9119A";
shapes = (
{
closed = 1;
nodes = (
(294,-8,o),
(347,-1,o),
(378,10,c),
(378,146,l),
(353,142,o),
(323,140,o),
(288,140,cs),
(216,140,o),
(211,143,o),
(211,344,cs),
(211,695,l),
(53,682,o),
(30,587,o),
(30,344,cs),
(30,84,o),
(51,-8,o),
(251,-8,cs)
);
},
{
closed = 1;
nodes = (
(247,547,o),
(263,548,o),
(288,548,cs),
(305,548,o),
(334,546,o),
(376,542,c),
(376,679,l),
(351,688,o),
(298,696,o),
(251,696,cs),
(246,696,o),
(240,696,o),
(235,696,c),
(235,538,l)
);
}
);
width = 403;
},
{
anchors = (
{
name = bottom;
pos = (248,0);
},
{
name = top;
pos = (241,688);
}
);
background = {
shapes = (
{
closed = 1;
nodes = (
(291,-8,o),
(340,-2,o),
(368,6,c),
(368,83,l),
(342,77,o),
(310,74,o),
(273,74,cs),
(147,74,o),
(144,111,o),
(144,344,cs),
(144,577,o),
(147,614,o),
(273,614,cs),
(300,614,o),
(331,611,o),
(366,605,c),
(366,681,l),
(341,690,o),
(294,696,o),
(254,696,cs),
(70,696,o),
(49,623,o),
(49,344,cs),
(49,64,o),
(70,-8,o),
(254,-8,cs)
);
}
);
};
guides = (
{
angle = 90;
pos = (179,746);
},
{
angle = 90;
pos = (144,744);
}
);
layerId = "374FF654-0B40-45EE-AE97-0DEB7620D1EC";
shapes = (
{
closed = 1;
nodes = (
(291,-8,o),
(340,-2,o),
(368,6,c),
(368,83,l),
(342,77,o),
(310,74,o),
(273,74,cs),
(147,74,o),
(144,111,o),
(144,344,cs),
(144,680,l),
(61,646,o),
(49,552,o),
(49,344,cs),
(49,64,o),
(70,-8,o),
(254,-8,cs)
);
},
{
closed = 1;
nodes = (
(198,609,o),
(228,614,o),
(273,614,cs),
(300,614,o),
(331,611,o),
(366,605,c),
(366,681,l),
(341,690,o),
(294,696,o),
(254,696,cs),
(225,696,o),
(201,694,o),
(179,690,c),
(179,592,l)
);
}
);
width = 399;
},
{
anchors = (
{
name = bottom;
pos = (334,0);
},
{
name = top;
pos = (328,688);
}
);
background = {
shapes = (
{
closed = 1;
nodes = (
(405,-8,o),
(477,-2,o),
(522,7,c),
(522,110,l),
(484,104,o),
(426,100,o),
(382,100,cs),
(206,100,o),
(193,119,o),
(193,344,cs),
(193,569,o),
(206,588,o),
(382,588,cs),
(414,588,o),
(468,584,o),
(518,578,c),
(518,679,l),
(477,689,o),
(407,696,o),
(350,696,cs),
(101,696,o),
(65,624,o),
(65,344,cs),
(65,64,o),
(101,-8,o),
(350,-8,cs)
);
}
);
};
layerId = "E7A95A6A-7487-49EE-B62A-BA87B06E4B57";
shapes = (
{
closed = 1;
nodes = (
(405,-8,o),
(477,-2,o),
(522,7,c),
(522,110,l),
(484,104,o),
(426,100,o),
(382,100,cs),
(206,100,o),
(193,119,o),
(193,344,c),
(193,678,l),
(84,642,o),
(65,548,o),
(65,344,cs),
(65,64,o),
(101,-8,o),
(350,-8,cs)
);
},
{
closed = 1;
nodes = (
(261,584,o),
(306,588,o),
(382,588,cs),
(414,588,o),
(468,584,o),
(518,578,c),
(518,679,l),
(477,689,o),
(407,696,o),
(350,696,cs),
(304,696,o),
(265,694,o),
(233,688,c),
(233,562,l)
);
}
);
width = 572;
},
{
anchors = (
{
name = bottom;
pos = (161,0);
},
{
name = top;
pos = (156,688);
}
);
background = {
shapes = (
{
closed = 1;
nodes = (
(193,-8,o),
(221,-2,o),
(240,6,c),
(240,71,l),
(228,67,o),
(203,63,o),
(184,63,cs),
(114,63,o),
(108,92,o),
(108,344,cs),
(108,596,o),
(114,625,o),
(184,625,cs),
(202,625,o),
(226,621,o),
(239,617,c),
(239,683,l),
(226,691,o),
(197,696,o),
(171,696,cs),
(52,696,o),
(30,632,o),
(30,344,cs),
(30,55,o),
(49,-8,o),
(171,-8,cs)
);
}
);
};
guides = (
{
angle = 90;
pos = (108,744);
},
{
angle = 270;
pos = (138,746);
}
);
layerId = "487ADAF7-57C4-4091-879E-1D750F439591";
shapes = (
{
closed = 1;
nodes = (
(193,-8,o),
(221,-2,o),
(240,6,c),
(240,71,l),
(228,67,o),
(203,63,o),
(184,63,cs),
(114,63,o),
(108,92,o),
(108,344,cs),
(108,686,l),
(44,659,o),
(30,571,o),
(30,344,cs),
(30,55,o),
(49,-8,o),
(171,-8,cs)
);
},
{
closed = 1;
nodes = (
(149,623,o),
(164,625,o),
(184,625,cs),
(202,625,o),
(226,621,o),
(239,617,c),
(239,683,l),
(226,691,o),
(197,696,o),
(171,696,cs),
(159,696,o),
(148,695,o),
(138,694,c),
(138,613,l)
);
}
);
width = 257;
},
{
anchors = (
{
name = bottom;
pos = (157,0);
},
{
name = top;
pos = (155,688);
}
);
background = {
shapes = (
{
closed = 1;
nodes = (
(193,-8,o),
(224,1,o),
(241,12,c),
(241,122,l),
(229,120,o),
(209,118,o),
(191,118,cs),
(153,118,o),
(152,131,o),
(152,344,cs),
(152,557,o),
(153,570,o),
(191,570,cs),
(207,570,o),
(232,567,o),
(239,566,c),
(239,681,l),
(231,687,o),
(201,696,o),
(170,696,cs),
(40,696,o),
(19,602,o),
(19,344,cs),
(19,88,o),
(33,-8,o),
(170,-8,cs)
);
}
);
};
guides = (
{
angle = 270;
pos = (172,845);
},
{
angle = 90;
pos = (152,844);
}
);
layerId = "7674DAFD-136A-491A-A3F0-195DB056B53F";
shapes = (
{
closed = 1;
nodes = (
(193,-8,o),
(224,1,o),
(241,12,c),
(241,122,l),
(229,120,o),
(209,118,o),
(191,118,cs),
(153,118,o),
(152,131,o),
(152,344,cs),
(152,695,l),
(37,684,o),
(19,587,o),
(19,344,cs),
(19,88,o),
(33,-8,o),
(170,-8,cs)
);
},
{
closed = 1;
nodes = (
(177,569,o),
(183,570,o),
(191,570,cs),
(207,570,o),
(232,567,o),
(239,566,c),
(239,681,l),
(231,687,o),
(202,696,o),
(174,696,cs),
(173,696,o),
(173,696,o),
(172,696,c),
(172,567,l)
);
}
);
width = 255;
},
{
anchors = (
{
name = bottom;
pos = (160,0);
},
{
name = top;
pos = (152,688);
}
);
background = {
shapes = (
{
closed = 1;
nodes = (
(192,-8,o),
(218,-4,o),
(235,2,c),
(235,36,l),
(220,30,o),
(194,26,o),
(176,26,cs),
(84,26,o),
(76,63,o),
(76,344,cs),
(76,625,o),
(84,662,o),
(176,662,cs),
(194,662,o),
(218,658,o),
(233,652,c),
(233,684,l),
(220,691,o),
(192,696,o),
(172,696,cs),
(59,696,o),
(40,646,o),
(40,344,cs),
(40,38,o),
(59,-8,o),
(172,-8,cs)
);
}
);
};
guides = (
{
angle = 90;
pos = (76,827);
},
{
angle = 90;
pos = (112,827);
}
);
layerId = "B5B62657-8F5D-48EE-9125-14A639410D02";
shapes = (
{
closed = 1;
nodes = (
(192,-8,o),
(218,-4,o),
(235,2,c),
(235,36,l),
(220,30,o),
(194,26,o),
(176,26,cs),
(84,26,o),
(76,63,o),
(76,344,cs),
(76,658,l),
(47,614,o),
(40,524,o),
(40,344,cs),
(40,38,o),
(59,-8,o),
(172,-8,cs)
);
},
{
closed = 1;
nodes = (
(127,658,o),
(147,662,o),
(176,662,cs),
(194,662,o),
(218,658,o),
(233,652,c),
(233,684,l),
(220,691,o),
(192,696,o),
(172,696,cs),
(148,696,o),
(128,694,o),
(112,687,c),
(112,645,l)
);
}
);
width = 250;
},
{
anchors = (
{
name = bottom;
pos = (389,0);
},
{
name = top;
pos = (368,688);
}
);
background = {
shapes = (
{
closed = 1;
nodes = (
(475,-8,o),
(570,-2,o),
(624,7,c),
(624,184,l),
(577,178,o),
(509,174,o),
(462,174,cs),
(319,174,o),
(317,189,o),
(317,344,cs),
(317,497,o),
(319,514,o),
(462,514,cs),
(482,514,o),
(515,512,o),
(619,504,c),
(619,676,l),
(561,687,o),
(469,696,o),
(397,696,cs),
(85,696,o),
(49,617,o),
(49,344,cs),
(49,70,o),
(87,-8,o),
(397,-8,cs)
);
}
);
};
guides = (
{
angle = 90;
pos = (317,744);
},
{
angle = 270;
pos = (356,745);
}
);
layerId = "8EBCA172-37CB-4E59-A5FF-33FE92477777";
shapes = (
{
closed = 1;
nodes = (
(475,-8,o),
(570,-2,o),
(624,7,c),
(624,184,l),
(577,178,o),
(509,174,o),
(462,174,cs),
(319,174,o),
(317,189,o),
(317,344,cs),
(317,693,l),
(79,679,o),
(49,591,o),
(49,344,cs),
(49,70,o),
(87,-8,o),
(397,-8,cs)
);
},
{
closed = 1;
nodes = (
(377,512,o),
(410,514,o),
(462,514,cs),
(482,514,o),
(515,512,o),
(619,504,c),
(619,676,l),
(561,687,o),
(469,696,o),
(397,696,cs),
(383,696,o),
(369,696,o),
(356,695,c),
(356,502,l)
);
}
);
width = 665;
},
{
anchors = (
{
name = bottom;
pos = (387,0);
},
{
name = top;
pos = (373,688);
}
);
background = {
shapes = (
{
closed = 1;
nodes = (
(473,-8,o),
(558,-2,o),
(612,6,c),
(612,106,l),
(567,99,o),
(498,95,o),
(444,95,cs),
(223,95,o),
(205,112,o),
(205,344,cs),
(205,576,o),
(223,593,o),
(444,593,cs),
(483,593,o),
(550,589,o),
(607,582,c),
(607,679,l),
(557,689,o),
(475,696,o),
(410,696,cs),
(123,696,o),
(80,630,o),
(80,344,cs),
(80,59,o),
(124,-8,o),
(410,-8,cs)
);
}
);
};
guides = (
{
angle = 90;
pos = (250,846);
},
{
angle = 90;
pos = (205,844);
}
);
layerId = "C6199351-AF36-494D-BF00-13EB6406F65F";
shapes = (
{
closed = 1;
nodes = (
(473,-8,o),
(558,-2,o),
(612,6,c),
(612,106,l),
(567,99,o),
(498,95,o),
(444,95,cs),
(223,95,o),
(205,112,o),
(205,344,cs),
(205,672,l),
(100,633,o),
(80,540,o),
(80,344,cs),
(80,59,o),
(124,-8,o),
(410,-8,cs)
);
},
{
closed = 1;
nodes = (
(284,589,o),
(343,593,o),
(444,593,cs),
(483,593,o),
(550,589,o),
(607,582,c),
(607,679,l),
(557,689,o),
(475,696,o),
(410,696,cs),
(345,696,o),
(292,693,o),
(250,684,c),
(250,563,l)
);
}
);
width = 678;
},
{
anchors = (
{
name = bottom;
pos = (396,0);
},
{
name = top;
pos = (385,688);
}
);
background = {
shapes = (
{
closed = 1;
nodes = (
(475,-8,o),
(553,-4,o),
(602,2,c),
(602,36,l),
(553,30,o),
(483,26,o),
(428,26,cs),
(169,26,o),
(142,47,o),
(142,344,cs),
(142,641,o),
(169,662,o),
(428,662,cs),
(481,662,o),
(549,658,o),
(597,652,c),
(597,684,l),
(551,691,o),
(477,696,o),
(416,696,cs),
(152,696,o),
(106,662,o),
(106,344,cs),
(106,22,o),
(152,-8,o),
(416,-8,cs)
);
}
);
};
guides = (
{
angle = 90;
pos = (193,848);
},
{
angle = 90;
pos = (142,844);
}
);
layerId = "E7639064-56EC-4BF1-BEDD-A20273C7A444";
shapes = (
{
closed = 1;
nodes = (
(475,-8,o),
(553,-4,o),
(602,2,c),
(602,36,l),
(553,30,o),
(483,26,o),
(428,26,cs),
(169,26,o),
(142,47,o),
(142,344,cs),
(142,610,l),
(114,558,o),
(106,475,o),
(106,344,cs),
(106,22,o),
(152,-8,o),
(416,-8,cs)
);
},
{
closed = 1;
nodes = (
(233,657,o),
(304,662,o),
(428,662,cs),
(481,662,o),
(549,658,o),
(597,652,c),
(597,684,l),
(551,691,o),
(477,696,o),
(416,696,cs),
(311,696,o),
(240,691,o),
(193,664,c),
(193,620,l)
);
}
);
width = 683;
}
);
unicode = 67;
},
{
glyphname = D;
kernLeft = H;
kernRight = O;
layers = (
{
anchors = (
{
name = bottom;
pos = (347,0);
},
{
name = center;
pos = (133,344);
},
{
name = top;
pos = (347,688);
}
);
background = {
shapes = (
{
closed = 1;
nodes = (
(320,0,l),
(586,0,o),
(603,38,o),
(603,344,cs),
(603,650,o),
(586,688,o),
(320,688,cs),
(115,688,l),
(115,0,l)
);
},
{
closed = 1;
nodes = (
(151,654,l),
(300,654,ls),
(549,654,o),
(567,648,o),
(567,344,cs),
(567,40,o),
(553,34,o),
(300,34,cs),
(151,34,l)
);
}
);
};
layerId = UUID0;
shapes = (
{
closed = 1;
nodes = (
(320,0,ls),
(586,0,o),
(603,38,o),
(603,344,cs),
(603,650,o),
(586,688,o),
(320,688,cs),
(197,688,l),
(197,654,l),
(300,654,ls),
(549,654,o),
(567,648,o),
(567,344,cs),
(567,40,o),
(553,34,o),
(300,34,cs),
(197,34,l),
(197,0,l)
);
},
{
closed = 1;
nodes = (
(151,0,l),
(151,688,l),
(115,688,l),
(115,0,l)
);
}
);
width = 693;
},
{
anchors = (
{
name = bottom;
pos = (335,0);
},
{
name = center;
pos = (168,344);
},
{
name = top;
pos = (335,688);
}
);
background = {
shapes = (
{
closed = 1;
nodes = (
(306,0,l),
(625,0,o),
(628,72,o),
(628,344,cs),
(628,616,o),
(625,688,o),
(306,688,cs),
(51,688,l),
(51,0,l)
);
},
{
closed = 1;
nodes = (
(285,521,l),
(309,521,ls),
(393,521,o),
(393,516,o),
(393,343,cs),
(393,174,o),
(393,167,o),
(309,167,cs),
(285,167,l)
);
}
);
};
layerId = "4F93A97B-747D-4721-B098-38A63C534D7A";
shapes = (
{
closed = 1;
nodes = (
(329,0,l),
(625,4,o),
(628,79,o),
(628,344,cs),
(628,609,o),
(625,684,o),
(329,688,c),
(319,688,l),
(319,521,l),
(328,521,l),
(392,519,o),
(393,501,o),
(393,343,cs),
(393,187,o),
(392,169,o),
(327,167,c),
(319,167,l),
(319,0,l)
);
},
{
closed = 1;
nodes = (
(285,0,l),
(285,688,l),
(51,688,l),
(51,0,l)
);
}
);
width = 670;
},
{
anchors = (
{
name = bottom;
pos = (249,0);
},
{
name = center;
pos = (99,344);
},
{
name = top;
pos = (249,688);
}
);
background = {
shapes = (
{
closed = 1;
nodes = (
(235,0,ls),
(416,0,o),
(438,38,o),
(438,344,cs),
(438,650,o),
(416,688,o),
(235,688,cs),
(81,688,l),
(81,0,l)
);
},
{
closed = 1;
nodes = (
(117,654,l),
(228,654,ls),
(392,654,o),
(402,635,o),
(402,344,cs),
(402,53,o),
(392,34,o),
(228,34,cs),
(117,34,l)
);
}
);
};
guides = (
{
angle = 90;
pos = (158,748);
},
{
angle = 90;
pos = (117,744);
}
);
layerId = "E6BBBBE7-ECAD-4929-840D-43673C7BDEAF";
shapes = (
{
closed = 1;
nodes = (
(235,0,ls),
(416,0,o),
(438,38,o),
(438,344,cs),
(438,650,o),
(416,688,o),
(235,688,cs),
(159,688,l),
(159,654,l),
(228,654,ls),
(392,654,o),
(402,635,o),
(402,344,cs),
(402,53,o),
(392,34,o),
(228,34,cs),
(159,34,l),
(159,0,l)
);
},
{
closed = 1;
nodes = (
(117,0,l),
(117,688,l),
(81,688,l),
(81,0,l)
);
}
);
width = 501;
},
{
anchors = (
{
name = bottom;
pos = (252,0);
},
{
name = center;
pos = (116,344);
},
{
name = top;
pos = (245,688);
}
);
background = {
shapes = (
{
closed = 1;
nodes = (
(240,0,ls),
(470,0,o),
(470,81,o),
(470,344,cs),
(470,608,o),
(470,688,o),
(240,688,cs),
(40,688,l),
(40,0,l)
);
},
{
closed = 1;
nodes = (
(219,540,l),
(241,540,ls),
(290,540,o),
(290,539,o),
(290,344,cs),
(290,153,o),
(290,148,o),
(241,148,cs),
(219,148,l)
);
}
);
};
guides = (
{
angle = 90;
pos = (243,795);
},
{
angle = 90;
pos = (219,794);
}
);
layerId = "7836D3B9-397C-42C1-8084-A98A44B9119A";
shapes = (
{
closed = 1;
nodes = (
(246,0,ls),
(469,0,o),
(470,81,o),
(470,344,cs),
(470,608,o),
(469,688,o),
(246,688,cs),
(243,688,l),
(243,540,l),
(245,540,ls),
(289,540,o),
(290,539,o),
(290,344,cs),
(290,153,o),
(289,148,o),
(245,148,cs),
(243,148,l),
(243,0,l)
);
},
{
closed = 1;
nodes = (
(219,0,l),
(219,688,l),
(40,688,l),
(40,0,l)
);
}
);
width = 500;
},
{
anchors = (
{
name = bottom;
pos = (246,0);
},
{
name = center;
pos = (120,344);
},
{
name = top;
pos = (246,688);
}
);
background = {
shapes = (
{
closed = 1;
nodes = (
(234,0,ls),
(440,0,o),
(447,67,o),
(447,344,cs),
(447,621,o),
(440,688,o),
(234,688,cs),
(64,688,l),
(64,0,l)
);
},
{
closed = 1;
nodes = (
(158,606,l),
(232,606,ls),
(341,606,o),
(352,601,o),
(352,344,cs),
(352,87,o),
(342,82,o),
(232,82,cs),
(158,82,l)
);
}
);
};
guides = (
{
angle = 90;
pos = (193,746);
},
{
angle = 90;
pos = (158,744);
}
);
layerId = "374FF654-0B40-45EE-AE97-0DEB7620D1EC";
shapes = (
{
closed = 1;
nodes = (
(234,0,ls),
(440,0,o),
(447,67,o),
(447,344,cs),
(447,621,o),
(440,688,o),
(234,688,cs),
(193,688,l),
(193,606,l),
(232,606,ls),
(341,606,o),
(352,601,o),
(352,344,cs),
(352,87,o),
(342,82,o),
(232,82,cs),
(193,82,l),
(193,0,l)
);
},
{
closed = 1;
nodes = (
(158,0,l),
(158,688,l),
(64,688,l),
(64,0,l)
);
}
);
width = 496;
},
{
anchors = (
{
name = bottom;
pos = (343,0);
},
{
name = center;
pos = (151,344);
},
{
name = top;
pos = (343,688);
}
);
background = {
shapes = (
{
closed = 1;
nodes = (
(317,0,ls),
(609,0,o),
(619,64,o),
(619,344,cs),
(619,624,o),
(609,688,o),
(317,688,cs),
(87,688,l),
(87,0,l)
);
},
{
closed = 1;
nodes = (
(215,580,l),
(308,580,ls),
(481,580,o),
(491,578,o),
(491,344,cs),
(491,109,o),
(483,108,o),
(308,108,c),
(215,108,l)
);
}
);
};
layerId = "E7A95A6A-7487-49EE-B62A-BA87B06E4B57";
shapes = (
{
closed = 1;
nodes = (
(317,0,ls),
(609,0,o),
(619,64,o),
(619,344,cs),
(619,624,o),
(609,688,o),
(317,688,cs),
(255,688,l),
(255,580,l),
(308,580,ls),
(481,580,o),
(491,578,o),
(491,344,cs),
(491,109,o),
(483,108,o),
(308,108,c),
(255,108,l),
(255,0,l)
);
},
{
closed = 1;
nodes = (
(215,0,l),
(215,688,l),
(87,688,l),
(87,0,l)
);
}
);
width = 685;
},
{
anchors = (
{
name = bottom;
pos = (171,0);
},
{
name = center;
pos = (171,344);
},
{
name = top;
pos = (171,688);
}
);
background = {
shapes = (
{
closed = 1;
nodes = (
(169,0,ls),
(300,0,o),
(310,65,o),
(310,344,cs),
(310,625,o),
(300,688,o),
(169,688,cs),
(42,688,l),
(42,0,l)
);
},
{
closed = 1;
nodes = (
(119,617,l),
(170,617,ls),
(221,617,o),
(232,605,o),
(232,344,cs),
(232,83,o),
(220,71,o),
(170,71,cs),
(119,71,l)
);
}
);
};
guides = (
{
angle = 90;
pos = (119,744);
},
{
angle = 270;
pos = (149,746);
}
);
layerId = "487ADAF7-57C4-4091-879E-1D750F439591";
shapes = (
{
closed = 1;
nodes = (
(169,0,ls),
(300,0,o),
(310,65,o),
(310,344,cs),
(310,625,o),
(300,688,o),
(169,688,cs),
(149,688,l),
(149,617,l),
(170,617,ls),
(221,617,o),
(232,605,o),
(232,344,cs),
(232,83,o),
(220,71,o),
(170,71,cs),
(149,71,l),
(149,0,l)
);
},
{
closed = 1;
nodes = (
(119,0,l),
(119,688,l),
(42,688,l),
(42,0,l)
);
}
);
width = 342;
},
{
anchors = (
{
name = bottom;
pos = (174,0);
},
{
name = center;
pos = (174,344);
},
{
name = top;
pos = (174,688);
}
);
background = {
shapes = (
{
closed = 1;
nodes = (
(181,0,ls),
(329,0,o),
(328,95,o),
(328,344,cs),
(328,594,o),
(329,688,o),
(181,688,cs),
(29,688,l),
(29,0,l)
);
},
{
closed = 1;
nodes = (
(160,562,l),
(176,562,ls),
(195,562,o),
(197,562,o),
(197,344,cs),
(197,126,o),
(194,126,o),
(176,126,cs),
(160,126,l)
);
}
);
};
guides = (
{
angle = 270;
pos = (180,845);
},
{
angle = 90;
pos = (160,844);
}
);
layerId = "7674DAFD-136A-491A-A3F0-195DB056B53F";
shapes = (
{
closed = 1;
nodes = (
(181,0,ls),
(329,0,o),
(328,95,o),
(328,344,cs),
(328,594,o),
(329,688,o),
(181,688,cs),
(180,688,l),
(180,562,l),
(181,562,ls),
(202,562,o),
(202,562,o),
(202,344,cs),
(202,126,o),
(201,126,o),
(181,126,cs),
(180,126,l),
(180,0,l)
);
},
{
closed = 1;
nodes = (
(160,0,l),
(160,688,l),
(29,688,l),
(29,0,l)
);
}
);
width = 347;
},
{
anchors = (
{
name = bottom;
pos = (166,0);
},
{
name = center;
pos = (166,344);
},
{
name = top;
pos = (166,688);
}
);
background = {
shapes = (
{
closed = 1;
nodes = (
(159,0,ls),
(274,0,o),
(292,49,o),
(292,344,cs),
(292,639,o),
(274,688,o),
(159,688,cs),
(52,688,l),
(52,0,l)
);
},
{
closed = 1;
nodes = (
(88,654,l),
(165,654,ls),
(237,654,o),
(256,637,o),
(256,344,cs),
(256,51,o),
(236,34,o),
(165,34,cs),
(88,34,l)
);
}
);
};
guides = (
{
angle = 90;
pos = (88,827);
},
{
angle = 90;
pos = (124,827);
}
);
layerId = "B5B62657-8F5D-48EE-9125-14A639410D02";
shapes = (
{
closed = 1;
nodes = (
(159,0,ls),
(274,0,o),
(292,49,o),
(292,344,cs),
(292,639,o),
(274,688,o),
(159,688,cs),
(124,688,l),
(124,654,l),
(165,654,ls),
(237,654,o),
(256,637,o),
(256,344,cs),
(256,51,o),
(236,34,o),
(165,34,cs),
(124,34,l),
(124,0,l)
);
},
{
closed = 1;
nodes = (
(88,0,l),
(88,688,l),
(52,688,l),
(52,0,l)
);
}
);
width = 332;
},
{
anchors = (
{
name = bottom;
pos = (386,0);
},
{
name = center;
pos = (386,344);
},
{
name = top;
pos = (386,688);
}
);
background = {
shapes = (
{
closed = 1;
nodes = (
(346,0,ls),
(719,0,o),
(723,65,o),
(723,344,cs),
(723,622,o),
(719,688,o),
(346,688,cs),
(58,688,l),
(58,0,l)
);
},
{
closed = 1;
nodes = (
(325,510,l),
(350,510,ls),
(455,510,o),
(455,503,o),
(455,342,cs),
(455,188,o),
(455,178,o),
(350,178,cs),
(325,178,l)
);
}
);
};
guides = (
{
angle = 90;
pos = (325,744);
},
{
angle = 270;
pos = (364,745);
}
);
layerId = "8EBCA172-37CB-4E59-A5FF-33FE92477777";
shapes = (
{
closed = 1;
nodes = (
(366,0,ls),
(711,0,o),
(723,65,o),
(723,344,cs),
(723,622,o),
(711,688,o),
(366,688,cs),
(364,688,l),
(364,510,l),
(370,510,ls),
(443,510,o),
(455,503,o),
(455,342,cs),
(455,188,o),
(443,178,o),
(370,178,cs),
(364,178,l),
(364,0,l)
);
},
{
closed = 1;
nodes = (
(325,0,l),
(325,688,l),
(58,688,l),
(58,0,l)
);
}
);
width = 772;
},
{
anchors = (
{
name = bottom;
pos = (401,0);
},
{
name = center;
pos = (401,344);
},
{
name = top;
pos = (407,688);
}
);
background = {
shapes = (
{
closed = 1;
nodes = (
(367,0,ls),
(706,0,o),
(717,58,o),
(717,344,cs),
(717,630,o),
(706,688,o),
(367,688,c),
(108,688,l),
(108,0,l)
);
},
{
closed = 1;
nodes = (
(233,585,l),
(351,585,ls),
(582,585,o),
(594,586,o),
(594,344,cs),
(594,102,o),
(586,103,o),
(351,103,cs),
(233,103,l)
);
}
);
};
guides = (
{
angle = 90;
pos = (278,846);
},
{
angle = 90;
pos = (233,844);
}
);
layerId = "C6199351-AF36-494D-BF00-13EB6406F65F";
shapes = (
{
closed = 1;
nodes = (
(367,0,ls),
(706,0,o),
(717,58,o),
(717,344,cs),
(717,630,o),
(706,688,o),
(367,688,cs),
(278,688,l),
(278,585,l),
(351,585,ls),
(582,585,o),
(594,586,o),
(594,344,cs),
(594,102,o),
(586,103,o),
(351,103,cs),
(278,103,l),
(278,0,l)
);
},
{
closed = 1;
nodes = (
(233,0,l),
(233,688,l),
(108,688,l),
(108,0,l)
);
}
);
width = 801;
},
{
anchors = (
{
name = bottom;
pos = (404,0);
},
{
name = center;
pos = (404,344);
},
{
name = top;
pos = (409,688);
}
);
background = {
shapes = (
{
closed = 1;
nodes = (
(371,0,ls),
(686,0,o),
(702,34,o),
(702,344,cs),
(702,654,o),
(686,688,o),
(371,688,cs),
(135,688,l),
(135,0,l)
);
},
{
closed = 1;
nodes = (
(171,654,l),
(343,654,ls),
(649,654,o),
(666,652,o),
(666,344,cs),
(666,36,o),
(654,34,o),
(343,34,cs),
(171,34,l)
);
}
);
};
guides = (
{
angle = 90;
pos = (222,848);
},
{
angle = 90;
pos = (171,844);
}
);
layerId = "E7639064-56EC-4BF1-BEDD-A20273C7A444";
shapes = (
{
closed = 1;
nodes = (
(371,0,ls),
(686,0,o),
(702,34,o),
(702,344,cs),
(702,654,o),
(686,688,o),
(371,688,cs),
(222,688,l),
(222,654,l),
(343,654,ls),
(649,654,o),
(666,652,o),
(666,344,cs),
(666,36,o),
(654,34,o),
(343,34,cs),
(222,34,l),
(222,0,l)
);
},
{
closed = 1;
nodes = (
(171,0,l),
(171,688,l),
(135,688,l),
(135,0,l)
);
}
);
width = 808;
}
);
unicode = 68;
},
{
glyphname = Eth;
kernLeft = H;
kernRight = O;
layers = (
{
background = {
shapes = (
{
closed = 1;
nodes = (
(320,0,ls),
(586,0,o),
(603,38,o),
(603,344,cs),
(603,650,o),
(586,688,o),
(320,688,cs),
(197,688,l),
(197,654,l),
(300,654,ls),
(549,654,o),
(567,648,o),
(567,344,cs),
(567,40,o),
(553,34,o),
(300,34,cs),
(197,34,l),
(197,0,l)
);
},
{
closed = 1;
nodes = (
(151,0,l),
(151,331,l),
(280,331,l),
(280,367,l),
(151,367,l),
(151,688,l),
(115,688,l),
(115,367,l),
(45,367,l),
(45,331,l),
(115,331,l),
(115,0,l)
);
}
);
};
layerId = UUID0;
shapes = (
{
closed = 1;
nodes = (
(280,334,l),
(280,364,l),
(45,364,l),
(45,334,l)
);
},
{
ref = D;
}
);
width = 693;
},
{
background = {
shapes = (
{
closed = 1;
nodes = (
(329,0,l),
(625,4,o),
(628,79,o),
(628,344,cs),
(628,609,o),
(625,684,o),
(329,688,c),
(319,688,l),
(319,521,l),
(328,521,l),
(392,519,o),
(393,501,o),
(393,343,cs),
(393,187,o),
(392,169,o),
(327,167,c),
(319,167,l),
(319,0,l)
);
},
{
closed = 1;
nodes = (
(285,0,l),
(285,280,l),
(347,280,l),
(347,417,l),
(285,417,l),
(285,688,l),
(51,688,l),
(51,417,l),
(-9,417,l),
(-9,280,l),
(51,280,l),
(51,0,l)
);
}
);
};
layerId = "4F93A97B-747D-4721-B098-38A63C534D7A";
shapes = (
{
closed = 1;
nodes = (
(347,293,l),
(347,403,l),
(-9,403,l),
(-9,293,l)
);
},
{
ref = D;
}
);
width = 670;
},
{
background = {
shapes = (
{
closed = 1;
nodes = (
(235,0,ls),
(416,0,o),
(438,38,o),
(438,344,cs),
(438,650,o),
(416,688,o),
(235,688,cs),
(81,688,l),
(81,367,l),
(22,367,l),
(22,331,l),
(81,331,l),
(81,0,l)
);
},
{
closed = 1;
nodes = (
(117,331,l),
(237,331,l),
(237,367,l),
(117,367,l),
(117,654,l),
(228,654,ls),
(392,654,o),
(402,635,o),
(402,344,cs),
(402,53,o),
(392,34,o),
(228,34,cs),
(117,34,l)
);
}
);
};
layerId = "E6BBBBE7-ECAD-4929-840D-43673C7BDEAF";
shapes = (
{
closed = 1;
nodes = (
(237,334,l),
(237,364,l),
(22,364,l),
(22,334,l)
);
},
{
ref = D;
}
);
width = 501;
},
{
background = {
shapes = (
{
closed = 1;
nodes = (
(240,0,ls),
(470,0,o),
(470,81,o),
(470,344,cs),
(470,608,o),
(470,688,o),
(240,688,cs),
(40,688,l),
(40,417,l),
(-4,417,l),
(-4,279,l),
(40,279,l),
(40,0,l)
);
},
{
closed = 1;
nodes = (
(219,279,l),
(262,279,l),
(262,417,l),
(219,417,l),
(219,540,l),
(241,540,ls),
(290,540,o),
(290,539,o),
(290,344,cs),
(290,153,o),
(290,148,o),
(241,148,cs),
(219,148,l)
);
}
);
};
layerId = "7836D3B9-397C-42C1-8084-A98A44B9119A";
shapes = (
{
closed = 1;
nodes = (
(262,300,l),
(262,396,l),
(-4,396,l),
(-4,300,l)
);
},
{
ref = D;
}
);
width = 500;
},
{
background = {
shapes = (
{
closed = 1;
nodes = (
(234,0,ls),
(440,0,o),
(447,67,o),
(447,344,cs),
(447,621,o),
(440,688,o),
(234,688,cs),
(64,688,l),
(64,388,l),
(9,388,l),
(9,309,l),
(64,309,l),
(64,0,l)
);
},
{
closed = 1;
nodes = (
(158,309,l),
(249,309,l),
(249,388,l),
(158,388,l),
(158,606,l),
(232,606,ls),
(341,606,o),
(352,601,o),
(352,344,cs),
(352,87,o),
(342,82,o),
(232,82,cs),
(158,82,l)
);
}
);
};
layerId = "374FF654-0B40-45EE-AE97-0DEB7620D1EC";
shapes = (
{
closed = 1;
nodes = (
(249,315,l),
(249,382,l),
(9,382,l),
(9,315,l)
);
},
{
ref = D;
}
);
width = 496;
},
{
background = {
shapes = (
{
closed = 1;
nodes = (
(317,0,ls),
(609,0,o),
(619,64,o),
(619,344,cs),
(619,624,o),
(609,688,o),
(317,688,cs),
(255,688,l),
(255,580,l),
(308,580,l),
(481,580,o),
(491,578,o),
(491,344,cs),
(491,109,o),
(483,108,o),
(308,108,cs),
(255,108,l),
(255,0,l)
);
},
{
closed = 1;
nodes = (
(215,0,l),
(215,299,l),
(309,299,l),
(309,397,l),
(215,397,l),
(215,688,l),
(87,688,l),
(87,397,l),
(20,397,l),
(20,299,l),
(87,299,l),
(87,0,l)
);
}
);
};
layerId = "E7A95A6A-7487-49EE-B62A-BA87B06E4B57";
shapes = (
{
closed = 1;
nodes = (
(309,308,l),
(309,388,l),
(20,388,l),
(20,308,l)
);
},
{
ref = D;
}
);
width = 685;
},
{
background = {
shapes = (
{
closed = 1;
nodes = (
(169,0,ls),
(300,0,o),
(310,65,o),
(310,344,cs),
(310,625,o),
(300,688,o),
(169,688,cs),
(42,688,l),
(42,375,l),
(2,375,l),
(2,323,l),
(42,323,l),
(42,0,l)
);
},
{
closed = 1;
nodes = (
(119,323,l),
(196,323,l),
(196,375,l),
(119,375,l),
(119,617,l),
(170,617,ls),
(221,617,o),
(232,605,o),
(232,344,cs),
(232,83,o),
(220,71,o),
(170,71,cs),
(119,71,l)
);
}
);
};
layerId = "487ADAF7-57C4-4091-879E-1D750F439591";
shapes = (
{
closed = 1;
nodes = (
(196,322,l),
(196,376,l),
(2,376,l),
(2,322,l)
);
},
{
ref = D;
}
);
width = 342;
},
{
background = {
shapes = (
{
closed = 1;
nodes = (
(181,0,ls),
(329,0,o),
(328,95,o),
(328,344,cs),
(328,594,o),
(329,688,o),
(181,688,cs),
(29,688,l),
(29,383,l),
(1,383,l),
(1,319,l),
(29,319,l),
(29,0,l)
);
},
{
closed = 1;
nodes = (
(160,319,l),
(186,319,l),
(186,383,l),
(160,383,l),
(160,562,l),
(176,562,ls),
(195,562,o),
(197,562,o),
(197,344,cs),
(197,126,o),
(194,126,o),
(176,126,cs),
(160,126,l)
);
}
);
};
layerId = "7674DAFD-136A-491A-A3F0-195DB056B53F";
shapes = (
{
closed = 1;
nodes = (
(186,312,l),
(186,391,l),
(1,391,l),
(1,312,l)
);
},
{
ref = D;
}
);
width = 347;
},
{
background = {
shapes = (
{
closed = 1;
nodes = (
(159,0,ls),
(274,0,o),
(292,49,o),
(292,344,cs),
(292,639,o),
(274,688,o),
(159,688,cs),
(52,688,l),
(52,367,l),
(2,367,l),
(2,331,l),
(52,331,l),
(52,0,l)
);
},
{
closed = 1;
nodes = (
(88,331,l),
(199,331,l),
(199,367,l),
(88,367,l),
(88,654,l),
(165,654,ls),
(237,654,o),
(256,637,o),
(256,344,cs),
(256,51,o),
(236,34,o),
(165,34,cs),
(88,34,l)
);
}
);
};
layerId = "B5B62657-8F5D-48EE-9125-14A639410D02";
shapes = (
{
closed = 1;
nodes = (
(199,333,l),
(199,365,l),
(2,365,l),
(2,333,l)
);
},
{
ref = D;
}
);
width = 332;
},
{
background = {
shapes = (
{
closed = 1;
nodes = (
(346,0,ls),
(719,0,o),
(723,65,o),
(723,344,cs),
(723,622,o),
(719,688,o),
(346,688,cs),
(58,688,l),
(58,399,l),
(-12,399,l),
(-12,299,l),
(58,299,l),
(58,0,l)
);
},
{
closed = 1;
nodes = (
(325,299,l),
(398,299,l),
(398,399,l),
(325,399,l),
(325,510,l),
(350,510,ls),
(455,510,o),
(455,503,o),
(455,342,cs),
(455,188,o),
(455,178,o),
(350,178,cs),
(325,178,l)
);
}
);
};
layerId = "8EBCA172-37CB-4E59-A5FF-33FE92477777";
shapes = (
{
closed = 1;
nodes = (
(398,294,l),
(398,404,l),
(-12,404,l),
(-12,294,l)
);
},
{
ref = D;
}
);
width = 772;
},
{
background = {
shapes = (
{
closed = 1;
nodes = (
(367,0,ls),
(706,0,o),
(717,58,o),
(717,344,cs),
(717,630,o),
(706,688,o),
(367,688,cs),
(108,688,l),
(108,385,l),
(32,385,l),
(32,310,l),
(108,310,l),
(108,0,l)
);
},
{
closed = 1;
nodes = (
(233,310,l),
(340,310,l),
(340,385,l),
(233,385,l),
(233,585,l),
(351,585,ls),
(582,585,o),
(594,586,o),
(594,344,cs),
(594,102,o),
(586,103,o),
(351,103,cs),
(233,103,l)
);
}
);
};
layerId = "C6199351-AF36-494D-BF00-13EB6406F65F";
shapes = (
{
closed = 1;
nodes = (
(340,308,l),
(340,388,l),
(32,388,l),
(32,308,l)
);
},
{
ref = D;
}
);
width = 801;
},
{
background = {
shapes = (
{
closed = 1;
nodes = (
(371,0,ls),
(686,0,o),
(702,34,o),
(702,344,cs),
(702,654,o),
(686,688,o),
(371,688,cs),
(135,688,l),
(135,367,l),
(59,367,l),
(59,331,l),
(135,331,l),
(135,0,l)
);
},
{
closed = 1;
nodes = (
(171,331,l),
(306,331,l),
(306,367,l),
(171,367,l),
(171,654,l),
(343,654,ls),
(649,654,o),
(666,652,o),
(666,344,cs),
(666,36,o),
(654,34,o),
(343,34,cs),
(171,34,l)
);
}
);
};
layerId = "E7639064-56EC-4BF1-BEDD-A20273C7A444";
shapes = (
{
closed = 1;
nodes = (
(306,334,l),
(306,364,l),
(59,364,l),
(59,334,l)
);
},
{
ref = D;
}
);
width = 808;
}
);
unicode = 208;
},
{
glyphname = E;
kernLeft = H;
kernRight = E;
layers = (
{
anchors = (
{
name = bottom;
pos = (333,0);
},
{
name = ogonek;
pos = (541,0);
},
{
name = top;
pos = (338,688);
},
{
name = topleft;
pos = (115,688);
}
);
background = {
shapes = (
{
closed = 1;
nodes = (
(541,0,l),
(541,34,l),
(151,34,l),
(151,331,l),
(494,331,l),
(494,365,l),
(151,365,l),
(151,654,l),
(541,654,l),
(541,688,l),
(115,688,l),
(115,0,l)
);
}
);
};
layerId = UUID0;
shapes = (
{
closed = 1;
nodes = (
(151,0,l),
(151,688,l),
(115,688,l),
(115,0,l)
);
},
{
closed = 1;
nodes = (
(541,0,l),
(541,34,l),
(197,34,l),
(197,0,l)
);
},
{
closed = 1;
nodes = (
(494,331,l),
(494,365,l),
(197,365,l),
(197,331,l)
);
},
{
closed = 1;
nodes = (
(541,654,l),
(541,688,l),
(197,688,l),
(197,654,l)
);
}
);
width = 598;
},
{
anchors = (
{
name = bottom;
pos = (308,0);
},
{
name = ogonek;
pos = (555,0);
},
{
name = top;
pos = (308,688);
},
{
name = topleft;
pos = (51,688);
}
);
background = {
shapes = (
{
closed = 1;
nodes = (
(555,0,l),
(555,167,l),
(284,167,l),
(284,266,l),
(508,266,l),
(508,429,l),
(284,429,l),
(284,521,l),
(555,521,l),
(555,688,l),
(51,688,l),
(51,0,l)
);
}
);
};
layerId = "4F93A97B-747D-4721-B098-38A63C534D7A";
shapes = (
{
closed = 1;
nodes = (
(284,0,l),
(284,688,l),
(51,688,l),
(51,0,l)
);
},
{
closed = 1;
nodes = (
(555,0,l),
(555,167,l),
(318,167,l),
(318,0,l)
);
},
{
closed = 1;
nodes = (
(508,266,l),
(508,429,l),
(318,429,l),
(318,266,l)
);
},
{
closed = 1;
nodes = (
(555,521,l),
(555,688,l),
(318,688,l),
(318,521,l)
);
}
);
width = 603;
},
{
anchors = (
{
name = bottom;
pos = (237,0);
},
{
name = ogonek;
pos = (393,0);
},
{
name = top;
pos = (242,688);
},
{
name = topleft;
pos = (81,688);
}
);
background = {
shapes = (
{
closed = 1;
nodes = (
(393,0,l),
(393,34,l),
(118,34,l),
(118,331,l),
(359,331,l),
(359,365,l),
(118,365,l),
(118,654,l),
(393,654,l),
(393,688,l),
(81,688,l),
(81,0,l)
);
}
);
};
guides = (
{
angle = 90;
pos = (159,748);
},
{
angle = 90;
pos = (118,744);
}
);
layerId = "E6BBBBE7-ECAD-4929-840D-43673C7BDEAF";
shapes = (
{
closed = 1;
nodes = (
(118,0,l),
(118,688,l),
(81,688,l),
(81,0,l)
);
},
{
closed = 1;
nodes = (
(393,0,l),
(393,34,l),
(159,34,l),
(159,0,l)
);
},
{
closed = 1;
nodes = (
(359,331,l),
(359,365,l),
(159,365,l),
(159,331,l)
);
},
{
closed = 1;
nodes = (
(393,654,l),
(393,688,l),
(159,688,l),
(159,654,l)
);
}
);
width = 432;
},
{
anchors = (
{
name = bottom;
pos = (216,0);
},
{
name = ogonek;
pos = (393,0);
},
{
name = top;
pos = (216,688);
},
{
name = topleft;
pos = (40,688);
}
);
background = {
shapes = (
{
closed = 1;
nodes = (
(393,0,l),
(393,148,l),
(220,148,l),
(220,274,l),
(367,274,l),
(367,421,l),
(220,421,l),
(220,540,l),
(393,540,l),
(393,688,l),
(40,688,l),
(40,0,l)
);
}
);
};
guides = (
{
angle = 90;
pos = (244,795);
},
{
angle = 90;
pos = (220,794);
}
);
layerId = "7836D3B9-397C-42C1-8084-A98A44B9119A";
shapes = (
{
closed = 1;
nodes = (
(220,0,l),
(220,688,l),
(40,688,l),
(40,0,l)
);
},
{
closed = 1;
nodes = (
(393,0,l),
(393,148,l),
(244,148,l),
(244,0,l)
);
},
{
closed = 1;
nodes = (
(367,274,l),
(367,421,l),
(244,421,l),
(244,274,l)
);
},
{
closed = 1;
nodes = (
(393,540,l),
(393,688,l),
(244,688,l),
(244,540,l)
);
}
);
width = 426;
},
{
anchors = (
{
name = bottom;
pos = (238,0);
},
{
name = ogonek;
pos = (392,0);
},
{
name = top;
pos = (238,688);
},
{
name = topleft;
pos = (64,688);
}
);
background = {
shapes = (
{
closed = 1;
nodes = (
(392,0,l),
(392,82,l),
(158,82,l),
(158,307,l),
(361,307,l),
(361,389,l),
(158,389,l),
(158,606,l),
(392,606,l),
(392,688,l),
(64,688,l),
(64,0,l)
);
}
);
};
guides = (
{
angle = 90;
pos = (193,746);
},
{
angle = 90;
pos = (158,744);
}
);
layerId = "374FF654-0B40-45EE-AE97-0DEB7620D1EC";
shapes = (
{
closed = 1;
nodes = (
(158,0,l),
(158,688,l),
(64,688,l),
(64,0,l)
);
},
{
closed = 1;
nodes = (
(392,0,l),
(392,82,l),
(193,82,l),
(193,0,l)
);
},
{
closed = 1;
nodes = (
(361,307,l),
(361,389,l),
(193,389,l),
(193,307,l)
);
},
{
closed = 1;
nodes = (
(392,606,l),
(392,688,l),
(193,688,l),
(193,606,l)
);
}
);
width = 430;
},
{
anchors = (
{
name = bottom;
pos = (327,0);
},
{
name = ogonek;
pos = (552,0);
},
{
name = top;
pos = (332,688);
},
{
name = topleft;
pos = (87,688);
}
);
background = {
shapes = (
{
closed = 1;
nodes = (
(552,0,l),
(552,108,l),
(215,108,l),
(215,293,l),
(505,293,l),
(505,401,l),
(215,401,l),
(215,580,l),
(552,580,l),
(552,688,l),
(87,688,l),
(87,0,l)
);
}
);
};
layerId = "E7A95A6A-7487-49EE-B62A-BA87B06E4B57";
shapes = (
{
closed = 1;
nodes = (
(215,0,l),
(215,688,l),
(87,688,l),
(87,0,l)
);
},
{
closed = 1;
nodes = (
(552,0,l),
(552,108,l),
(255,108,l),
(255,0,l)
);
},
{
closed = 1;
nodes = (
(505,293,l),
(505,401,l),
(255,401,l),
(255,293,l)
);
},
{
closed = 1;
nodes = (
(552,580,l),
(552,688,l),
(255,688,l),
(255,580,l)
);
}
);
width = 608;
},
{
anchors = (
{
name = bottom;
pos = (154,0);
},
{
name = ogonek;
pos = (260,0);
},
{
name = top;
pos = (154,688);
},
{
name = topleft;
pos = (42,688);
}
);
background = {
shapes = (
{
closed = 1;
nodes = (
(260,0,l),
(260,71,l),
(120,71,l),
(120,312,l),
(243,312,l),
(243,383,l),
(120,383,l),
(120,617,l),
(260,617,l),
(260,688,l),
(42,688,l),
(42,0,l)
);
}
);
};
guides = (
{
angle = 90;
pos = (120,744);
},
{
angle = 270;
pos = (150,746);
}
);
layerId = "487ADAF7-57C4-4091-879E-1D750F439591";
shapes = (
{
closed = 1;
nodes = (
(120,0,l),
(120,688,l),
(42,688,l),
(42,0,l)
);
},
{
closed = 1;
nodes = (
(260,0,l),
(260,71,l),
(150,71,l),
(150,0,l)
);
},
{
closed = 1;
nodes = (
(243,312,l),
(243,383,l),
(150,383,l),
(150,312,l)
);
},
{
closed = 1;
nodes = (
(260,617,l),
(260,688,l),
(150,688,l),
(150,617,l)
);
}
);
width = 280;
},
{
anchors = (
{
name = bottom;
pos = (137,0);
},
{
name = ogonek;
pos = (247,0);
},
{
name = top;
pos = (137,688);
},
{
name = topleft;
pos = (29,688);
}
);
background = {
shapes = (
{
closed = 1;
nodes = (
(247,0,l),
(247,126,l),
(162,126,l),
(162,284,l),
(241,284,l),
(241,411,l),
(162,411,l),
(162,562,l),
(247,562,l),
(247,688,l),
(29,688,l),
(29,0,l)
);
}
);
};
guides = (
{
angle = 270;
pos = (182,745);
},
{
angle = 90;
pos = (162,744);
}
);
layerId = "7674DAFD-136A-491A-A3F0-195DB056B53F";
shapes = (
{
closed = 1;
nodes = (
(162,0,l),
(162,688,l),
(29,688,l),
(29,0,l)
);
},
{
closed = 1;
nodes = (
(247,0,l),
(247,126,l),
(182,126,l),
(182,0,l)
);
},
{
closed = 1;
nodes = (
(241,284,l),
(241,411,l),
(182,411,l),
(182,284,l)
);
},
{
closed = 1;
nodes = (
(247,562,l),
(247,688,l),
(182,688,l),
(182,562,l)
);
}
);
width = 268;
},
{
anchors = (
{
name = bottom;
pos = (160,0);
},
{
name = ogonek;
pos = (263,0);
},
{
name = top;
pos = (161,688);
},
{
name = topleft;
pos = (52,688);
}
);
background = {
shapes = (
{
closed = 1;
nodes = (
(263,0,l),
(263,34,l),
(89,34,l),
(89,331,l),
(240,331,l),
(240,365,l),
(89,365,l),
(89,654,l),
(263,654,l),
(263,688,l),
(52,688,l),
(52,0,l)
);
}
);
};
guides = (
{
angle = 90;
pos = (89,827);
},
{
angle = 90;
pos = (125,827);
}
);
layerId = "B5B62657-8F5D-48EE-9125-14A639410D02";
shapes = (
{
closed = 1;
nodes = (
(89,0,l),
(89,688,l),
(52,688,l),
(52,0,l)
);
},
{
closed = 1;
nodes = (
(263,0,l),
(263,34,l),
(125,34,l),
(125,0,l)
);
},
{
closed = 1;
nodes = (
(240,331,l),
(240,365,l),
(125,365,l),
(125,331,l)
);
},
{
closed = 1;
nodes = (
(263,654,l),
(263,688,l),
(125,688,l),
(125,654,l)
);
}
);
width = 286;
},
{
anchors = (
{
name = bottom;
pos = (355,0);
},
{
name = ogonek;
pos = (652,0);
},
{
name = top;
pos = (362,688);
},
{
name = topleft;
pos = (58,688);
}
);
background = {
shapes = (
{
closed = 1;
nodes = (
(652,0,l),
(652,178,l),
(322,178,l),
(322,261,l),
(593,261,l),
(593,434,l),
(322,434,l),
(322,510,l),
(652,510,l),
(652,688,l),
(58,688,l),
(58,0,l)
);
}
);
};
guides = (
{
angle = 90;
pos = (322,744);
},
{
angle = 270;
pos = (361,745);
}
);
layerId = "8EBCA172-37CB-4E59-A5FF-33FE92477777";
shapes = (
{
closed = 1;
nodes = (
(322,0,l),
(322,688,l),
(58,688,l),
(58,0,l)
);
},
{
closed = 1;
nodes = (
(652,0,l),
(652,178,l),
(361,178,l),
(361,0,l)
);
},
{
closed = 1;
nodes = (
(593,261,l),
(593,434,l),
(361,434,l),
(361,261,l)
);
},
{
closed = 1;
nodes = (
(652,510,l),
(652,688,l),
(361,688,l),
(361,510,l)
);
}
);
width = 709;
},
{
anchors = (
{
name = bottom;
pos = (383,0);
},
{
name = ogonek;
pos = (646,0);
},
{
name = top;
pos = (393,688);
},
{
name = topleft;
pos = (108,688);
}
);
background = {
shapes = (
{
closed = 1;
nodes = (
(646,0,l),
(646,103,l),
(233,103,l),
(233,295,l),
(589,295,l),
(589,398,l),
(233,398,l),
(233,585,l),
(646,585,l),
(646,688,l),
(108,688,l),
(108,0,l)
);
}
);
};
guides = (
{
angle = 90;
pos = (278,846);
},
{
angle = 90;
pos = (233,844);
}
);
layerId = "C6199351-AF36-494D-BF00-13EB6406F65F";
shapes = (
{
closed = 1;
nodes = (
(233,0,l),
(233,688,l),
(108,688,l),
(108,0,l)
);
},
{
closed = 1;
nodes = (
(646,0,l),
(646,103,l),
(278,103,l),
(278,0,l)
);
},
{
closed = 1;
nodes = (
(589,295,l),
(589,398,l),
(278,398,l),
(278,295,l)
);
},
{
closed = 1;
nodes = (
(646,585,l),
(646,688,l),
(278,688,l),
(278,585,l)
);
}
);
width = 713;
},
{
anchors = (
{
name = bottom;
pos = (380,0);
},
{
name = ogonek;
pos = (630,0);
},
{
name = top;
pos = (390,688);
},
{
name = topleft;
pos = (135,688);
}
);
background = {
shapes = (
{
closed = 1;
nodes = (
(630,0,l),
(630,34,l),
(171,34,l),
(171,331,l),
(575,331,l),
(575,365,l),
(171,365,l),
(171,654,l),
(630,654,l),
(630,688,l),
(135,688,l),
(135,0,l)
);
}
);
};
guides = (
{
angle = 90;
pos = (222,848);
},
{
angle = 90;
pos = (171,844);
}
);
layerId = "E7639064-56EC-4BF1-BEDD-A20273C7A444";
shapes = (
{
closed = 1;
nodes = (
(171,0,l),
(171,688,l),
(135,688,l),
(135,0,l)
);
},
{
closed = 1;
nodes = (
(630,0,l),
(630,34,l),
(222,34,l),
(222,0,l)
);
},
{
closed = 1;
nodes = (
(575,331,l),
(575,365,l),
(222,365,l),
(222,331,l)
);
},
{
closed = 1;
nodes = (
(630,654,l),
(630,688,l),
(222,688,l),
(222,654,l)
);
}
);
width = 698;
}
);
unicode = 69;
},
{
glyphname = Schwa;
kernLeft = O;
kernRight = O;
layers = (
{
anchors = (
{
name = bottom;
pos = (353,0);
},
{
name = top;
pos = (353,688);
}
);
background = {
shapes = (
{
closed = 1;
nodes = (
(601,-8,o),
(616,31,o),
(616,344,cs),
(616,662,o),
(576,696,o),
(339,696,cs),
(283,696,o),
(209,688,o),
(163,676,c),
(163,642,l),
(208,654,o),
(277,662,o),
(329,662,cs),
(550,662,o),
(579,638,o),
(580,365,c),
(90,365,l),
(90,344,ls),
(90,31,o),
(105,-8,o),
(353,-8,cs)
);
},
{
closed = 1;
nodes = (
(148,26,o),
(127,32,o),
(126,331,c),
(580,331,l),
(579,32,o),
(558,26,o),
(353,26,cs)
);
}
);
};
layerId = UUID0;
shapes = (
{
closed = 1;
nodes = (
(612,104,o),
(616,191,o),
(616,344,cs),
(616,662,o),
(576,696,o),
(339,696,cs),
(283,696,o),
(209,688,o),
(163,676,c),
(163,642,l),
(208,654,o),
(277,662,o),
(329,662,cs),
(548,662,o),
(580,638,o),
(580,370,cs),
(580,54,l)
);
},
{
closed = 1;
nodes = (
(437,-8,o),
(495,-3,o),
(534,15,c),
(534,57,l),
(501,27,o),
(446,26,o),
(353,26,cs),
(148,26,o),
(127,32,o),
(126,331,c),
(534,331,l),
(534,365,l),
(90,365,l),
(90,344,ls),
(90,31,o),
(105,-8,o),
(353,-8,cs)
);
}
);
width = 706;
},
{
anchors = (
{
name = bottom;
pos = (345,0);
},
{
name = top;
pos = (345,688);
}
);
background = {
shapes = (
{
closed = 1;
nodes = (
(612,-8,o),
(624,64,o),
(624,344,cs),
(624,624,o),
(587,696,o),
(329,696,cs),
(271,696,o),
(195,690,o),
(147,681,c),
(147,578,l),
(188,584,o),
(250,588,o),
(297,588,cs),
(465,588,o),
(492,572,o),
(496,401,c),
(65,401,l),
(65,344,ls),
(65,64,o),
(76,-8,o),
(344,-8,cs)
);
},
{
closed = 1;
nodes = (
(209,100,o),
(195,104,o),
(193,293,c),
(496,293,l),
(494,104,o),
(479,100,o),
(344,100,cs)
);
}
);
};
layerId = "E7A95A6A-7487-49EE-B62A-BA87B06E4B57";
shapes = (
{
closed = 1;
nodes = (
(617,39,o),
(624,131,o),
(624,344,cs),
(624,624,o),
(587,696,o),
(329,696,cs),
(271,696,o),
(195,690,o),
(147,681,c),
(147,578,l),
(188,584,o),
(250,588,o),
(297,588,cs),
(465,588,o),
(496,572,o),
(496,401,cs),
(496,6,l)
);
},
{
closed = 1;
nodes = (
(388,-8,o),
(425,-6,o),
(456,-2,c),
(456,114,l),
(434,101,o),
(399,100,o),
(344,100,cs),
(209,100,o),
(195,104,o),
(193,293,c),
(456,293,l),
(456,401,l),
(65,401,l),
(65,344,ls),
(65,64,o),
(76,-8,o),
(344,-8,cs)
);
}
);
width = 689;
},
{
anchors = (
{
name = bottom;
pos = (348,0);
},
{
name = top;
pos = (348,688);
}
);
background = {
shapes = (
{
closed = 1;
nodes = (
(639,-8,o),
(643,73,o),
(643,344,cs),
(643,614,o),
(608,696,o),
(313,696,cs),
(248,696,o),
(168,689,o),
(123,680,c),
(123,521,l),
(162,526,o),
(218,529,o),
(258,529,cs),
(378,529,o),
(402,519,o),
(407,429,c),
(42,429,l),
(42,344,ls),
(42,73,o),
(45,-8,o),
(337,-8,cs)
);
},
{
closed = 1;
nodes = (
(279,159,o),
(269,162,o),
(267,266,c),
(418,266,l),
(415,162,o),
(403,159,o),
(337,159,cs)
);
}
);
};
layerId = "4F93A97B-747D-4721-B098-38A63C534D7A";
shapes = (
{
closed = 1;
nodes = (
(640,10,o),
(643,99,o),
(643,344,cs),
(643,614,o),
(608,696,o),
(313,696,cs),
(248,696,o),
(168,689,o),
(123,680,c),
(123,521,l),
(162,526,o),
(218,529,o),
(258,529,cs),
(384,529,o),
(418,519,o),
(418,429,cs),
(418,-5,l)
);
},
{
closed = 1;
nodes = (
(354,-8,o),
(370,-8,o),
(385,-7,c),
(385,163,l),
(373,159,o),
(358,159,o),
(337,159,cs),
(279,159,o),
(269,162,o),
(267,266,c),
(385,266,l),
(385,429,l),
(42,429,l),
(42,344,ls),
(42,73,o),
(45,-8,o),
(337,-8,cs)
);
}
);
width = 695;
},
{
anchors = (
{
name = bottom;
pos = (266,0);
},
{
name = top;
pos = (266,688);
}
);
background = {
shapes = (
{
closed = 1;
nodes = (
(449,-8,o),
(466,37,o),
(466,344,cs),
(466,657,o),
(433,696,o),
(255,696,cs),
(208,696,o),
(154,690,o),
(120,681,c),
(120,648,l),
(153,656,o),
(205,662,o),
(243,662,cs),
(408,662,o),
(430,634,o),
(430,365,c),
(65,365,l),
(65,344,ls),
(65,37,o),
(82,-8,o),
(265,-8,cs)
);
},
{
closed = 1;
nodes = (
(123,26,o),
(102,38,o),
(101,331,c),
(430,331,l),
(429,38,o),
(409,26,o),
(265,26,cs)
);
}
);
};
guides = (
{
angle = 90;
pos = (430,748);
},
{
angle = 90;
pos = (389,744);
}
);
layerId = "E6BBBBE7-ECAD-4929-840D-43673C7BDEAF";
shapes = (
{
closed = 1;
nodes = (
(462,93,o),
(466,182,o),
(466,344,cs),
(466,657,o),
(433,696,o),
(255,696,cs),
(208,696,o),
(154,690,o),
(120,681,c),
(120,648,l),
(153,656,o),
(205,662,o),
(243,662,cs),
(408,662,o),
(430,634,o),
(430,365,cs),
(430,45,l)
);
},
{
closed = 1;
nodes = (
(320,-8,o),
(360,-4,o),
(389,10,c),
(389,52,l),
(364,28,o),
(326,26,o),
(265,26,cs),
(123,26,o),
(102,38,o),
(101,331,c),
(389,331,l),
(389,365,l),
(65,365,l),
(65,344,ls),
(65,37,o),
(82,-8,o),
(265,-8,cs)
);
}
);
width = 531;
},
{
anchors = (
{
name = bottom;
pos = (261,0);
},
{
name = top;
pos = (261,688);
}
);
background = {
shapes = (
{
closed = 1;
nodes = (
(462,-8,o),
(472,60,o),
(472,344,cs),
(472,626,o),
(443,696,o),
(248,696,cs),
(196,696,o),
(140,690,o),
(105,681,c),
(105,597,l),
(135,602,o),
(182,607,o),
(218,607,cs),
(348,607,o),
(367,586,o),
(369,392,c),
(48,392,l),
(48,344,ls),
(48,60,o),
(59,-8,o),
(260,-8,cs)
);
},
{
closed = 1;
nodes = (
(166,82,o),
(152,90,o),
(151,303,c),
(369,303,l),
(368,90,o),
(354,82,o),
(260,82,cs)
);
}
);
};
guides = (
{
angle = 90;
pos = (369,746);
},
{
angle = 90;
pos = (334,744);
}
);
layerId = "374FF654-0B40-45EE-AE97-0DEB7620D1EC";
shapes = (
{
closed = 1;
nodes = (
(466,33,o),
(472,124,o),
(472,344,cs),
(472,626,o),
(443,696,o),
(248,696,cs),
(196,696,o),
(140,690,o),
(105,681,c),
(105,597,l),
(135,602,o),
(182,607,o),
(218,607,cs),
(348,607,o),
(367,586,o),
(369,392,c),
(369,4,l)
);
},
{
closed = 1;
nodes = (
(288,-8,o),
(313,-7,o),
(334,-4,c),
(334,94,l),
(318,83,o),
(294,82,o),
(260,82,cs),
(166,82,o),
(152,90,o),
(151,303,c),
(334,303,l),
(334,392,l),
(48,392,l),
(48,344,ls),
(48,60,o),
(59,-8,o),
(260,-8,cs)
);
}
);
width = 521;
},
{
anchors = (
{
name = bottom;
pos = (260,0);
},
{
name = top;
pos = (260,688);
}
);
background = {
shapes = (
{
closed = 1;
nodes = (
(484,-8,o),
(486,80,o),
(486,344,cs),
(486,602,o),
(460,696,o),
(237,696,cs),
(180,696,o),
(122,689,o),
(88,678,c),
(88,544,l),
(117,547,o),
(159,550,o),
(193,550,cs),
(283,550,o),
(299,539,o),
(302,420,c),
(34,420,l),
(34,344,ls),
(34,80,o),
(35,-8,o),
(257,-8,cs)
);
},
{
closed = 1;
nodes = (
(219,139,o),
(214,143,o),
(213,277,c),
(307,277,l),
(306,143,o),
(300,139,o),
(257,139,cs)
);
}
);
};
guides = (
{
angle = 90;
pos = (307,795);
},
{
angle = 90;
pos = (283,794);
}
);
layerId = "7836D3B9-397C-42C1-8084-A98A44B9119A";
shapes = (
{
closed = 1;
nodes = (
(484,7,o),
(486,101,o),
(486,344,cs),
(486,602,o),
(460,696,o),
(237,696,cs),
(180,696,o),
(122,689,o),
(88,678,c),
(88,544,l),
(117,547,o),
(159,550,o),
(193,550,cs),
(283,550,o),
(307,537,o),
(307,420,c),
(307,-7,l)
);
},
{
closed = 1;
nodes = (
(266,-8,o),
(275,-8,o),
(283,-8,c),
(283,142,l),
(277,139,o),
(268,139,o),
(257,139,cs),
(219,139,o),
(214,143,o),
(213,277,c),
(283,277,l),
(283,420,l),
(34,420,l),
(34,344,ls),
(34,80,o),
(35,-8,o),
(257,-8,cs)
);
}
);
width = 519;
},
{
anchors = (
{
name = bottom;
pos = (178,0);
},
{
name = top;
pos = (178,688);
}
);
background = {
shapes = (
{
closed = 1;
nodes = (
(297,-8,o),
(316,42,o),
(316,344,cs),
(316,652,o),
(289,696,o),
(171,696,cs),
(133,696,o),
(99,691,o),
(77,686,c),
(77,653,l),
(97,657,o),
(132,662,o),
(156,662,cs),
(266,662,o),
(280,630,o),
(280,365,c),
(40,365,l),
(40,344,ls),
(40,42,o),
(58,-8,o),
(177,-8,cs)
);
},
{
closed = 1;
nodes = (
(97,26,o),
(77,43,o),
(76,331,c),
(280,331,l),
(279,43,o),
(259,26,o),
(177,26,cs)
);
}
);
};
guides = (
{
angle = 90;
pos = (244,757);
},
{
angle = 90;
pos = (280,757);
}
);
layerId = "B5B62657-8F5D-48EE-9125-14A639410D02";
shapes = (
{
closed = 1;
nodes = (
(310,77,o),
(316,167,o),
(316,344,cs),
(316,652,o),
(289,696,o),
(171,696,cs),
(133,696,o),
(99,691,o),
(77,686,c),
(77,653,l),
(97,657,o),
(132,662,o),
(156,662,cs),
(266,662,o),
(280,630,o),
(280,365,cs),
(280,33,l)
);
},
{
closed = 1;
nodes = (
(204,-8,o),
(226,-5,o),
(244,2,c),
(244,45,l),
(228,28,o),
(207,26,o),
(177,26,cs),
(97,26,o),
(77,43,o),
(76,331,c),
(244,331,l),
(244,365,l),
(40,365,l),
(40,344,ls),
(40,42,o),
(58,-8,o),
(177,-8,cs)
);
}
);
width = 355;
},
{
anchors = (
{
name = bottom;
pos = (176,0);
},
{
name = top;
pos = (176,688);
}
);
background = {
shapes = (
{
closed = 1;
nodes = (
(312,-8,o),
(320,56,o),
(320,344,cs),
(320,627,o),
(299,696,o),
(166,696,cs),
(120,696,o),
(85,689,o),
(63,681,c),
(63,616,l),
(81,620,o),
(113,625,o),
(139,625,cs),
(231,625,o),
(242,599,o),
(242,383,c),
(30,383,l),
(30,344,ls),
(30,56,o),
(41,-8,o),
(175,-8,cs)
);
},
{
closed = 1;
nodes = (
(123,63,o),
(109,75,o),
(108,312,c),
(242,312,l),
(241,75,o),
(229,63,o),
(175,63,cs)
);
}
);
};
guides = (
{
angle = 90;
pos = (212,744);
},
{
angle = 270;
pos = (242,746);
}
);
layerId = "487ADAF7-57C4-4091-879E-1D750F439591";
shapes = (
{
closed = 1;
nodes = (
(315,26,o),
(320,113,o),
(320,344,cs),
(320,627,o),
(299,696,o),
(166,696,cs),
(120,696,o),
(85,689,o),
(63,681,c),
(63,616,l),
(81,620,o),
(113,625,o),
(139,625,cs),
(231,625,o),
(242,599,o),
(242,383,cs),
(242,1,l)
);
},
{
closed = 1;
nodes = (
(189,-8,o),
(201,-7,o),
(212,-6,c),
(212,71,l),
(203,64,o),
(191,63,o),
(175,63,cs),
(123,63,o),
(109,75,o),
(108,312,c),
(212,312,l),
(212,383,l),
(30,383,l),
(30,344,ls),
(30,56,o),
(41,-8,o),
(175,-8,cs)
);
}
);
width = 352;
},
{
anchors = (
{
name = bottom;
pos = (171,0);
},
{
name = top;
pos = (171,688);
}
);
background = {
shapes = (
{
closed = 1;
nodes = (
(325,-8,o),
(325,86,o),
(325,344,cs),
(325,589,o),
(308,696,o),
(156,696,cs),
(107,696,o),
(72,688,o),
(48,676,c),
(48,566,l),
(67,568,o),
(96,570,o),
(124,570,cs),
(183,570,o),
(191,559,o),
(192,411,c),
(21,411,l),
(21,344,ls),
(21,86,o),
(21,-8,o),
(173,-8,cs)
);
},
{
closed = 1;
nodes = (
(154,118,o),
(154,123,o),
(154,287,c),
(192,287,l),
(192,123,o),
(192,118,o),
(173,118,cs)
);
}
);
};
guides = (
{
angle = 270;
pos = (192,745);
},
{
angle = 90;
pos = (172,744);
}
);
layerId = "7674DAFD-136A-491A-A3F0-195DB056B53F";
shapes = (
{
closed = 1;
nodes = (
(325,2,o),
(325,99,o),
(325,344,cs),
(325,589,o),
(308,696,o),
(156,696,cs),
(107,696,o),
(72,688,o),
(48,676,c),
(48,566,l),
(67,568,o),
(96,570,o),
(124,570,cs),
(183,570,o),
(191,559,o),
(192,411,cs),
(192,-7,l)
);
},
{
closed = 1;
nodes = (
(171,-8,o),
(171,-8,o),
(172,-8,c),
(172,118,l),
(171,118,o),
(170,118,o),
(169,118,cs),
(154,118,o),
(154,123,o),
(154,287,c),
(172,287,l),
(172,411,l),
(21,411,l),
(21,344,ls),
(21,86,o),
(22,-8,o),
(170,-8,cs)
);
}
);
width = 342;
},
{
anchors = (
{
name = bottom;
pos = (409,0);
},
{
name = top;
pos = (409,688);
}
);
background = {
shapes = (
{
closed = 1;
nodes = (
(698,-8,o),
(712,27,o),
(712,344,cs),
(712,666,o),
(666,696,o),
(392,696,cs),
(331,696,o),
(244,687,o),
(191,673,c),
(191,638,l),
(243,653,o),
(323,662,o),
(384,662,cs),
(641,662,o),
(675,642,o),
(676,365,c),
(106,365,l),
(106,344,ls),
(106,27,o),
(120,-8,o),
(409,-8,cs)
);
},
{
closed = 1;
nodes = (
(165,26,o),
(143,28,o),
(142,331,c),
(676,331,l),
(675,28,o),
(653,26,o),
(409,26,cs)
);
}
);
};
guides = (
{
angle = 90;
pos = (676,798);
},
{
angle = 90;
pos = (625,794);
}
);
layerId = "E7639064-56EC-4BF1-BEDD-A20273C7A444";
shapes = (
{
closed = 1;
nodes = (
(709,109,o),
(712,195,o),
(712,344,cs),
(712,666,o),
(666,696,o),
(392,696,cs),
(331,696,o),
(244,687,o),
(191,673,c),
(191,638,l),
(243,653,o),
(323,662,o),
(384,662,cs),
(641,662,o),
(676,642,o),
(676,365,cs),
(676,59,l)
);
},
{
closed = 1;
nodes = (
(512,-8,o),
(580,-4,o),
(625,17,c),
(625,57,l),
(587,26,o),
(522,26,o),
(409,26,cs),
(165,26,o),
(143,28,o),
(142,331,c),
(625,331,l),
(625,365,l),
(106,365,l),
(106,344,ls),
(106,27,o),
(120,-8,o),
(409,-8,cs)
);
}
);
width = 818;
},
{
anchors = (
{
name = bottom;
pos = (400,0);
},
{
name = top;
pos = (400,688);
}
);
background = {
shapes = (
{
closed = 1;
nodes = (
(705,-8,o),
(719,60,o),
(719,344,cs),
(719,629,o),
(675,696,o),
(384,696,cs),
(319,696,o),
(232,691,o),
(175,679,c),
(175,581,l),
(223,589,o),
(296,593,o),
(352,593,cs),
(557,593,o),
(589,579,o),
(594,398,c),
(80,398,l),
(80,344,ls),
(80,60,o),
(93,-8,o),
(399,-8,cs)
);
},
{
closed = 1;
nodes = (
(224,95,o),
(207,97,o),
(205,295,c),
(594,295,l),
(592,97,o),
(575,95,o),
(399,95,cs)
);
}
);
};
guides = (
{
angle = 90;
pos = (594,796);
},
{
angle = 90;
pos = (549,794);
}
);
layerId = "C6199351-AF36-494D-BF00-13EB6406F65F";
shapes = (
{
closed = 1;
nodes = (
(712,47,o),
(719,140,o),
(719,344,cs),
(719,629,o),
(675,696,o),
(384,696,cs),
(319,696,o),
(232,691,o),
(175,679,c),
(175,581,l),
(223,589,o),
(296,593,o),
(352,593,cs),
(557,593,o),
(594,579,o),
(594,398,cs),
(594,11,l)
);
},
{
closed = 1;
nodes = (
(460,-8,o),
(509,-5,o),
(549,1,c),
(549,111,l),
(520,95,o),
(474,95,o),
(399,95,cs),
(224,95,o),
(207,97,o),
(205,295,c),
(549,295,l),
(549,398,l),
(80,398,l),
(80,344,ls),
(80,60,o),
(93,-8,o),
(399,-8,cs)
);
}
);
width = 799;
},
{
anchors = (
{
name = bottom;
pos = (404,0);
},
{
name = top;
pos = (404,688);
}
);
background = {
shapes = (
{
closed = 1;
nodes = (
(738,-8,o),
(744,69,o),
(744,344,cs),
(744,621,o),
(703,696,o),
(363,696,c),
(292,696,o),
(199,690,o),
(146,681,c),
(146,508,l),
(192,514,o),
(256,518,o),
(301,518,cs),
(443,518,o),
(473,508,o),
(479,430,c),
(49,430,l),
(49,344,ls),
(49,69,o),
(53,-8,o),
(389,-8,c)
);
},
{
closed = 1;
nodes = (
(313,170,o),
(309,174,o),
(307,271,c),
(486,271,l),
(482,174,o),
(477,170,o),
(389,170,cs)
);
}
);
};
guides = (
{
angle = 90;
pos = (447,744);
},
{
angle = 270;
pos = (486,745);
}
);
layerId = "8EBCA172-37CB-4E59-A5FF-33FE92477777";
shapes = (
{
closed = 1;
nodes = (
(739,10,o),
(744,97,o),
(744,344,cs),
(744,621,o),
(703,696,o),
(363,696,c),
(292,696,o),
(199,690,o),
(146,681,c),
(146,508,l),
(192,514,o),
(256,518,o),
(301,518,cs),
(443,518,o),
(486,503,o),
(486,430,cs),
(486,-5,l)
);
},
{
closed = 1;
nodes = (
(409,-8,o),
(429,-8,o),
(447,-7,c),
(447,173,l),
(433,170,o),
(415,170,o),
(389,170,cs),
(313,170,o),
(309,174,o),
(307,271,c),
(447,271,l),
(447,430,l),
(49,430,l),
(49,344,ls),
(49,69,o),
(53,-8,o),
(389,-8,c)
);
}
);
width = 807;
}
);
unicode = 399;
},
{
glyphname = F;
kernLeft = H;
kernRight = F;
layers = (
{
anchors = (
{
name = bottom;
pos = (133,0);
},
{
name = top;
pos = (318,688);
}
);
background = {
shapes = (
{
closed = 1;
nodes = (
(151,0,l),
(151,317,l),
(484,317,l),
(484,351,l),
(151,351,l),
(151,654,l),
(521,654,l),
(521,688,l),
(115,688,l),
(115,0,l)
);
}
);
};
layerId = UUID0;
shapes = (
{
closed = 1;
nodes = (
(151,0,l),
(151,688,l),
(115,688,l),
(115,0,l)
);
},
{
closed = 1;
nodes = (
(484,317,l),
(484,351,l),
(197,351,l),
(197,317,l)
);
},
{
closed = 1;
nodes = (
(521,654,l),
(521,688,l),
(197,688,l),
(197,654,l)
);
}
);
width = 561;
},
{
anchors = (
{
name = bottom;
pos = (168,0);
},
{
name = top;
pos = (293,688);
}
);
background = {
shapes = (
{
closed = 1;
nodes = (
(284,0,l),
(284,233,l),
(498,233,l),
(498,400,l),
(284,400,l),
(284,521,l),
(535,521,l),
(535,688,l),
(51,688,l),
(51,0,l)
);
}
);
};
layerId = "4F93A97B-747D-4721-B098-38A63C534D7A";
shapes = (
{
closed = 1;
nodes = (
(284,0,l),
(284,688,l),
(51,688,l),
(51,0,l)
);
},
{
closed = 1;
nodes = (
(498,233,l),
(498,400,l),
(318,400,l),
(318,233,l)
);
},
{
closed = 1;
nodes = (
(535,521,l),
(535,688,l),
(318,688,l),
(318,521,l)
);
}
);
width = 569;
},
{
anchors = (
{
name = bottom;
pos = (100,0);
},
{
name = top;
pos = (230,688);
}
);
background = {
shapes = (
{
closed = 1;
nodes = (
(118,0,l),
(118,317,l),
(352,317,l),
(352,351,l),
(118,351,l),
(118,654,l),
(379,654,l),
(379,688,l),
(81,688,l),
(81,0,l)
);
}
);
};
guides = (
{
angle = 90;
pos = (159,748);
},
{
angle = 90;
pos = (118,744);
}
);
layerId = "E6BBBBE7-ECAD-4929-840D-43673C7BDEAF";
shapes = (
{
closed = 1;
nodes = (
(118,0,l),
(118,688,l),
(81,688,l),
(81,0,l)
);
},
{
closed = 1;
nodes = (
(352,317,l),
(352,351,l),
(159,351,l),
(159,317,l)
);
},
{
closed = 1;
nodes = (
(379,654,l),
(379,688,l),
(159,688,l),
(159,654,l)
);
}
);
width = 409;
},
{
anchors = (
{
name = bottom;
pos = (129,0);
},
{
name = top;
pos = (208,688);
}
);
background = {
shapes = (
{
closed = 1;
nodes = (
(220,0,l),
(220,254,l),
(356,254,l),
(356,402,l),
(220,402,l),
(220,540,l),
(377,540,l),
(377,688,l),
(40,688,l),
(40,0,l)
);
}
);
};
guides = (
{
angle = 90;
pos = (244,795);
},
{
angle = 90;
pos = (220,794);
}
);
layerId = "7836D3B9-397C-42C1-8084-A98A44B9119A";
shapes = (
{
closed = 1;
nodes = (
(220,0,l),
(220,688,l),
(40,688,l),
(40,0,l)
);
},
{
closed = 1;
nodes = (
(356,254,l),
(356,402,l),
(244,402,l),
(244,254,l)
);
},
{
closed = 1;
nodes = (
(377,540,l),
(377,688,l),
(244,688,l),
(244,540,l)
);
}
);
width = 397;
},
{
anchors = (
{
name = bottom;
pos = (111,0);
},
{
name = top;
pos = (220,688);
}
);
background = {
shapes = (
{
closed = 1;
nodes = (
(158,0,l),
(158,290,l),
(353,290,l),
(353,372,l),
(158,372,l),
(158,606,l),
(377,606,l),
(377,688,l),
(64,688,l),
(64,0,l)
);
}
);
};
guides = (
{
angle = 90;
pos = (193,746);
},
{
angle = 90;
pos = (158,744);
}
);
layerId = "374FF654-0B40-45EE-AE97-0DEB7620D1EC";
shapes = (
{
closed = 1;
nodes = (
(158,0,l),
(158,688,l),
(64,688,l),
(64,0,l)
);
},
{
closed = 1;
nodes = (
(353,290,l),
(353,372,l),
(193,372,l),
(193,290,l)
);
},
{
closed = 1;
nodes = (
(377,606,l),
(377,688,l),
(193,688,l),
(193,606,l)
);
}
);
width = 404;
},
{
anchors = (
{
name = bottom;
pos = (151,0);
},
{
name = top;
pos = (310,688);
}
);
background = {
shapes = (
{
closed = 1;
nodes = (
(215,0,l),
(215,276,l),
(495,276,l),
(495,384,l),
(215,384,l),
(215,580,l),
(532,580,l),
(532,688,l),
(87,688,l),
(87,0,l)
);
}
);
};
layerId = "E7A95A6A-7487-49EE-B62A-BA87B06E4B57";
shapes = (
{
closed = 1;
nodes = (
(215,0,l),
(215,688,l),
(87,688,l),
(87,0,l)
);
},
{
closed = 1;
nodes = (
(495,276,l),
(495,384,l),
(255,384,l),
(255,276,l)
);
},
{
closed = 1;
nodes = (
(532,580,l),
(532,688,l),
(255,688,l),
(255,580,l)
);
}
);
width = 569;
},
{
anchors = (
{
name = bottom;
pos = (132,0);
},
{
name = top;
pos = (132,688);
}
);
background = {
shapes = (
{
closed = 1;
nodes = (
(120,0,l),
(120,299,l),
(234,299,l),
(234,370,l),
(120,370,l),
(120,617,l),
(249,617,l),
(249,688,l),
(42,688,l),
(42,0,l)
);
}
);
};
guides = (
{
angle = 90;
pos = (120,744);
},
{
angle = 270;
pos = (150,746);
}
);
layerId = "487ADAF7-57C4-4091-879E-1D750F439591";
shapes = (
{
closed = 1;
nodes = (
(120,0,l),
(120,688,l),
(42,688,l),
(42,0,l)
);
},
{
closed = 1;
nodes = (
(234,299,l),
(234,370,l),
(150,370,l),
(150,299,l)
);
},
{
closed = 1;
nodes = (
(249,617,l),
(249,688,l),
(150,688,l),
(150,617,l)
);
}
);
width = 264;
},
{
anchors = (
{
name = bottom;
pos = (122,0);
},
{
name = top;
pos = (122,688);
}
);
background = {
shapes = (
{
closed = 1;
nodes = (
(162,0,l),
(162,278,l),
(228,278,l),
(228,404,l),
(162,404,l),
(162,562,l),
(237,562,l),
(237,688,l),
(29,688,l),
(29,0,l)
);
}
);
};
guides = (
{
angle = 270;
pos = (182,745);
},
{
angle = 90;
pos = (162,744);
}
);
layerId = "7674DAFD-136A-491A-A3F0-195DB056B53F";
shapes = (
{
closed = 1;
nodes = (
(162,0,l),
(162,688,l),
(29,688,l),
(29,0,l)
);
},
{
closed = 1;
nodes = (
(228,278,l),
(228,404,l),
(182,404,l),
(182,278,l)
);
},
{
closed = 1;
nodes = (
(237,562,l),
(237,688,l),
(182,688,l),
(182,562,l)
);
}
);
width = 244;
},
{
anchors = (
{
name = bottom;
pos = (137,0);
},
{
name = top;
pos = (137,688);
}
);
background = {
shapes = (
{
closed = 1;
nodes = (
(89,0,l),
(89,317,l),
(235,317,l),
(235,351,l),
(89,351,l),
(89,654,l),
(253,654,l),
(253,688,l),
(52,688,l),
(52,0,l)
);
}
);
};
guides = (
{
angle = 90;
pos = (89,757);
},
{
angle = 90;
pos = (125,757);
}
);
layerId = "B5B62657-8F5D-48EE-9125-14A639410D02";
shapes = (
{
closed = 1;
nodes = (
(89,0,l),
(89,688,l),
(52,688,l),
(52,0,l)
);
},
{
closed = 1;
nodes = (
(235,317,l),
(235,351,l),
(125,351,l),
(125,317,l)
);
},
{
closed = 1;
nodes = (
(253,654,l),
(253,688,l),
(125,688,l),
(125,654,l)
);
}
);
width = 274;
},
{
anchors = (
{
name = bottom;
pos = (336,0);
},
{
name = top;
pos = (336,688);
}
);
background = {
shapes = (
{
closed = 1;
nodes = (
(322,0,l),
(322,216,l),
(583,216,l),
(583,395,l),
(322,395,l),
(322,510,l),
(630,510,l),
(630,688,l),
(58,688,l),
(58,0,l)
);
}
);
};
guides = (
{
angle = 90;
pos = (322,744);
},
{
angle = 270;
pos = (361,745);
}
);
layerId = "8EBCA172-37CB-4E59-A5FF-33FE92477777";
shapes = (
{
closed = 1;
nodes = (
(322,0,l),
(322,688,l),
(58,688,l),
(58,0,l)
);
},
{
closed = 1;
nodes = (
(583,216,l),
(583,395,l),
(361,395,l),
(361,216,l)
);
},
{
closed = 1;
nodes = (
(630,510,l),
(630,688,l),
(361,688,l),
(361,510,l)
);
}
);
width = 672;
},
{
anchors = (
{
name = bottom;
pos = (335,0);
},
{
name = top;
pos = (335,688);
}
);
background = {
shapes = (
{
closed = 1;
nodes = (
(233,0,l),
(233,279,l),
(579,279,l),
(579,382,l),
(233,382,l),
(233,585,l),
(623,585,l),
(623,688,l),
(108,688,l),
(108,0,l)
);
}
);
};
guides = (
{
angle = 90;
pos = (278,846);
},
{
angle = 90;
pos = (233,844);
}
);
layerId = "C6199351-AF36-494D-BF00-13EB6406F65F";
shapes = (
{
closed = 1;
nodes = (
(233,0,l),
(233,688,l),
(108,688,l),
(108,0,l)
);
},
{
closed = 1;
nodes = (
(579,279,l),
(579,382,l),
(278,382,l),
(278,279,l)
);
},
{
closed = 1;
nodes = (
(623,585,l),
(623,688,l),
(278,688,l),
(278,585,l)
);
}
);
width = 669;
},
{
anchors = (
{
name = bottom;
pos = (326,0);
},
{
name = top;
pos = (326,688);
}
);
background = {
shapes = (
{
closed = 1;
nodes = (
(171,0,l),
(171,317,l),
(563,317,l),
(563,351,l),
(171,351,l),
(171,654,l),
(606,654,l),
(606,688,l),
(135,688,l),
(135,0,l)
);
}
);
};
guides = (
{
angle = 90;
pos = (222,848);
},
{
angle = 90;
pos = (171,844);
}
);
layerId = "E7639064-56EC-4BF1-BEDD-A20273C7A444";
shapes = (
{
closed = 1;
nodes = (
(171,0,l),
(171,688,l),
(135,688,l),
(135,0,l)
);
},
{
closed = 1;
nodes = (
(563,317,l),
(563,351,l),
(222,351,l),
(222,317,l)
);
},
{
closed = 1;
nodes = (
(606,654,l),
(606,688,l),
(222,688,l),
(222,654,l)
);
}
);
width = 652;
}
);
unicode = 70;
},
{
glyphname = G;
kernLeft = O;
kernRight = G;
layers = (
{
anchors = (
{
name = bottom;
pos = (362,0);
},
{
name = top;
pos = (362,688);
}
);
background = {
shapes = (
{
closed = 1;
nodes = (
(432,-8,o),
(519,-1,o),
(583,9,c),
(583,349,l),
(353,349,l),
(353,315,l),
(547,315,l),
(547,38,l),
(502,32,o),
(419,26,o),
(371,26,cs),
(152,26,o),
(126,66,o),
(126,344,cs),
(126,659,o),
(177,662,o),
(402,662,cs),
(446,662,o),
(522,655,o),
(580,646,c),
(580,678,l),
(528,688,o),
(440,696,o),
(372,696,cs),
(139,696,o),
(90,657,o),
(90,344,cs),
(90,31,o),
(136,-8,o),
(372,-8,cs)
);
}
);
};
layerId = UUID0;
shapes = (
{
closed = 1;
nodes = (
(408,-8,o),
(455,-6,o),
(501,-1,c),
(501,33,l),
(457,29,o),
(405,26,o),
(371,26,cs),
(152,26,o),
(126,66,o),
(126,344,cs),
(126,610,l),
(98,558,o),
(90,475,o),
(90,344,cs),
(90,31,o),
(136,-8,o),
(372,-8,cs)
);
},
{
closed = 1;
nodes = (
(559,5,o),
(571,7,o),
(583,9,c),
(583,349,l),
(353,349,l),
(353,315,l),
(547,315,l),
(547,4,l)
);
},
{
closed = 1;
nodes = (
(211,661,o),
(282,662,o),
(402,662,cs),
(446,662,o),
(522,655,o),
(580,646,c),
(580,678,l),
(528,688,o),
(440,696,o),
(372,696,cs),
(279,696,o),
(215,689,o),
(172,662,c),
(172,613,l)
);
}
);
width = 683;
},
{
anchors = (
{
name = bottom;
pos = (356,0);
},
{
name = top;
pos = (356,688);
}
);
background = {
shapes = (
{
closed = 1;
nodes = (
(432,-8,o),
(539,1,o),
(614,13,c),
(614,414,l),
(344,414,l),
(344,263,l),
(410,263,l),
(410,156,l),
(395,156,o),
(374,155,o),
(367,155,cs),
(280,155,o),
(271,183,o),
(271,344,cs),
(271,525,o),
(276,529,o),
(432,529,cs),
(468,529,o),
(549,523,o),
(611,516,c),
(611,672,l),
(535,686,o),
(430,696,o),
(357,696,cs),
(98,696,o),
(42,620,o),
(42,344,cs),
(42,68,o),
(98,-8,o),
(357,-8,cs)
);
}
);
};
layerId = "4F93A97B-747D-4721-B098-38A63C534D7A";
shapes = (
{
closed = 1;
nodes = (
(363,-8,o),
(370,-8,o),
(376,-8,c),
(376,155,l),
(373,155,o),
(370,155,o),
(367,155,cs),
(280,155,o),
(271,183,o),
(271,344,cs),
(271,692,l),
(85,674,o),
(42,586,o),
(42,344,cs),
(42,68,o),
(98,-8,o),
(357,-8,cs)
);
},
{
closed = 1;
nodes = (
(477,-4,o),
(555,3,o),
(614,13,c),
(614,414,l),
(344,414,l),
(344,263,l),
(410,263,l),
(410,-7,l)
);
},
{
closed = 1;
nodes = (
(328,528,o),
(367,529,o),
(432,529,cs),
(468,529,o),
(549,523,o),
(611,516,c),
(611,672,l),
(535,686,o),
(430,696,o),
(357,696,cs),
(338,696,o),
(321,695,o),
(305,694,c),
(305,514,l)
);
}
);
width = 662;
},
{
anchors = (
{
name = bottom;
pos = (264,0);
},
{
name = top;
pos = (264,688);
}
);
background = {
shapes = (
{
closed = 1;
nodes = (
(313,-8,o),
(375,-1,o),
(423,9,c),
(423,349,l),
(255,349,l),
(255,315,l),
(387,315,l),
(387,38,l),
(360,31,o),
(309,26,o),
(268,26,cs),
(114,26,o),
(99,76,o),
(99,344,cs),
(99,649,o),
(129,662,o),
(291,662,cs),
(324,662,o),
(380,655,o),
(421,646,c),
(421,678,l),
(382,689,o),
(320,696,o),
(269,696,cs),
(97,696,o),
(63,646,o),
(63,344,cs),
(63,37,o),
(103,-8,o),
(269,-8,cs)
);
}
);
};
guides = (
{
angle = 90;
pos = (140,748);
},
{
angle = 90;
pos = (99,744);
},
{
angle = 90;
pos = (387,748);
},
{
angle = 90;
pos = (346,744);
}
);
layerId = "E6BBBBE7-ECAD-4929-840D-43673C7BDEAF";
shapes = (
{
closed = 1;
nodes = (
(291,-8,o),
(319,-6,o),
(346,-3,c),
(346,31,l),
(321,28,o),
(293,26,o),
(268,26,cs),
(114,26,o),
(99,76,o),
(99,344,cs),
(99,629,l),
(71,578,o),
(63,491,o),
(63,344,cs),
(63,37,o),
(103,-8,o),
(269,-8,cs)
);
},
{
closed = 1;
nodes = (
(399,4,o),
(411,7,o),
(423,9,c),
(423,349,l),
(255,349,l),
(255,315,l),
(387,315,l),
(387,2,l)
);
},
{
closed = 1;
nodes = (
(169,659,o),
(216,662,o),
(291,662,cs),
(324,662,o),
(380,655,o),
(421,646,c),
(421,678,l),
(382,689,o),
(320,696,o),
(269,696,cs),
(212,696,o),
(171,691,o),
(140,673,c),
(140,625,l)
);
}
);
width = 488;
},
{
anchors = (
{
name = bottom;
pos = (268,0);
},
{
name = top;
pos = (276,688);
}
);
background = {
shapes = (
{
closed = 1;
nodes = (
(327,-8,o),
(407,1,o),
(458,14,c),
(458,413,l),
(256,413,l),
(256,272,l),
(299,272,l),
(299,137,l),
(291,136,o),
(281,135,o),
(271,135,cs),
(220,135,o),
(207,135,o),
(207,344,cs),
(207,548,o),
(217,548,o),
(326,548,cs),
(349,548,o),
(392,545,o),
(456,538,c),
(456,675,l),
(404,687,o),
(328,696,o),
(276,696,cs),
(77,696,o),
(30,630,o),
(30,344,cs),
(30,60,o),
(73,-8,o),
(264,-8,cs)
);
}
);
};
guides = (
{
angle = 90;
pos = (231,795);
},
{
angle = 90;
pos = (207,794);
},
{
angle = 90;
pos = (299,795);
},
{
angle = 90;
pos = (275,794);
}
);
layerId = "7836D3B9-397C-42C1-8084-A98A44B9119A";
shapes = (
{
closed = 1;
nodes = (
(268,-8,o),
(271,-8,o),
(275,-8,c),
(275,135,l),
(272,135,o),
(269,135,o),
(266,135,cs),
(221,135,o),
(207,135,o),
(207,344,cs),
(207,693,l),
(66,676,o),
(30,593,o),
(30,344,cs),
(30,60,o),
(73,-8,o),
(264,-8,cs)
);
},
{
closed = 1;
nodes = (
(355,-5,o),
(416,4,o),
(458,14,c),
(458,413,l),
(256,413,l),
(256,272,l),
(299,272,l),
(299,-7,l)
);
},
{
closed = 1;
nodes = (
(249,548,o),
(277,548,o),
(326,548,cs),
(349,548,o),
(392,545,o),
(456,538,c),
(456,675,l),
(404,687,o),
(328,696,o),
(276,696,cs),
(260,696,o),
(245,696,o),
(231,695,c),
(231,530,l)
);
}
);
width = 494;
},
{
anchors = (
{
name = bottom;
pos = (262,0);
},
{
name = top;
pos = (263,688);
}
);
background = {
shapes = (
{
closed = 1;
nodes = (
(316,-8,o),
(383,0,o),
(431,11,c),
(431,377,l),
(251,377,l),
(251,297,l),
(340,297,l),
(340,79,l),
(315,74,o),
(290,72,o),
(265,72,cs),
(158,72,o),
(143,109,o),
(143,344,cs),
(143,610,o),
(168,614,o),
(302,614,cs),
(332,614,o),
(374,609,o),
(429,600,c),
(429,676,l),
(388,688,o),
(320,696,o),
(268,696,cs),
(89,696,o),
(49,634,o),
(49,344,cs),
(49,53,o),
(88,-8,o),
(265,-8,cs)
);
}
);
};
guides = (
{
angle = 90;
pos = (178,746);
},
{
angle = 90;
pos = (143,744);
},
{
angle = 90;
pos = (340,746);
},
{
angle = 90;
pos = (305,744);
}
);
layerId = "374FF654-0B40-45EE-AE97-0DEB7620D1EC";
shapes = (
{
closed = 1;
nodes = (
(278,-8,o),
(291,-8,o),
(305,-7,c),
(305,74,l),
(292,73,o),
(278,72,o),
(265,72,cs),
(158,72,o),
(143,109,o),
(143,344,cs),
(143,676,l),
(69,639,o),
(49,548,o),
(49,344,cs),
(49,53,o),
(88,-8,o),
(265,-8,cs)
);
},
{
closed = 1;
nodes = (
(372,0,o),
(405,5,o),
(431,11,c),
(431,377,l),
(251,377,l),
(251,297,l),
(340,297,l),
(340,-4,l)
);
},
{
closed = 1;
nodes = (
(202,613,o),
(240,614,o),
(302,614,cs),
(332,614,o),
(374,609,o),
(429,600,c),
(429,676,l),
(388,688,o),
(320,696,o),
(268,696,cs),
(233,696,o),
(203,694,o),
(178,688,c),
(178,586,l)
);
}
);
width = 484;
},
{
anchors = (
{
name = bottom;
pos = (355,0);
},
{
name = top;
pos = (355,688);
}
);
layerId = "E7A95A6A-7487-49EE-B62A-BA87B06E4B57";
shapes = (
{
closed = 1;
nodes = (
(384,-8,o),
(406,-7,o),
(429,-6,c),
(429,99,l),
(410,98,o),
(389,97,o),
(369,97,cs),
(214,97,o),
(193,131,o),
(193,344,cs),
(193,673,l),
(91,635,o),
(65,541,o),
(65,344,cs),
(65,64,o),
(116,-8,o),
(365,-8,cs)
);
},
{
closed = 1;
nodes = (
(511,1,o),
(555,7,o),
(592,14,c),
(592,387,l),
(346,387,l),
(346,282,l),
(469,282,l),
(469,-3,l)
);
},
{
closed = 1;
nodes = (
(265,587,o),
(321,588,o),
(417,588,cs),
(452,588,o),
(519,582,o),
(589,573,c),
(589,674,l),
(523,687,o),
(431,696,o),
(365,696,cs),
(313,696,o),
(269,693,o),
(233,685,c),
(233,556,l)
);
}
);
width = 670;
},
{
anchors = (
{
name = bottom;
pos = (194,0);
},
{
name = top;
pos = (192,688);
}
);
background = {
shapes = (
{
closed = 1;
nodes = (
(220,-8,o),
(269,0,o),
(303,11,c),
(303,371,l),
(176,371,l),
(176,300,l),
(227,300,l),
(227,68,l),
(218,64,o),
(203,61,o),
(184,61,cs),
(114,61,o),
(108,99,o),
(108,344,cs),
(108,616,o),
(124,625,o),
(212,625,cs),
(231,625,o),
(269,619,o),
(303,612,c),
(303,678,l),
(273,690,o),
(226,696,o),
(189,696,cs),
(61,696,o),
(30,639,o),
(30,344,cs),
(30,47,o),
(60,-8,o),
(181,-8,cs)
);
}
);
};
guides = (
{
angle = 90;
pos = (108,744);
},
{
angle = 270;
pos = (138,746);
},
{
angle = 90;
pos = (197,744);
},
{
angle = 270;
pos = (227,746);
}
);
layerId = "487ADAF7-57C4-4091-879E-1D750F439591";
shapes = (
{
closed = 1;
nodes = (
(186,-8,o),
(192,-8,o),
(197,-8,c),
(197,62,l),
(193,61,o),
(189,61,o),
(184,61,cs),
(114,61,o),
(108,99,o),
(108,344,cs),
(108,682,l),
(47,651,o),
(30,563,o),
(30,344,cs),
(30,47,o),
(60,-8,o),
(181,-8,cs)
);
},
{
closed = 1;
nodes = (
(254,-2,o),
(282,4,o),
(303,11,c),
(303,371,l),
(176,371,l),
(176,300,l),
(227,300,l),
(227,-5,l)
);
},
{
closed = 1;
nodes = (
(153,624,o),
(177,625,o),
(212,625,cs),
(231,625,o),
(269,619,o),
(303,612,c),
(303,678,l),
(273,690,o),
(226,696,o),
(189,696,cs),
(170,696,o),
(153,695,o),
(138,692,c),
(138,605,l)
);
}
);
width = 331;
},
{
anchors = (
{
name = bottom;
pos = (192,0);
},
{
name = top;
pos = (188,688);
}
);
background = {
shapes = (
{
closed = 1;
nodes = (
(232,-8,o),
(288,1,o),
(318,14,c),
(318,411,l),
(177,411,l),
(177,284,l),
(198,284,l),
(198,114,l),
(200,114,o),
(198,113,o),
(185,113,cs),
(153,113,o),
(152,128,o),
(152,344,cs),
(152,568,o),
(164,570,o),
(232,570,cs),
(243,570,o),
(281,567,o),
(317,562,c),
(317,677,l),
(287,689,o),
(237,696,o),
(202,696,cs),
(60,696,o),
(19,634,o),
(19,344,cs),
(19,56,o),
(49,-8,o),
(181,-8,cs)
);
}
);
};
guides = (
{
angle = 270;
pos = (172,745);
},
{
angle = 90;
pos = (152,744);
},
{
angle = 270;
pos = (208,745);
},
{
angle = 90;
pos = (188,744);
}
);
layerId = "7674DAFD-136A-491A-A3F0-195DB056B53F";
shapes = (
{
closed = 1;
nodes = (
(183,-8,o),
(186,-8,o),
(188,-8,c),
(188,113,l),
(186,113,o),
(184,113,o),
(181,113,cs),
(154,113,o),
(152,128,o),
(152,344,cs),
(152,693,l),
(50,676,o),
(19,596,o),
(19,344,cs),
(19,56,o),
(49,-8,o),
(181,-8,cs)
);
},
{
closed = 1;
nodes = (
(251,-5,o),
(293,3,o),
(318,14,c),
(318,411,l),
(177,411,l),
(177,284,l),
(208,284,l),
(208,-7,l)
);
},
{
closed = 1;
nodes = (
(184,570,o),
(203,570,o),
(232,570,cs),
(243,570,o),
(281,567,o),
(317,562,c),
(317,677,l),
(287,689,o),
(237,696,o),
(202,696,cs),
(191,696,o),
(181,696,o),
(172,695,c),
(172,552,l)
);
}
);
width = 343;
},
{
anchors = (
{
name = bottom;
pos = (183,0);
},
{
name = top;
pos = (176,688);
}
);
background = {
shapes = (
{
closed = 1;
nodes = (
(209,-8,o),
(250,-1,o),
(283,9,c),
(283,349,l),
(169,349,l),
(169,315,l),
(247,315,l),
(247,38,l),
(232,31,o),
(204,26,o),
(178,26,cs),
(86,26,o),
(76,78,o),
(76,344,cs),
(76,647,o),
(95,662,o),
(194,662,cs),
(216,662,o),
(254,655,o),
(282,646,c),
(282,678,l),
(254,689,o),
(212,696,o),
(179,696,cs),
(62,696,o),
(40,638,o),
(40,344,cs),
(40,43,o),
(69,-8,o),
(179,-8,cs)
);
}
);
};
guides = (
{
angle = 90;
pos = (76,757);
},
{
angle = 90;
pos = (112,757);
},
{
angle = 90;
pos = (211,757);
},
{
angle = 90;
pos = (247,757);
}
);
layerId = "B5B62657-8F5D-48EE-9125-14A639410D02";
shapes = (
{
closed = 1;
nodes = (
(189,-8,o),
(200,-7,o),
(211,-6,c),
(211,28,l),
(200,27,o),
(189,26,o),
(178,26,cs),
(86,26,o),
(76,78,o),
(76,344,cs),
(76,652,l),
(47,605,o),
(40,514,o),
(40,344,cs),
(40,43,o),
(69,-8,o),
(179,-8,cs)
);
},
{
closed = 1;
nodes = (
(259,2,o),
(272,5,o),
(283,9,c),
(283,349,l),
(169,349,l),
(169,315,l),
(247,315,l),
(247,0,l)
);
},
{
closed = 1;
nodes = (
(130,660,o),
(156,662,o),
(194,662,cs),
(216,662,o),
(254,655,o),
(282,646,c),
(282,678,l),
(254,689,o),
(212,696,o),
(179,696,cs),
(152,696,o),
(130,693,o),
(112,685,c),
(112,640,l)
);
}
);
width = 315;
},
{
anchors = (
{
name = bottom;
pos = (419,0);
},
{
name = top;
pos = (410,688);
}
);
background = {
shapes = (
{
closed = 1;
nodes = (
(496,-8,o),
(618,1,o),
(708,12,c),
(708,415,l),
(397,415,l),
(397,258,l),
(477,258,l),
(477,168,l),
(457,168,o),
(430,167,o),
(425,167,cs),
(321,167,o),
(309,199,o),
(309,344,cs),
(309,512,o),
(312,518,o),
(496,518,cs),
(539,518,o),
(634,511,o),
(704,503,c),
(704,670,l),
(614,685,o),
(491,696,o),
(406,696,cs),
(112,696,o),
(49,616,o),
(49,344,cs),
(49,71,o),
(114,-8,o),
(413,-8,cs)
);
}
);
};
guides = (
{
angle = 90;
pos = (309,744);
},
{
angle = 270;
pos = (348,745);
},
{
angle = 90;
pos = (438,744);
},
{
angle = 270;
pos = (477,745);
}
);
layerId = "8EBCA172-37CB-4E59-A5FF-33FE92477777";
shapes = (
{
closed = 1;
nodes = (
(421,-8,o),
(430,-8,o),
(438,-8,c),
(438,167,l),
(432,167,o),
(427,167,o),
(425,167,cs),
(321,167,o),
(309,199,o),
(309,344,cs),
(309,692,l),
(98,674,o),
(49,583,o),
(49,344,cs),
(49,71,o),
(114,-8,o),
(413,-8,cs)
);
},
{
closed = 1;
nodes = (
(552,-4,o),
(639,4,o),
(708,12,c),
(708,415,l),
(397,415,l),
(397,258,l),
(477,258,l),
(477,-7,l)
);
},
{
closed = 1;
nodes = (
(375,517,o),
(420,518,o),
(496,518,cs),
(539,518,o),
(634,511,o),
(704,503,c),
(704,670,l),
(614,685,o),
(491,696,o),
(406,696,cs),
(386,696,o),
(366,696,o),
(348,695,c),
(348,504,l)
);
}
);
width = 763;
},
{
anchors = (
{
name = bottom;
pos = (412,0);
},
{
name = top;
pos = (412,688);
}
);
background = {
shapes = (
{
closed = 1;
nodes = (
(497,-8,o),
(604,2,o),
(687,14,c),
(687,382,l),
(406,382,l),
(406,282,l),
(568,282,l),
(568,97,l),
(540,95,o),
(479,92,o),
(432,92,cs),
(232,92,o),
(205,124,o),
(205,344,cs),
(205,591,o),
(247,593,o),
(482,593,cs),
(524,593,o),
(599,587,o),
(684,577,c),
(684,674,l),
(607,686,o),
(500,696,o),
(424,696,cs),
(142,696,o),
(80,626,o),
(80,344,cs),
(80,63,o),
(139,-8,o),
(427,-8,cs)
);
}
);
};
guides = (
{
angle = 90;
pos = (250,846);
},
{
angle = 90;
pos = (205,844);
},
{
angle = 90;
pos = (568,846);
},
{
angle = 90;
pos = (523,844);
}
);
layerId = "C6199351-AF36-494D-BF00-13EB6406F65F";
shapes = (
{
closed = 1;
nodes = (
(454,-8,o),
(488,-6,o),
(523,-4,c),
(523,94,l),
(494,93,o),
(461,92,o),
(432,92,cs),
(232,92,o),
(205,124,o),
(205,344,cs),
(205,665,l),
(107,623,o),
(80,529,o),
(80,344,cs),
(80,63,o),
(139,-8,o),
(427,-8,cs)
);
},
{
closed = 1;
nodes = (
(609,4,o),
(651,9,o),
(687,14,c),
(687,382,l),
(406,382,l),
(406,282,l),
(568,282,l),
(568,0,l)
);
},
{
closed = 1;
nodes = (
(289,592,o),
(359,593,o),
(482,593,cs),
(524,593,o),
(599,587,o),
(684,577,c),
(684,674,l),
(607,686,o),
(500,696,o),
(424,696,cs),
(353,696,o),
(296,692,o),
(250,680,c),
(250,556,l)
);
}
);
width = 784;
},
{
anchors = (
{
name = bottom;
pos = (410,0);
},
{
name = top;
pos = (419,688);
}
);
background = {
shapes = (
{
closed = 1;
nodes = (
(503,-8,o),
(605,-1,o),
(679,9,c),
(679,349,l),
(412,349,l),
(412,315,l),
(643,315,l),
(643,38,l),
(588,33,o),
(487,26,o),
(433,26,cs),
(173,26,o),
(142,62,o),
(142,344,cs),
(142,663,o),
(203,662,o),
(469,662,cs),
(519,662,o),
(607,655,o),
(675,646,c),
(675,678,l),
(616,687,o),
(513,696,o),
(434,696,cs),
(164,696,o),
(106,663,o),
(106,344,cs),
(106,27,o),
(158,-8,o),
(434,-8,cs)
);
}
);
};
guides = (
{
angle = 90;
pos = (193,848);
},
{
angle = 90;
pos = (142,844);
},
{
angle = 90;
pos = (643,848);
},
{
angle = 90;
pos = (592,844);
}
);
layerId = "E7639064-56EC-4BF1-BEDD-A20273C7A444";
shapes = (
{
closed = 1;
nodes = (
(478,-8,o),
(537,-5,o),
(592,0,c),
(592,34,l),
(539,30,o),
(473,26,o),
(433,26,cs),
(173,26,o),
(142,62,o),
(142,344,cs),
(142,602,l),
(115,549,o),
(106,468,o),
(106,344,cs),
(106,27,o),
(158,-8,o),
(434,-8,cs)
);
},
{
closed = 1;
nodes = (
(655,6,o),
(668,7,o),
(679,9,c),
(679,349,l),
(412,349,l),
(412,315,l),
(643,315,l),
(643,4,l)
);
},
{
closed = 1;
nodes = (
(239,662,o),
(323,662,o),
(469,662,cs),
(519,662,o),
(607,655,o),
(675,646,c),
(675,678,l),
(616,687,o),
(513,696,o),
(434,696,cs),
(319,696,o),
(243,690,o),
(193,659,c),
(193,610,l)
);
}
);
width = 800;
}
);
unicode = 71;
},
{
glyphname = H;
kernLeft = H;
kernRight = H;
layers = (
{
anchors = (
{
name = bottom;
pos = (369,0);
},
{
name = center;
pos = (369,510);
},
{
name = top;
pos = (369,688);
},
{
name = topleft;
pos = (115,688);
}
);
background = {
shapes = (
{
closed = 1;
nodes = (
(1051,0,l),
(1051,331,l),
(1487,331,l),
(1487,0,l),
(1523,0,l),
(1523,688,l),
(1487,688,l),
(1487,365,l),
(1051,365,l),
(1051,688,l),
(1015,688,l),
(1015,0,l)
);
},
{
closed = 1;
nodes = (
(525,297,l),
(525,0,l),
(637,0,l),
(637,688,l),
(525,688,l),
(525,396,l),
(248,396,l),
(248,297,l)
);
},
{
closed = 1;
nodes = (
(92,0,l),
(205,0,l),
(205,688,l),
(92,688,l)
);
}
);
};
guides = (
{
angle = 90;
pos = (197,748);
},
{
angle = 90;
pos = (151,744);
}
);
layerId = UUID0;
shapes = (
{
closed = 1;
nodes = (
(623,0,l),
(623,688,l),
(587,688,l),
(587,365,l),
(197,365,l),
(197,331,l),
(587,331,l),
(587,0,l)
);
},
{
closed = 1;
nodes = (
(151,0,l),
(151,688,l),
(115,688,l),
(115,0,l)
);
}
);
width = 738;
},
{
anchors = (
{
name = bottom;
pos = (349,0);
},
{
name = center;
pos = (349,510);
},
{
name = top;
pos = (349,688);
},
{
name = topleft;
pos = (51,688);
}
);
background = {
shapes = (
{
closed = 1;
nodes = (
(285,0,l),
(285,251,l),
(412,251,l),
(412,0,l),
(646,0,l),
(646,688,l),
(412,688,l),
(412,438,l),
(285,438,l),
(285,688,l),
(51,688,l),
(51,0,l)
);
}
);
};
guides = (
{
angle = 90;
pos = (285,744);
},
{
angle = 270;
pos = (319,745);
}
);
layerId = "4F93A97B-747D-4721-B098-38A63C534D7A";
shapes = (
{
closed = 1;
nodes = (
(646,0,l),
(646,688,l),
(412,688,l),
(412,438,l),
(319,438,l),
(319,251,l),
(412,251,l),
(412,0,l)
);
},
{
closed = 1;
nodes = (
(285,0,l),
(285,688,l),
(51,688,l),
(51,0,l)
);
}
);
width = 697;
},
{
anchors = (
{
name = bottom;
pos = (267,0);
},
{
name = center;
pos = (267,510);
},
{
name = top;
pos = (267,688);
},
{
name = topleft;
pos = (81,688);
}
);
background = {
shapes = (
{
closed = 1;
nodes = (
(117,0,l),
(117,331,l),
(416,331,l),
(416,0,l),
(452,0,l),
(452,688,l),
(416,688,l),
(416,365,l),
(117,365,l),
(117,688,l),
(81,688,l),
(81,0,l)
);
}
);
};
guides = (
{
angle = 90;
pos = (158,748);
},
{
angle = 90;
pos = (117,744);
}
);
layerId = "E6BBBBE7-ECAD-4929-840D-43673C7BDEAF";
shapes = (
{
closed = 1;
nodes = (
(452,0,l),
(452,688,l),
(416,688,l),
(416,365,l),
(158,365,l),
(158,331,l),
(416,331,l),
(416,0,l)
);
},
{
closed = 1;
nodes = (
(117,0,l),
(117,688,l),
(81,688,l),
(81,0,l)
);
}
);
width = 534;
},
{
anchors = (
{
name = bottom;
pos = (260,0);
},
{
name = center;
pos = (260,510);
},
{
name = top;
pos = (260,688);
},
{
name = topleft;
pos = (40,688);
}
);
guides = (
{
angle = 90;
pos = (244,795);
},
{
angle = 90;
pos = (220,794);
}
);
layerId = "7836D3B9-397C-42C1-8084-A98A44B9119A";
shapes = (
{
closed = 1;
nodes = (
(480,0,l),
(480,688,l),
(300,688,l),
(300,426,l),
(244,426,l),
(244,266,l),
(300,266,l),
(300,0,l)
);
},
{
closed = 1;
nodes = (
(220,0,l),
(220,688,l),
(40,688,l),
(40,0,l)
);
}
);
width = 520;
},
{
anchors = (
{
name = bottom;
pos = (262,0);
},
{
name = center;
pos = (262,510);
},
{
name = top;
pos = (262,688);
},
{
name = topleft;
pos = (64,688);
}
);
guides = (
{
angle = 90;
pos = (193,746);
},
{
angle = 90;
pos = (158,744);
}
);
layerId = "374FF654-0B40-45EE-AE97-0DEB7620D1EC";
shapes = (
{
closed = 1;
nodes = (
(460,0,l),
(460,688,l),
(365,688,l),
(365,390,l),
(193,390,l),
(193,304,l),
(365,304,l),
(365,0,l)
);
},
{
closed = 1;
nodes = (
(158,0,l),
(158,688,l),
(64,688,l),
(64,0,l)
);
}
);
width = 523;
},
{
anchors = (
{
name = bottom;
pos = (363,0);
},
{
name = center;
pos = (363,510);
},
{
name = top;
pos = (363,688);
},
{
name = topleft;
pos = (87,688);
}
);
background = {
shapes = (
{
closed = 1;
nodes = (
(215,0,l),
(215,290,l),
(511,290,l),
(511,0,l),
(639,0,l),
(639,688,l),
(511,688,l),
(511,402,l),
(215,402,l),
(215,688,l),
(87,688,l),
(87,0,l)
);
}
);
};
guides = (
{
angle = 90;
pos = (255,746);
},
{
angle = 90;
pos = (215,744);
}
);
layerId = "E7A95A6A-7487-49EE-B62A-BA87B06E4B57";
shapes = (
{
closed = 1;
nodes = (
(639,0,l),
(639,688,l),
(511,688,l),
(511,402,l),
(255,402,l),
(255,290,l),
(511,290,l),
(511,0,l)
);
},
{
closed = 1;
nodes = (
(215,0,l),
(215,688,l),
(87,688,l),
(87,0,l)
);
}
);
width = 726;
},
{
anchors = (
{
name = bottom;
pos = (182,0);
},
{
name = center;
pos = (182,344);
},
{
name = top;
pos = (182,688);
},
{
name = topleft;
pos = (44,688);
}
);
background = {
shapes = (
{
closed = 1;
nodes = (
(122,0,l),
(122,310,l),
(241,310,l),
(241,0,l),
(319,0,l),
(319,688,l),
(241,688,l),
(241,386,l),
(122,386,l),
(122,688,l),
(44,688,l),
(44,0,l)
);
}
);
};
guides = (
{
angle = 90;
pos = (122,744);
},
{
angle = 270;
pos = (152,746);
}
);
layerId = "487ADAF7-57C4-4091-879E-1D750F439591";
shapes = (
{
closed = 1;
nodes = (
(319,0,l),
(319,688,l),
(241,688,l),
(241,386,l),
(152,386,l),
(152,310,l),
(241,310,l),
(241,0,l)
);
},
{
closed = 1;
nodes = (
(122,0,l),
(122,688,l),
(44,688,l),
(44,0,l)
);
}
);
width = 363;
},
{
anchors = (
{
name = bottom;
pos = (181,0);
},
{
name = center;
pos = (181,344);
},
{
name = top;
pos = (181,688);
},
{
name = topleft;
pos = (29,688);
}
);
guides = (
{
angle = 270;
pos = (182,745);
},
{
angle = 90;
pos = (162,744);
}
);
layerId = "7674DAFD-136A-491A-A3F0-195DB056B53F";
shapes = (
{
closed = 1;
nodes = (
(332,0,l),
(332,688,l),
(199,688,l),
(199,412,l),
(182,412,l),
(182,283,l),
(199,283,l),
(199,0,l)
);
},
{
closed = 1;
nodes = (
(162,0,l),
(162,688,l),
(29,688,l),
(29,0,l)
);
}
);
width = 362;
},
{
anchors = (
{
name = bottom;
pos = (177,0);
},
{
name = center;
pos = (177,344);
},
{
name = top;
pos = (177,688);
},
{
name = topleft;
pos = (52,688);
}
);
background = {
shapes = (
{
closed = 1;
nodes = (
(88,0,l),
(88,331,l),
(267,331,l),
(267,0,l),
(303,0,l),
(303,688,l),
(267,688,l),
(267,365,l),
(88,365,l),
(88,688,l),
(52,688,l),
(52,0,l)
);
}
);
};
guides = (
{
angle = 90;
pos = (88,757);
},
{
angle = 90;
pos = (124,757);
}
);
layerId = "B5B62657-8F5D-48EE-9125-14A639410D02";
shapes = (
{
closed = 1;
nodes = (
(303,0,l),
(303,688,l),
(267,688,l),
(267,365,l),
(124,365,l),
(124,331,l),
(267,331,l),
(267,0,l)
);
},
{
closed = 1;
nodes = (
(88,0,l),
(88,688,l),
(52,688,l),
(52,0,l)
);
}
);
width = 354;
},
{
anchors = (
{
name = bottom;
pos = (402,0);
},
{
name = center;
pos = (402,344);
},
{
name = top;
pos = (402,688);
},
{
name = topleft;
pos = (58,688);
}
);
guides = (
{
angle = 90;
pos = (324,744);
},
{
angle = 270;
pos = (363,745);
}
);
layerId = "8EBCA172-37CB-4E59-A5FF-33FE92477777";
shapes = (
{
closed = 1;
nodes = (
(745,0,l),
(745,688,l),
(479,688,l),
(479,445,l),
(363,445,l),
(363,242,l),
(479,242,l),
(479,0,l)
);
},
{
closed = 1;
nodes = (
(324,0,l),
(324,688,l),
(58,688,l),
(58,0,l)
);
}
);
width = 803;
},
{
anchors = (
{
name = bottom;
pos = (425,0);
},
{
name = center;
pos = (425,344);
},
{
name = top;
pos = (425,688);
},
{
name = topleft;
pos = (108,688);
}
);
guides = (
{
angle = 90;
pos = (278,796);
},
{
angle = 90;
pos = (233,794);
}
);
layerId = "C6199351-AF36-494D-BF00-13EB6406F65F";
shapes = (
{
closed = 1;
nodes = (
(741,0,l),
(741,688,l),
(618,688,l),
(618,399,l),
(278,399,l),
(278,293,l),
(618,293,l),
(618,0,l)
);
},
{
closed = 1;
nodes = (
(233,0,l),
(233,688,l),
(108,688,l),
(108,0,l)
);
}
);
width = 850;
},
{
anchors = (
{
name = bottom;
pos = (430,0);
},
{
name = center;
pos = (430,344);
},
{
name = top;
pos = (430,688);
},
{
name = topleft;
pos = (135,688);
}
);
background = {
shapes = (
{
closed = 1;
nodes = (
(171,0,l),
(171,331,l),
(690,331,l),
(690,0,l),
(726,0,l),
(726,688,l),
(690,688,l),
(690,365,l),
(171,365,l),
(171,688,l),
(135,688,l),
(135,0,l)
);
}
);
};
guides = (
{
angle = 90;
pos = (222,798);
},
{
angle = 90;
pos = (171,794);
}
);
layerId = "E7639064-56EC-4BF1-BEDD-A20273C7A444";
shapes = (
{
closed = 1;
nodes = (
(726,0,l),
(726,688,l),
(690,688,l),
(690,365,l),
(222,365,l),
(222,331,l),
(690,331,l),
(690,0,l)
);
},
{
closed = 1;
nodes = (
(171,0,l),
(171,688,l),
(135,688,l),
(135,0,l)
);
}
);
width = 860;
}
);
unicode = 72;
},
{
glyphname = Hbar;
kernLeft = H;
kernRight = H;
layers = (
{
background = {
shapes = (
{
closed = 1;
nodes = (
(151,0,l),
(151,311,l),
(587,311,l),
(587,0,l),
(623,0,l),
(623,688,l),
(587,688,l),
(587,530,l),
(151,530,l),
(151,688,l),
(115,688,l),
(115,0,l)
);
},
{
closed = 1;
nodes = (
(151,496,l),
(587,496,l),
(587,345,l),
(151,345,l)
);
}
);
};
layerId = UUID0;
shapes = (
{
closed = 1;
nodes = (
(151,0,l),
(151,497,l),
(587,497,l),
(587,345,l),
(197,345,l),
(197,311,l),
(587,311,l),
(587,0,l),
(623,0,l),
(623,688,l),
(587,688,l),
(587,527,l),
(151,527,l),
(151,688,l),
(115,688,l),
(115,0,l)
);
}
);
width = 738;
},
{
background = {
shapes = (
{
closed = 1;
nodes = (
(215,0,l),
(215,250,l),
(511,250,l),
(511,0,l),
(639,0,l),
(639,688,l),
(511,688,l),
(511,570,l),
(215,570,l),
(215,688,l),
(87,688,l),
(87,0,l)
);
},
{
closed = 1;
nodes = (
(215,472,l),
(511,472,l),
(511,362,l),
(215,362,l)
);
}
);
};
layerId = "E7A95A6A-7487-49EE-B62A-BA87B06E4B57";
shapes = (
{
closed = 1;
nodes = (
(215,0,l),
(215,480,l),
(511,480,l),
(511,362,l),
(255,362,l),
(255,250,l),
(511,250,l),
(511,0,l),
(639,0,l),
(639,688,l),
(511,688,l),
(511,560,l),
(215,560,l),
(215,688,l),
(87,688,l),
(87,0,l)
);
}
);
width = 726;
},
{
background = {
shapes = (
{
closed = 1;
nodes = (
(285,0,l),
(285,211,l),
(412,211,l),
(412,0,l),
(646,0,l),
(646,688,l),
(412,688,l),
(412,611,l),
(285,611,l),
(285,688,l),
(51,688,l),
(51,0,l)
);
},
{
closed = 1;
nodes = (
(285,474,l),
(412,474,l),
(412,398,l),
(285,398,l)
);
}
);
};
layerId = "4F93A97B-747D-4721-B098-38A63C534D7A";
shapes = (
{
closed = 1;
nodes = (
(285,0,l),
(285,481,l),
(412,481,l),
(412,398,l),
(320,398,l),
(320,211,l),
(412,211,l),
(412,0,l),
(646,0,l),
(646,688,l),
(412,688,l),
(412,591,l),
(285,591,l),
(285,688,l),
(51,688,l),
(51,0,l)
);
}
);
width = 697;
},
{
background = {
shapes = (
{
closed = 1;
nodes = (
(117,0,l),
(117,311,l),
(416,311,l),
(416,0,l),
(452,0,l),
(452,688,l),
(416,688,l),
(416,529,l),
(117,529,l),
(117,688,l),
(81,688,l),
(81,0,l)
);
},
{
closed = 1;
nodes = (
(117,495,l),
(416,495,l),
(416,345,l),
(117,345,l)
);
}
);
};
guides = (
{
angle = 90;
pos = (158,748);
},
{
angle = 90;
pos = (117,744);
}
);
layerId = "E6BBBBE7-ECAD-4929-840D-43673C7BDEAF";
shapes = (
{
closed = 1;
nodes = (
(117,0,l),
(117,497,l),
(416,497,l),
(416,345,l),
(158,345,l),
(158,311,l),
(416,311,l),
(416,0,l),
(452,0,l),
(452,688,l),
(416,688,l),
(416,527,l),
(117,527,l),
(117,688,l),
(81,688,l),
(81,0,l)
);
}
);
width = 534;
},
{
background = {
shapes = (
{
closed = 1;
nodes = (
(158,0,l),
(158,272,l),
(365,272,l),
(365,0,l),
(460,0,l),
(460,688,l),
(365,688,l),
(365,558,l),
(158,558,l),
(158,688,l),
(64,688,l),
(64,0,l)
);
},
{
closed = 1;
nodes = (
(158,480,l),
(365,480,l),
(365,357,l),
(158,357,l)
);
}
);
};
guides = (
{
angle = 90;
pos = (193,746);
},
{
angle = 90;
pos = (158,744);
}
);
layerId = "374FF654-0B40-45EE-AE97-0DEB7620D1EC";
shapes = (
{
closed = 1;
nodes = (
(158,0,l),
(158,491,l),
(365,491,l),
(365,357,l),
(193,357,l),
(193,272,l),
(365,272,l),
(365,0,l),
(460,0,l),
(460,688,l),
(365,688,l),
(365,558,l),
(158,558,l),
(158,688,l),
(64,688,l),
(64,0,l)
);
}
);
width = 523;
},
{
background = {
shapes = (
{
closed = 1;
nodes = (
(220,0,l),
(220,226,l),
(300,226,l),
(300,0,l),
(480,0,l),
(480,688,l),
(300,688,l),
(300,612,l),
(220,612,l),
(220,688,l),
(40,688,l),
(40,0,l)
);
},
{
closed = 1;
nodes = (
(220,473,l),
(300,473,l),
(300,386,l),
(220,386,l)
);
}
);
};
guides = (
{
angle = 90;
pos = (244,795);
},
{
angle = 90;
pos = (220,794);
}
);
layerId = "7836D3B9-397C-42C1-8084-A98A44B9119A";
shapes = (
{
closed = 1;
nodes = (
(220,0,l),
(220,496,l),
(300,496,l),
(300,386,l),
(244,386,l),
(244,226,l),
(300,226,l),
(300,0,l),
(480,0,l),
(480,688,l),
(300,688,l),
(300,592,l),
(220,592,l),
(220,688,l),
(40,688,l),
(40,0,l)
);
}
);
width = 520;
},
{
background = {
shapes = (
{
closed = 1;
nodes = (
(122,0,l),
(122,286,l),
(241,286,l),
(241,0,l),
(319,0,l),
(319,688,l),
(241,688,l),
(241,549,l),
(122,549,l),
(122,688,l),
(44,688,l),
(44,0,l)
);
},
{
closed = 1;
nodes = (
(122,497,l),
(241,497,l),
(241,362,l),
(122,362,l)
);
}
);
};
guides = (
{
angle = 90;
pos = (122,744);
},
{
angle = 270;
pos = (152,746);
}
);
layerId = "487ADAF7-57C4-4091-879E-1D750F439591";
shapes = (
{
closed = 1;
nodes = (
(122,0,l),
(122,495,l),
(241,495,l),
(241,362,l),
(152,362,l),
(152,286,l),
(241,286,l),
(241,0,l),
(319,0,l),
(319,688,l),
(241,688,l),
(241,549,l),
(122,549,l),
(122,688,l),
(44,688,l),
(44,0,l)
);
}
);
width = 361;
},
{
background = {
shapes = (
{
closed = 1;
nodes = (
(162,0,l),
(162,243,l),
(199,243,l),
(199,0,l),
(332,0,l),
(332,688,l),
(199,688,l),
(199,577,l),
(162,577,l),
(162,688,l),
(29,688,l),
(29,0,l)
);
},
{
closed = 1;
nodes = (
(162,513,l),
(199,513,l),
(199,372,l),
(162,372,l)
);
}
);
};
guides = (
{
angle = 270;
pos = (182,745);
},
{
angle = 90;
pos = (162,744);
}
);
layerId = "7674DAFD-136A-491A-A3F0-195DB056B53F";
shapes = (
{
closed = 1;
nodes = (
(162,0,l),
(162,498,l),
(199,498,l),
(199,372,l),
(182,372,l),
(182,243,l),
(199,243,l),
(199,0,l),
(332,0,l),
(332,688,l),
(199,688,l),
(199,577,l),
(162,577,l),
(162,688,l),
(29,688,l),
(29,0,l)
);
}
);
width = 362;
},
{
background = {
shapes = (
{
closed = 1;
nodes = (
(88,0,l),
(88,311,l),
(267,311,l),
(267,0,l),
(303,0,l),
(303,688,l),
(267,688,l),
(267,529,l),
(88,529,l),
(88,688,l),
(52,688,l),
(52,0,l)
);
},
{
closed = 1;
nodes = (
(88,495,l),
(267,495,l),
(267,345,l),
(88,345,l)
);
}
);
};
guides = (
{
angle = 90;
pos = (88,757);
},
{
angle = 90;
pos = (124,757);
}
);
layerId = "B5B62657-8F5D-48EE-9125-14A639410D02";
shapes = (
{
closed = 1;
nodes = (
(88,0,l),
(88,497,l),
(267,497,l),
(267,345,l),
(124,345,l),
(124,311,l),
(267,311,l),
(267,0,l),
(303,0,l),
(303,688,l),
(267,688,l),
(267,527,l),
(88,527,l),
(88,688,l),
(52,688,l),
(52,0,l)
);
}
);
width = 354;
},
{
background = {
shapes = (
{
closed = 1;
nodes = (
(324,0,l),
(324,202,l),
(479,202,l),
(479,0,l),
(745,0,l),
(745,688,l),
(479,688,l),
(479,592,l),
(324,592,l),
(324,688,l),
(58,688,l),
(58,0,l)
);
},
{
closed = 1;
nodes = (
(324,492,l),
(479,492,l),
(479,405,l),
(324,405,l)
);
}
);
};
guides = (
{
angle = 90;
pos = (324,744);
},
{
angle = 270;
pos = (363,745);
}
);
layerId = "8EBCA172-37CB-4E59-A5FF-33FE92477777";
shapes = (
{
closed = 1;
nodes = (
(324,0,l),
(324,482,l),
(479,482,l),
(479,405,l),
(363,405,l),
(363,202,l),
(479,202,l),
(479,0,l),
(745,0,l),
(745,688,l),
(479,688,l),
(479,592,l),
(324,592,l),
(324,688,l),
(58,688,l),
(58,0,l)
);
}
);
width = 803;
},
{
background = {
shapes = (
{
closed = 1;
nodes = (
(233,0,l),
(233,255,l),
(618,255,l),
(618,0,l),
(741,0,l),
(741,688,l),
(618,688,l),
(618,565,l),
(233,565,l),
(233,688,l),
(108,688,l),
(108,0,l)
);
},
{
closed = 1;
nodes = (
(233,475,l),
(618,475,l),
(618,361,l),
(233,361,l)
);
}
);
};
guides = (
{
angle = 90;
pos = (278,846);
},
{
angle = 90;
pos = (233,844);
}
);
layerId = "C6199351-AF36-494D-BF00-13EB6406F65F";
shapes = (
{
closed = 1;
nodes = (
(233,0,l),
(233,485,l),
(618,485,l),
(618,361,l),
(278,361,l),
(278,255,l),
(618,255,l),
(618,0,l),
(741,0,l),
(741,688,l),
(618,688,l),
(618,565,l),
(233,565,l),
(233,688,l),
(108,688,l),
(108,0,l)
);
}
);
width = 850;
},
{
background = {
shapes = (
{
closed = 1;
nodes = (
(171,0,l),
(171,311,l),
(690,311,l),
(690,0,l),
(726,0,l),
(726,688,l),
(690,688,l),
(690,528,l),
(171,528,l),
(171,688,l),
(135,688,l),
(135,0,l)
);
},
{
closed = 1;
nodes = (
(171,494,l),
(690,494,l),
(690,345,l),
(171,345,l)
);
}
);
};
guides = (
{
angle = 90;
pos = (222,848);
},
{
angle = 90;
pos = (171,844);
}
);
layerId = "E7639064-56EC-4BF1-BEDD-A20273C7A444";
shapes = (
{
closed = 1;
nodes = (
(171,0,l),
(171,496,l),
(690,496,l),
(690,345,l),
(222,345,l),
(222,311,l),
(690,311,l),
(690,0,l),
(726,0,l),
(726,688,l),
(690,688,l),
(690,526,l),
(171,526,l),
(171,688,l),
(135,688,l),
(135,0,l)
);
}
);
width = 860;
}
);
unicode = 294;
},
{
glyphname = I;
kernLeft = H;
kernRight = H;
layers = (
{
anchors = (
{
name = bottom;
pos = (133,0);
},
{
name = ogonek;
pos = (151,0);
},
{
name = top;
pos = (133,688);
},
{
name = topleft;
pos = (115,688);
}
);
layerId = UUID0;
shapes = (
{
closed = 1;
nodes = (
(151,0,l),
(151,688,l),
(115,688,l),
(115,0,l)
);
}
);
width = 266;
},
{
anchors = (
{
name = bottom;
pos = (168,0);
},
{
name = ogonek;
pos = (285,0);
},
{
name = top;
pos = (168,688);
},
{
name = topleft;
pos = (51,688);
}
);
layerId = "4F93A97B-747D-4721-B098-38A63C534D7A";
shapes = (
{
closed = 1;
nodes = (
(285,0,l),
(285,688,l),
(51,688,l),
(51,0,l)
);
}
);
width = 336;
},
{
anchors = (
{
name = bottom;
pos = (103,0);
},
{
name = ogonek;
pos = (121,0);
},
{
name = top;
pos = (103,688);
},
{
name = topleft;
pos = (85,688);
}
);
layerId = "E6BBBBE7-ECAD-4929-840D-43673C7BDEAF";
shapes = (
{
closed = 1;
nodes = (
(121,0,l),
(121,688,l),
(85,688,l),
(85,0,l)
);
}
);
width = 206;
},
{
anchors = (
{
name = bottom;
pos = (130,0);
},
{
name = ogonek;
pos = (220,0);
},
{
name = top;
pos = (130,688);
},
{
name = topleft;
pos = (40,688);
}
);
layerId = "7836D3B9-397C-42C1-8084-A98A44B9119A";
shapes = (
{
closed = 1;
nodes = (
(220,0,l),
(220,688,l),
(40,688,l),
(40,0,l)
);
}
);
width = 260;
},
{
anchors = (
{
name = bottom;
pos = (113,0);
},
{
name = ogonek;
pos = (161,0);
},
{
name = top;
pos = (113,688);
},
{
name = topleft;
pos = (66,688);
}
);
layerId = "374FF654-0B40-45EE-AE97-0DEB7620D1EC";
shapes = (
{
closed = 1;
nodes = (
(161,0,l),
(161,688,l),
(66,688,l),
(66,0,l)
);
}
);
width = 227;
},
{
anchors = (
{
name = bottom;
pos = (151,0);
},
{
name = ogonek;
pos = (215,0);
},
{
name = top;
pos = (151,688);
},
{
name = topleft;
pos = (87,688);
}
);
layerId = "E7A95A6A-7487-49EE-B62A-BA87B06E4B57";
shapes = (
{
closed = 1;
nodes = (
(215,0,l),
(215,688,l),
(87,688,l),
(87,0,l)
);
}
);
width = 302;
},
{
anchors = (
{
name = bottom;
pos = (85,0);
},
{
name = ogonek;
pos = (124,0);
},
{
name = top;
pos = (85,688);
},
{
name = topleft;
pos = (46,688);
}
);
layerId = "487ADAF7-57C4-4091-879E-1D750F439591";
shapes = (
{
closed = 1;
nodes = (
(124,0,l),
(124,688,l),
(46,688,l),
(46,0,l)
);
}
);
width = 170;
},
{
anchors = (
{
name = bottom;
pos = (96,0);
},
{
name = ogonek;
pos = (162,0);
},
{
name = top;
pos = (96,688);
},
{
name = topleft;
pos = (29,688);
}
);
layerId = "7674DAFD-136A-491A-A3F0-195DB056B53F";
shapes = (
{
closed = 1;
nodes = (
(162,0,l),
(162,688,l),
(29,688,l),
(29,0,l)
);
}
);
width = 192;
},
{
anchors = (
{
name = bottom;
pos = (76,0);
},
{
name = ogonek;
pos = (94,0);
},
{
name = top;
pos = (76,688);
},
{
name = topleft;
pos = (58,688);
}
);
layerId = "B5B62657-8F5D-48EE-9125-14A639410D02";
shapes = (
{
closed = 1;
nodes = (
(94,0,l),
(94,688,l),
(58,688,l),
(58,0,l)
);
}
);
width = 152;
},
{
anchors = (
{
name = bottom;
pos = (191,0);
},
{
name = ogonek;
pos = (324,0);
},
{
name = top;
pos = (191,688);
},
{
name = topleft;
pos = (58,688);
}
);
layerId = "8EBCA172-37CB-4E59-A5FF-33FE92477777";
shapes = (
{
closed = 1;
nodes = (
(324,0,l),
(324,688,l),
(58,688,l),
(58,0,l)
);
}
);
width = 382;
},
{
anchors = (
{
name = bottom;
pos = (168,0);
},
{
name = ogonek;
pos = (231,0);
},
{
name = top;
pos = (168,688);
},
{
name = topleft;
pos = (106,688);
}
);
layerId = "C6199351-AF36-494D-BF00-13EB6406F65F";
shapes = (
{
closed = 1;
nodes = (
(231,0,l),
(231,688,l),
(106,688,l),
(106,0,l)
);
}
);
width = 336;
},
{
anchors = (
{
name = bottom;
pos = (151,0);
},
{
name = ogonek;
pos = (169,0);
},
{
name = top;
pos = (151,688);
},
{
name = topleft;
pos = (133,688);
}
);
layerId = "E7639064-56EC-4BF1-BEDD-A20273C7A444";
shapes = (
{
closed = 1;
nodes = (
(169,0,l),
(169,688,l),
(133,688,l),
(133,0,l)
);
}
);
width = 302;
}
);
unicode = 73;
},
{
glyphname = J;
kernLeft = J;
kernRight = U;
layers = (
{
anchors = (
{
name = bottom;
pos = (162,0);
},
{
name = top;
pos = (201,688);
}
);
layerId = UUID0;
shapes = (
{
closed = 1;
nodes = (
(212,3,o),
(219,13,o),
(219,264,cs),
(219,688,l),
(183,688,l),
(183,246,ls),
(183,42,o),
(180,38,o),
(40,34,c),
(40,0,l)
);
}
);
width = 324;
},
{
anchors = (
{
name = bottom;
pos = (219,0);
},
{
name = top;
pos = (270,688);
}
);
layerId = "4F93A97B-747D-4721-B098-38A63C534D7A";
shapes = (
{
closed = 1;
nodes = (
(373,0,o),
(387,13,o),
(387,328,cs),
(387,688,l),
(153,688,l),
(153,271,ls),
(153,163,o),
(148,158,o),
(18,158,c),
(18,0,l)
);
}
);
width = 438;
},
{
anchors = (
{
name = bottom;
pos = (89,0);
},
{
name = top;
pos = (132,688);
}
);
layerId = "E6BBBBE7-ECAD-4929-840D-43673C7BDEAF";
shapes = (
{
closed = 1;
nodes = (
(143,3,o),
(150,15,o),
(150,224,cs),
(150,688,l),
(114,688,l),
(114,226,ls),
(114,41,o),
(113,38,o),
(20,34,c),
(20,0,l)
);
}
);
width = 225;
},
{
anchors = (
{
name = bottom;
pos = (135,0);
},
{
name = top;
pos = (200,688);
}
);
layerId = "7836D3B9-397C-42C1-8084-A98A44B9119A";
shapes = (
{
closed = 1;
nodes = (
(275,0,o),
(289,16,o),
(289,328,cs),
(289,688,l),
(108,688,l),
(108,250,ls),
(108,146,o),
(101,139,o),
(9,139,c),
(9,0,l)
);
}
);
width = 326;
},
{
anchors = (
{
name = bottom;
pos = (142,0);
},
{
name = top;
pos = (157,688);
}
);
layerId = "374FF654-0B40-45EE-AE97-0DEB7620D1EC";
shapes = (
{
closed = 1;
nodes = (
(198,1,o),
(204,16,o),
(204,269,cs),
(204,688,l),
(109,688,l),
(109,239,ls),
(109,89,o),
(109,80,o),
(14,78,c),
(14,0,l)
);
}
);
width = 264;
},
{
anchors = (
{
name = bottom;
pos = (191,0);
},
{
name = top;
pos = (235,688);
}
);
layerId = "E7A95A6A-7487-49EE-B62A-BA87B06E4B57";
shapes = (
{
closed = 1;
nodes = (
(288,1,o),
(299,9,o),
(299,294,cs),
(299,688,l),
(171,688,l),
(171,258,ls),
(171,113,o),
(171,104,o),
(28,102,c),
(28,0,l)
);
}
);
width = 381;
},
{
anchors = (
{
name = bottom;
pos = (98,0);
},
{
name = top;
pos = (98,688);
}
);
layerId = "487ADAF7-57C4-4091-879E-1D750F439591";
shapes = (
{
closed = 1;
nodes = (
(125,0,o),
(138,13,o),
(138,241,cs),
(138,688,l),
(60,688,l),
(60,208,ls),
(60,73,o),
(57,71,o),
(2,71,c),
(2,0,l)
);
}
);
width = 175;
},
{
anchors = (
{
name = bottom;
pos = (133,0);
},
{
name = top;
pos = (133,688);
}
);
layerId = "7674DAFD-136A-491A-A3F0-195DB056B53F";
shapes = (
{
closed = 1;
nodes = (
(190,0,o),
(201,17,o),
(201,328,cs),
(201,688,l),
(68,688,l),
(68,227,ls),
(68,128,o),
(62,118,o),
(0,118,c),
(0,0,l)
);
}
);
width = 225;
},
{
anchors = (
{
name = bottom;
pos = (73,0);
},
{
name = top;
pos = (73,688);
}
);
layerId = "B5B62657-8F5D-48EE-9125-14A639410D02";
shapes = (
{
closed = 1;
nodes = (
(85,3,o),
(91,16,o),
(91,214,cs),
(91,688,l),
(55,688,l),
(55,220,ls),
(55,41,o),
(54,38,o),
(2,34,c),
(2,0,l)
);
}
);
width = 139;
},
{
anchors = (
{
name = bottom;
pos = (313,0);
},
{
name = top;
pos = (313,688);
}
);
layerId = "8EBCA172-37CB-4E59-A5FF-33FE92477777";
shapes = (
{
closed = 1;
nodes = (
(431,0,o),
(446,12,o),
(446,328,cs),
(446,688,l),
(180,688,l),
(180,292,ls),
(180,181,o),
(175,177,o),
(23,177,c),
(23,0,l)
);
}
);
width = 505;
},
{
anchors = (
{
name = bottom;
pos = (269,0);
},
{
name = top;
pos = (269,688);
}
);
layerId = "C6199351-AF36-494D-BF00-13EB6406F65F";
shapes = (
{
closed = 1;
nodes = (
(322,1,o),
(334,7,o),
(334,298,cs),
(334,688,l),
(210,688,l),
(210,266,ls),
(210,108,o),
(210,99,o),
(39,98,c),
(39,0,l)
);
}
);
width = 435;
},
{
anchors = (
{
name = bottom;
pos = (242,0);
},
{
name = top;
pos = (242,688);
}
);
layerId = "E7639064-56EC-4BF1-BEDD-A20273C7A444";
shapes = (
{
closed = 1;
nodes = (
(253,3,o),
(260,12,o),
(260,280,cs),
(260,688,l),
(224,688,l),
(224,254,ls),
(224,43,o),
(220,38,o),
(52,34,c),
(52,0,l)
);
}
);
width = 383;
}
);
unicode = 74;
},
{
glyphname = K;
kernLeft = H;
kernRight = X;
layers = (
{
anchors = (
{
name = bottom;
pos = (333,0);
},
{
name = top;
pos = (333,688);
}
);
background = {
shapes = (
{
closed = 1;
nodes = (
(151,0,l),
(151,332,l),
(324,332,l),
(582,0,l),
(625,0,l),
(354,349,l),
(622,688,l),
(580,688,l),
(324,366,l),
(151,366,l),
(151,688,l),
(115,688,l),
(115,0,l)
);
}
);
};
layerId = UUID0;
shapes = (
{
closed = 1;
nodes = (
(625,0,l),
(354,349,l),
(622,688,l),
(580,688,l),
(324,366,l),
(197,366,l),
(197,332,l),
(324,332,l),
(582,0,l)
);
},
{
closed = 1;
nodes = (
(151,0,l),
(151,688,l),
(115,688,l),
(115,0,l)
);
}
);
width = 665;
},
{
anchors = (
{
name = bottom;
pos = (357,0);
},
{
name = top;
pos = (348,688);
}
);
background = {
shapes = (
{
closed = 1;
nodes = (
(285,0,l),
(285,268,l),
(295,268,l),
(441,0,l),
(696,0,l),
(486,365,l),
(693,688,l),
(444,688,l),
(295,431,l),
(285,431,l),
(285,688,l),
(51,688,l),
(51,0,l)
);
}
);
};
layerId = "4F93A97B-747D-4721-B098-38A63C534D7A";
shapes = (
{
closed = 1;
nodes = (
(696,0,l),
(536,365,l),
(693,688,l),
(444,688,l),
(335,431,l),
(319,431,l),
(319,268,l),
(335,268,l),
(441,0,l)
);
},
{
closed = 1;
nodes = (
(285,0,l),
(285,688,l),
(51,688,l),
(51,0,l)
);
}
);
width = 696;
},
{
anchors = (
{
name = bottom;
pos = (247,0);
},
{
name = top;
pos = (239,688);
}
);
background = {
shapes = (
{
closed = 1;
nodes = (
(117,0,l),
(117,332,l),
(231,332,l),
(414,0,l),
(454,0,l),
(261,349,l),
(452,688,l),
(413,688,l),
(231,366,l),
(117,366,l),
(117,688,l),
(81,688,l),
(81,0,l)
);
}
);
};
guides = (
{
angle = 90;
pos = (158,748);
},
{
angle = 90;
pos = (117,744);
}
);
layerId = "E6BBBBE7-ECAD-4929-840D-43673C7BDEAF";
shapes = (
{
closed = 1;
nodes = (
(454,0,l),
(261,349,l),
(452,688,l),
(413,688,l),
(231,366,l),
(158,366,l),
(158,332,l),
(231,332,l),
(414,0,l)
);
},
{
closed = 1;
nodes = (
(117,0,l),
(117,688,l),
(81,688,l),
(81,0,l)
);
}
);
width = 478;
},
{
anchors = (
{
name = bottom;
pos = (264,0);
},
{
name = top;
pos = (255,688);
}
);
background = {
shapes = (
{
closed = 1;
nodes = (
(220,0,l),
(220,273,l),
(233,273,l),
(316,0,l),
(507,0,l),
(376,360,l),
(505,688,l),
(319,688,l),
(233,425,l),
(220,425,l),
(220,688,l),
(40,688,l),
(40,0,l)
);
}
);
};
guides = (
{
angle = 90;
pos = (244,795);
},
{
angle = 90;
pos = (220,794);
}
);
layerId = "7836D3B9-397C-42C1-8084-A98A44B9119A";
shapes = (
{
closed = 1;
nodes = (
(507,0,l),
(397,360,l),
(505,688,l),
(319,688,l),
(254,425,l),
(244,425,l),
(244,273,l),
(254,273,l),
(316,0,l)
);
},
{
closed = 1;
nodes = (
(220,0,l),
(220,688,l),
(40,688,l),
(40,0,l)
);
}
);
width = 509;
},
{
anchors = (
{
name = bottom;
pos = (248,0);
},
{
name = top;
pos = (248,688);
}
);
background = {
shapes = (
{
closed = 1;
nodes = (
(158,0,l),
(158,308,l),
(224,308,l),
(368,0,l),
(471,0,l),
(302,356,l),
(469,688,l),
(370,688,l),
(224,390,l),
(158,390,l),
(158,688,l),
(64,688,l),
(64,0,l)
);
}
);
};
guides = (
{
angle = 90;
pos = (193,746);
},
{
angle = 90;
pos = (158,744);
}
);
layerId = "374FF654-0B40-45EE-AE97-0DEB7620D1EC";
shapes = (
{
closed = 1;
nodes = (
(471,0,l),
(302,356,l),
(469,688,l),
(370,688,l),
(224,390,l),
(193,390,l),
(193,308,l),
(224,308,l),
(368,0,l)
);
},
{
closed = 1;
nodes = (
(158,0,l),
(158,688,l),
(64,688,l),
(64,0,l)
);
}
);
width = 485;
},
{
anchors = (
{
name = bottom;
pos = (338,0);
},
{
name = top;
pos = (338,688);
}
);
background = {
shapes = (
{
closed = 1;
nodes = (
(215,0,l),
(215,296,l),
(297,296,l),
(510,0,l),
(659,0,l),
(400,358,l),
(656,688,l),
(515,688,l),
(297,404,l),
(215,404,l),
(215,688,l),
(87,688,l),
(87,0,l)
);
}
);
};
layerId = "E7A95A6A-7487-49EE-B62A-BA87B06E4B57";
shapes = (
{
closed = 1;
nodes = (
(659,0,l),
(400,358,l),
(656,688,l),
(515,688,l),
(297,404,l),
(255,404,l),
(255,296,l),
(297,296,l),
(510,0,l)
);
},
{
closed = 1;
nodes = (
(215,0,l),
(215,688,l),
(87,688,l),
(87,0,l)
);
}
);
width = 675;
},
{
anchors = (
{
name = bottom;
pos = (177,0);
},
{
name = top;
pos = (165,688);
}
);
background = {
shapes = (
{
closed = 1;
nodes = (
(120,0,l),
(120,311,l),
(164,311,l),
(243,0,l),
(324,0,l),
(231,351,l),
(322,688,l),
(246,688,l),
(167,387,l),
(120,387,l),
(120,688,l),
(42,688,l),
(42,0,l)
);
}
);
};
guides = (
{
angle = 90;
pos = (120,744);
},
{
angle = 270;
pos = (150,746);
}
);
layerId = "487ADAF7-57C4-4091-879E-1D750F439591";
shapes = (
{
closed = 1;
nodes = (
(324,0,l),
(231,351,l),
(322,688,l),
(246,688,l),
(167,387,l),
(150,387,l),
(150,311,l),
(164,311,l),
(243,0,l)
);
},
{
closed = 1;
nodes = (
(120,0,l),
(120,688,l),
(42,688,l),
(42,0,l)
);
}
);
width = 330;
},
{
anchors = (
{
name = bottom;
pos = (176,0);
},
{
name = top;
pos = (171,688);
}
);
background = {
shapes = (
{
closed = 1;
nodes = (
(158,0,l),
(158,278,l),
(171,278,l),
(203,0,l),
(339,0,l),
(279,355,l),
(339,688,l),
(206,688,l),
(171,418,l),
(158,418,l),
(158,688,l),
(29,688,l),
(29,0,l)
);
}
);
};
guides = (
{
angle = 270;
pos = (178,745);
},
{
angle = 90;
pos = (158,744);
}
);
layerId = "7674DAFD-136A-491A-A3F0-195DB056B53F";
shapes = (
{
closed = 1;
nodes = (
(339,0,l),
(293,355,l),
(339,688,l),
(206,688,l),
(185,418,l),
(178,418,l),
(178,278,l),
(185,278,l),
(203,0,l)
);
},
{
closed = 1;
nodes = (
(158,0,l),
(158,688,l),
(29,688,l),
(29,0,l)
);
}
);
width = 342;
},
{
anchors = (
{
name = bottom;
pos = (168,0);
},
{
name = top;
pos = (156,688);
}
);
background = {
shapes = (
{
closed = 1;
nodes = (
(88,0,l),
(88,332,l),
(148,332,l),
(266,0,l),
(305,0,l),
(180,349,l),
(303,688,l),
(265,688,l),
(148,366,l),
(88,366,l),
(88,688,l),
(52,688,l),
(52,0,l)
);
}
);
};
guides = (
{
angle = 90;
pos = (88,757);
},
{
angle = 90;
pos = (124,757);
}
);
layerId = "B5B62657-8F5D-48EE-9125-14A639410D02";
shapes = (
{
closed = 1;
nodes = (
(305,0,l),
(180,349,l),
(303,688,l),
(265,688,l),
(148,366,l),
(124,366,l),
(124,332,l),
(148,332,l),
(266,0,l)
);
},
{
closed = 1;
nodes = (
(88,0,l),
(88,688,l),
(52,688,l),
(52,0,l)
);
}
);
width = 312;
},
{
anchors = (
{
name = bottom;
pos = (414,0);
},
{
name = top;
pos = (404,688);
}
);
background = {
shapes = (
{
closed = 1;
nodes = (
(324,0,l),
(324,265,l),
(332,265,l),
(516,0,l),
(814,0,l),
(560,368,l),
(806,688,l),
(519,688,l),
(332,435,l),
(324,435,l),
(324,688,l),
(58,688,l),
(58,0,l)
);
}
);
};
guides = (
{
angle = 90;
pos = (324,744);
},
{
angle = 270;
pos = (363,745);
}
);
layerId = "8EBCA172-37CB-4E59-A5FF-33FE92477777";
shapes = (
{
closed = 1;
nodes = (
(814,0,l),
(601,368,l),
(806,688,l),
(519,688,l),
(373,435,l),
(362,435,l),
(362,265,l),
(373,265,l),
(516,0,l)
);
},
{
closed = 1;
nodes = (
(324,0,l),
(324,688,l),
(58,688,l),
(58,0,l)
);
}
);
width = 808;
},
{
anchors = (
{
name = bottom;
pos = (394,0);
},
{
name = top;
pos = (394,688);
}
);
background = {
shapes = (
{
closed = 1;
nodes = (
(233,0,l),
(233,299,l),
(364,299,l),
(611,0,l),
(764,0,l),
(466,358,l),
(761,688,l),
(615,688,l),
(364,402,l),
(233,402,l),
(233,688,l),
(108,688,l),
(108,0,l)
);
}
);
};
guides = (
{
angle = 90;
pos = (278,846);
},
{
angle = 90;
pos = (233,844);
}
);
layerId = "C6199351-AF36-494D-BF00-13EB6406F65F";
shapes = (
{
closed = 1;
nodes = (
(764,0,l),
(466,358,l),
(761,688,l),
(615,688,l),
(364,402,l),
(278,402,l),
(278,299,l),
(364,299,l),
(611,0,l)
);
},
{
closed = 1;
nodes = (
(233,0,l),
(233,688,l),
(108,688,l),
(108,0,l)
);
}
);
width = 788;
},
{
anchors = (
{
name = bottom;
pos = (389,0);
},
{
name = top;
pos = (389,688);
}
);
background = {
shapes = (
{
closed = 1;
nodes = (
(171,0,l),
(171,332,l),
(378,332,l),
(681,0,l),
(728,0,l),
(410,349,l),
(724,688,l),
(678,688,l),
(378,366,l),
(171,366,l),
(171,688,l),
(135,688,l),
(135,0,l)
);
}
);
};
guides = (
{
angle = 90;
pos = (222,848);
},
{
angle = 90;
pos = (171,844);
}
);
layerId = "E7639064-56EC-4BF1-BEDD-A20273C7A444";
shapes = (
{
closed = 1;
nodes = (
(728,0,l),
(410,349,l),
(724,688,l),
(678,688,l),
(378,366,l),
(222,366,l),
(222,332,l),
(378,332,l),
(681,0,l)
);
},
{
closed = 1;
nodes = (
(171,0,l),
(171,688,l),
(135,688,l),
(135,0,l)
);
}
);
width = 777;
}
);
unicode = 75;
},
{
glyphname = L;
kernLeft = H;
kernRight = L;
layers = (
{
anchors = (
{
name = bottom;
pos = (328,0);
},
{
name = center;
pos = (133,344);
},
{
name = top;
pos = (133,688);
},
{
name = topright;
pos = (290,510);
}
);
background = {
shapes = (
{
closed = 1;
nodes = (
(501,0,l),
(501,34,l),
(151,34,l),
(151,688,l),
(115,688,l),
(115,0,l)
);
}
);
};
layerId = UUID0;
shapes = (
{
closed = 1;
nodes = (
(151,0,l),
(151,688,l),
(115,688,l),
(115,0,l)
);
},
{
closed = 1;
nodes = (
(501,0,l),
(501,34,l),
(197,34,l),
(197,0,l)
);
}
);
width = 536;
},
{
anchors = (
{
name = bottom;
pos = (291,0);
},
{
name = center;
pos = (168,344);
},
{
name = top;
pos = (168,688);
},
{
name = topright;
pos = (330,510);
}
);
background = {
shapes = (
{
closed = 1;
nodes = (
(515,0,l),
(515,176,l),
(285,176,l),
(285,688,l),
(51,688,l),
(51,0,l)
);
}
);
};
layerId = "4F93A97B-747D-4721-B098-38A63C534D7A";
shapes = (
{
closed = 1;
nodes = (
(285,0,l),
(285,688,l),
(51,688,l),
(51,0,l)
);
},
{
closed = 1;
nodes = (
(515,0,l),
(515,176,l),
(319,176,l),
(319,0,l)
);
}
);
width = 533;
},
{
anchors = (
{
name = bottom;
pos = (235,0);
},
{
name = center;
pos = (100,344);
},
{
name = top;
pos = (100,688);
},
{
name = topright;
pos = (200,510);
}
);
background = {
shapes = (
{
closed = 1;
nodes = (
(364,0,l),
(364,34,l),
(118,34,l),
(118,688,l),
(81,688,l),
(81,0,l)
);
}
);
};
guides = (
{
angle = 90;
pos = (159,748);
},
{
angle = 90;
pos = (118,744);
}
);
layerId = "E6BBBBE7-ECAD-4929-840D-43673C7BDEAF";
shapes = (
{
closed = 1;
nodes = (
(118,0,l),
(118,688,l),
(81,688,l),
(81,0,l)
);
},
{
closed = 1;
nodes = (
(364,0,l),
(364,34,l),
(159,34,l),
(159,0,l)
);
}
);
width = 379;
},
{
anchors = (
{
name = bottom;
pos = (206,0);
},
{
name = center;
pos = (130,344);
},
{
name = top;
pos = (130,688);
},
{
name = topright;
pos = (230,510);
}
);
background = {
shapes = (
{
closed = 1;
nodes = (
(372,0,l),
(372,153,l),
(220,153,l),
(220,688,l),
(40,688,l),
(40,0,l)
);
}
);
};
guides = (
{
angle = 90;
pos = (244,795);
},
{
angle = 90;
pos = (220,794);
}
);
layerId = "7836D3B9-397C-42C1-8084-A98A44B9119A";
shapes = (
{
closed = 1;
nodes = (
(220,0,l),
(220,688,l),
(40,688,l),
(40,0,l)
);
},
{
closed = 1;
nodes = (
(372,0,l),
(372,153,l),
(244,153,l),
(244,0,l)
);
}
);
width = 385;
},
{
anchors = (
{
name = bottom;
pos = (218,0);
},
{
name = center;
pos = (113,344);
},
{
name = top;
pos = (113,688);
},
{
name = topright;
pos = (200,510);
}
);
background = {
shapes = (
{
closed = 1;
nodes = (
(366,0,l),
(366,84,l),
(159,84,l),
(159,688,l),
(64,688,l),
(64,0,l)
);
}
);
};
guides = (
{
angle = 90;
pos = (194,746);
},
{
angle = 90;
pos = (159,744);
}
);
layerId = "374FF654-0B40-45EE-AE97-0DEB7620D1EC";
shapes = (
{
closed = 1;
nodes = (
(159,0,l),
(159,688,l),
(64,688,l),
(64,0,l)
);
},
{
closed = 1;
nodes = (
(366,0,l),
(366,84,l),
(194,84,l),
(194,0,l)
);
}
);
width = 379;
},
{
anchors = (
{
name = bottom;
pos = (316,0);
},
{
name = center;
pos = (151,344);
},
{
name = top;
pos = (151,688);
},
{
name = topright;
pos = (300,510);
}
);
background = {
shapes = (
{
closed = 1;
nodes = (
(512,0,l),
(512,112,l),
(215,112,l),
(215,688,l),
(87,688,l),
(87,0,l)
);
}
);
};
layerId = "E7A95A6A-7487-49EE-B62A-BA87B06E4B57";
shapes = (
{
closed = 1;
nodes = (
(215,0,l),
(215,688,l),
(87,688,l),
(87,0,l)
);
},
{
closed = 1;
nodes = (
(512,0,l),
(512,112,l),
(255,112,l),
(255,0,l)
);
}
);
width = 539;
},
{
anchors = (
{
name = bottom;
pos = (145,0);
},
{
name = center;
pos = (124,344);
},
{
name = top;
pos = (84,688);
},
{
name = topright;
pos = (117,510);
}
);
background = {
shapes = (
{
closed = 1;
nodes = (
(246,0,l),
(246,73,l),
(121,73,l),
(121,688,l),
(42,688,l),
(42,0,l)
);
}
);
};
guides = (
{
angle = 90;
pos = (121,744);
},
{
angle = 270;
pos = (151,746);
}
);
layerId = "487ADAF7-57C4-4091-879E-1D750F439591";
shapes = (
{
closed = 1;
nodes = (
(121,0,l),
(121,688,l),
(42,688,l),
(42,0,l)
);
},
{
closed = 1;
nodes = (
(246,0,l),
(246,73,l),
(151,73,l),
(151,0,l)
);
}
);
width = 247;
},
{
anchors = (
{
name = bottom;
pos = (135,0);
},
{
name = center;
pos = (126,344);
},
{
name = top;
pos = (96,688);
},
{
name = topright;
pos = (141,510);
}
);
background = {
shapes = (
{
closed = 1;
nodes = (
(244,0,l),
(244,127,l),
(162,127,l),
(162,688,l),
(29,688,l),
(29,0,l)
);
}
);
};
guides = (
{
angle = 270;
pos = (182,745);
},
{
angle = 90;
pos = (162,744);
}
);
layerId = "7674DAFD-136A-491A-A3F0-195DB056B53F";
shapes = (
{
closed = 1;
nodes = (
(162,0,l),
(162,688,l),
(29,688,l),
(29,0,l)
);
},
{
closed = 1;
nodes = (
(244,0,l),
(244,127,l),
(182,127,l),
(182,0,l)
);
}
);
width = 252;
},
{
anchors = (
{
name = bottom;
pos = (149,0);
},
{
name = center;
pos = (120,344);
},
{
name = top;
pos = (71,688);
},
{
name = topright;
pos = (120,510);
}
);
background = {
shapes = (
{
closed = 1;
nodes = (
(243,0,l),
(243,34,l),
(89,34,l),
(89,688,l),
(52,688,l),
(52,0,l)
);
}
);
};
guides = (
{
angle = 90;
pos = (89,757);
},
{
angle = 90;
pos = (125,757);
}
);
layerId = "B5B62657-8F5D-48EE-9125-14A639410D02";
shapes = (
{
closed = 1;
nodes = (
(89,0,l),
(89,688,l),
(52,688,l),
(52,0,l)
);
},
{
closed = 1;
nodes = (
(243,0,l),
(243,34,l),
(125,34,l),
(125,0,l)
);
}
);
width = 240;
},
{
anchors = (
{
name = bottom;
pos = (315,0);
},
{
name = center;
pos = (311,344);
},
{
name = top;
pos = (191,688);
},
{
name = topright;
pos = (400,510);
}
);
background = {
shapes = (
{
closed = 1;
nodes = (
(601,0,l),
(601,190,l),
(324,190,l),
(324,688,l),
(58,688,l),
(58,0,l)
);
}
);
};
guides = (
{
angle = 270;
pos = (601,95);
},
{
angle = 90;
pos = (324,744);
},
{
angle = 270;
pos = (363,745);
}
);
layerId = "8EBCA172-37CB-4E59-A5FF-33FE92477777";
shapes = (
{
closed = 1;
nodes = (
(324,0,l),
(324,688,l),
(58,688,l),
(58,0,l)
);
},
{
closed = 1;
nodes = (
(601,0,l),
(601,190,l),
(363,190,l),
(363,0,l)
);
}
);
width = 622;
},
{
anchors = (
{
name = bottom;
pos = (360,0);
},
{
name = center;
pos = (318,344);
},
{
name = top;
pos = (171,688);
},
{
name = topright;
pos = (360,510);
}
);
background = {
shapes = (
{
closed = 1;
nodes = (
(597,0,l),
(597,106,l),
(233,106,l),
(233,688,l),
(108,688,l),
(108,0,l)
);
}
);
};
guides = (
{
angle = 270;
pos = (597,95);
},
{
angle = 90;
pos = (278,796);
},
{
angle = 90;
pos = (233,794);
}
);
layerId = "C6199351-AF36-494D-BF00-13EB6406F65F";
shapes = (
{
closed = 1;
nodes = (
(233,0,l),
(233,688,l),
(108,688,l),
(108,0,l)
);
},
{
closed = 1;
nodes = (
(597,0,l),
(597,106,l),
(278,106,l),
(278,0,l)
);
}
);
width = 635;
},
{
anchors = (
{
name = bottom;
pos = (360,0);
},
{
name = center;
pos = (315,344);
},
{
name = top;
pos = (153,688);
},
{
name = topright;
pos = (340,510);
}
);
background = {
shapes = (
{
closed = 1;
nodes = (
(583,0,l),
(583,34,l),
(171,34,l),
(171,688,l),
(135,688,l),
(135,0,l)
);
}
);
};
guides = (
{
angle = 270;
pos = (583,95);
},
{
angle = 90;
pos = (222,798);
},
{
angle = 90;
pos = (171,794);
}
);
layerId = "E7639064-56EC-4BF1-BEDD-A20273C7A444";
shapes = (
{
closed = 1;
nodes = (
(171,0,l),
(171,688,l),
(135,688,l),
(135,0,l)
);
},
{
closed = 1;
nodes = (
(583,0,l),
(583,34,l),
(222,34,l),
(222,0,l)
);
}
);
width = 630;
}
);
unicode = 76;
},
{
glyphname = Lslash;
kernLeft = H;
kernRight = L;
layers = (
{
layerId = UUID0;
shapes = (
{
closed = 1;
nodes = (
(364,401,l),
(364,435,l),
(46,319,l),
(46,285,l)
);
},
{
ref = L;
}
);
width = 536;
},
{
layerId = "4F93A97B-747D-4721-B098-38A63C534D7A";
shapes = (
{
closed = 1;
nodes = (
(408,379,l),
(408,521,l),
(-1,372,l),
(-1,230,l)
);
},
{
ref = L;
}
);
width = 533;
},
{
layerId = "E6BBBBE7-ECAD-4929-840D-43673C7BDEAF";
shapes = (
{
closed = 1;
nodes = (
(276,368,l),
(276,402,l),
(29,312,l),
(29,278,l)
);
},
{
ref = L;
}
);
width = 379;
},
{
layerId = "7836D3B9-397C-42C1-8084-A98A44B9119A";
shapes = (
{
closed = 1;
nodes = (
(310,348,l),
(310,481,l),
(0,366,l),
(0,233,l)
);
},
{
ref = L;
}
);
width = 385;
},
{
layerId = "374FF654-0B40-45EE-AE97-0DEB7620D1EC";
shapes = (
{
closed = 1;
nodes = (
(287,358,l),
(287,433,l),
(16,333,l),
(16,258,l)
);
},
{
ref = L;
}
);
width = 379;
},
{
layerId = "E7A95A6A-7487-49EE-B62A-BA87B06E4B57";
shapes = (
{
closed = 1;
nodes = (
(385,384,l),
(385,479,l),
(27,345,l),
(27,250,l)
);
},
{
ref = L;
}
);
width = 539;
},
{
layerId = "487ADAF7-57C4-4091-879E-1D750F439591";
shapes = (
{
closed = 1;
nodes = (
(211,334,l),
(211,404,l),
(7,328,l),
(7,260,l)
);
},
{
ref = L;
}
);
width = 247;
},
{
layerId = "7674DAFD-136A-491A-A3F0-195DB056B53F";
shapes = (
{
closed = 1;
nodes = (
(222,312,l),
(222,434,l),
(0,359,l),
(0,235,l)
);
},
{
ref = L;
}
);
width = 252;
},
{
layerId = "B5B62657-8F5D-48EE-9125-14A639410D02";
shapes = (
{
closed = 1;
nodes = (
(199,339,l),
(199,373,l),
(13,305,l),
(13,271,l)
);
},
{
ref = L;
}
);
width = 240;
},
{
layerId = "8EBCA172-37CB-4E59-A5FF-33FE92477777";
shapes = (
{
closed = 1;
nodes = (
(467,398,l),
(467,544,l),
(-2,376,l),
(-2,228,l)
);
},
{
ref = L;
}
);
width = 622;
},
{
layerId = "C6199351-AF36-494D-BF00-13EB6406F65F";
shapes = (
{
closed = 1;
nodes = (
(438,405,l),
(438,494,l),
(37,345,l),
(37,256,l)
);
},
{
ref = L;
}
);
width = 635;
},
{
layerId = "E7639064-56EC-4BF1-BEDD-A20273C7A444";
shapes = (
{
closed = 1;
nodes = (
(417,421,l),
(417,455,l),
(56,323,l),
(56,289,l)
);
},
{
ref = L;
}
);
width = 630;
}
);
metricRight = L;
unicode = 321;
},
{
glyphname = M;
kernLeft = H;
kernRight = H;
layers = (
{
anchors = (
{
name = bottom;
pos = (458,0);
},
{
name = top;
pos = (458,688);
}
);
background = {
shapes = (
{
closed = 1;
nodes = (
(150,0,l),
(150,618,l),
(154,618,l),
(441,0,l),
(473,0,l),
(760,618,l),
(764,618,l),
(764,0,l),
(800,0,l),
(800,688,l),
(755,688,l),
(460,53,l),
(455,53,l),
(161,688,l),
(115,688,l),
(115,0,l)
);
}
);
};
layerId = UUID0;
shapes = (
{
closed = 1;
nodes = (
(472,0,l),
(476,8,l),
(151,688,l),
(115,688,l),
(115,677,l),
(439,0,l)
);
},
{
closed = 1;
nodes = (
(150,0,l),
(150,514,l),
(115,587,l),
(115,0,l)
);
},
{
closed = 1;
nodes = (
(800,0,l),
(800,688,l),
(761,688,l),
(482,98,l),
(500,59,l),
(760,606,l),
(764,606,l),
(764,0,l)
);
}
);
width = 915;
},
{
anchors = (
{
name = bottom;
pos = (452,0);
},
{
name = top;
pos = (452,688);
}
);
background = {
shapes = (
{
closed = 1;
nodes = (
(268,0,l),
(268,387,l),
(279,387,l),
(371,0,l),
(526,0,l),
(618,387,l),
(629,387,l),
(629,0,l),
(852,0,l),
(852,688,l),
(533,688,l),
(457,365,l),
(448,365,l),
(371,688,l),
(51,688,l),
(51,0,l)
);
}
);
};
layerId = "4F93A97B-747D-4721-B098-38A63C534D7A";
shapes = (
{
closed = 1;
nodes = (
(520,0,l),
(556,81,l),
(260,688,l),
(51,688,l),
(51,666,l),
(376,0,l)
);
},
{
closed = 1;
nodes = (
(268,0,l),
(268,143,l),
(51,588,l),
(51,0,l)
);
},
{
closed = 1;
nodes = (
(852,0,l),
(852,688,l),
(644,688,l),
(479,317,l),
(575,121,l),
(624,238,l),
(629,238,l),
(629,0,l)
);
}
);
width = 903;
},
{
anchors = (
{
name = bottom;
pos = (332,0);
},
{
name = top;
pos = (332,688);
}
);
background = {
shapes = (
{
closed = 1;
nodes = (
(116,0,l),
(116,603,l),
(120,603,l),
(311,0,l),
(350,0,l),
(542,603,l),
(546,603,l),
(546,0,l),
(582,0,l),
(582,688,l),
(533,688,l),
(334,66,l),
(329,66,l),
(131,688,l),
(81,688,l),
(81,0,l)
);
}
);
};
layerId = "E6BBBBE7-ECAD-4929-840D-43673C7BDEAF";
shapes = (
{
closed = 1;
nodes = (
(349,0,l),
(350,5,l),
(118,688,l),
(81,688,l),
(81,679,l),
(311,0,l)
);
},
{
closed = 1;
nodes = (
(116,0,l),
(116,444,l),
(81,555,l),
(81,0,l)
);
},
{
closed = 1;
nodes = (
(582,0,l),
(582,688,l),
(543,688,l),
(353,125,l),
(372,68,l),
(542,578,l),
(546,578,l),
(546,0,l)
);
}
);
width = 664;
},
{
anchors = (
{
name = bottom;
pos = (362,0);
},
{
name = top;
pos = (362,688);
}
);
background = {
shapes = (
{
closed = 1;
nodes = (
(208,0,l),
(208,467,l),
(218,467,l),
(283,0,l),
(436,0,l),
(502,467,l),
(511,467,l),
(511,0,l),
(684,0,l),
(684,688,l),
(421,688,l),
(368,270,l),
(360,270,l),
(306,688,l),
(40,688,l),
(40,0,l)
);
}
);
};
layerId = "7836D3B9-397C-42C1-8084-A98A44B9119A";
shapes = (
{
closed = 1;
nodes = (
(436,0,l),
(442,20,l),
(206,688,l),
(40,688,l),
(40,684,l),
(283,0,l)
);
},
{
closed = 1;
nodes = (
(208,0,l),
(208,142,l),
(40,610,l),
(40,0,l)
);
},
{
closed = 1;
nodes = (
(684,0,l),
(684,688,l),
(501,688,l),
(372,289,l),
(454,58,l),
(502,215,l),
(511,215,l),
(511,0,l)
);
}
);
width = 723;
},
{
anchors = (
{
name = bottom;
pos = (336,0);
},
{
name = top;
pos = (336,688);
}
);
background = {
shapes = (
{
closed = 1;
nodes = (
(153,0,l),
(153,539,l),
(159,539,l),
(291,0,l),
(378,0,l),
(512,539,l),
(517,539,l),
(517,0,l),
(608,0,l),
(608,688,l),
(471,688,l),
(340,157,l),
(334,157,l),
(203,688,l),
(64,688,l),
(64,0,l)
);
}
);
};
layerId = "374FF654-0B40-45EE-AE97-0DEB7620D1EC";
shapes = (
{
closed = 1;
nodes = (
(376,0,l),
(381,21,l),
(153,688,l),
(64,688,l),
(64,674,l),
(291,0,l)
);
},
{
closed = 1;
nodes = (
(153,0,l),
(153,297,l),
(64,560,l),
(64,0,l)
);
},
{
closed = 1;
nodes = (
(608,0,l),
(608,688,l),
(514,688,l),
(355,203,l),
(400,69,l),
(512,410,l),
(517,410,l),
(517,0,l)
);
}
);
width = 672;
},
{
anchors = (
{
name = bottom;
pos = (449,0);
},
{
name = top;
pos = (449,688);
}
);
background = {
shapes = (
{
closed = 1;
nodes = (
(207,0,l),
(207,493,l),
(211,493,l),
(402,0,l),
(491,0,l),
(683,493,l),
(687,493,l),
(687,0,l),
(811,0,l),
(811,688,l),
(636,688,l),
(452,214,l),
(447,214,l),
(263,688,l),
(87,688,l),
(87,0,l)
);
}
);
};
layerId = "E7A95A6A-7487-49EE-B62A-BA87B06E4B57";
shapes = (
{
closed = 1;
nodes = (
(486,0,l),
(512,59,l),
(211,688,l),
(87,688,l),
(87,666,l),
(406,0,l)
);
},
{
closed = 1;
nodes = (
(207,0,l),
(207,323,l),
(87,573,l),
(87,0,l)
);
},
{
closed = 1;
nodes = (
(811,0,l),
(811,688,l),
(672,688,l),
(471,239,l),
(534,107,l),
(682,439,l),
(687,439,l),
(687,0,l)
);
}
);
width = 898;
},
{
anchors = (
{
name = bottom;
pos = (250,0);
},
{
name = top;
pos = (250,688);
}
);
background = {
shapes = (
{
closed = 1;
nodes = (
(116,0,l),
(116,571,l),
(123,571,l),
(201,0,l),
(298,0,l),
(374,571,l),
(382,571,l),
(382,0,l),
(458,0,l),
(458,688,l),
(326,688,l),
(253,119,l),
(249,119,l),
(173,688,l),
(42,688,l),
(42,0,l)
);
}
);
};
layerId = "487ADAF7-57C4-4091-879E-1D750F439591";
shapes = (
{
closed = 1;
nodes = (
(265,0,l),
(267,8,l),
(112,688,l),
(42,688,l),
(42,681,l),
(205,0,l)
);
},
{
closed = 1;
nodes = (
(116,0,l),
(116,239,l),
(42,550,l),
(42,0,l)
);
},
{
closed = 1;
nodes = (
(458,0,l),
(458,688,l),
(361,688,l),
(259,183,l),
(290,41,l),
(374,429,l),
(382,429,l),
(382,0,l)
);
}
);
width = 500;
},
{
anchors = (
{
name = bottom;
pos = (282,0);
},
{
name = top;
pos = (282,688);
}
);
background = {
shapes = (
{
closed = 1;
nodes = (
(156,0,l),
(156,563,l),
(164,563,l),
(204,0,l),
(357,0,l),
(398,563,l),
(405,563,l),
(405,0,l),
(533,0,l),
(533,688,l),
(320,688,l),
(289,158,l),
(281,158,l),
(248,688,l),
(29,688,l),
(29,0,l)
);
}
);
};
layerId = "7674DAFD-136A-491A-A3F0-195DB056B53F";
shapes = (
{
closed = 1;
nodes = (
(332,0,l),
(334,7,l),
(151,688,l),
(29,688,l),
(29,678,l),
(217,0,l)
);
},
{
closed = 1;
nodes = (
(156,0,l),
(156,128,l),
(29,588,l),
(29,0,l)
);
},
{
closed = 1;
nodes = (
(533,0,l),
(533,688,l),
(370,688,l),
(299,241,l),
(347,40,l),
(398,342,l),
(405,342,l),
(405,0,l)
);
}
);
width = 563;
},
{
anchors = (
{
name = bottom;
pos = (222,0);
},
{
name = top;
pos = (222,688);
}
);
background = {
shapes = (
{
closed = 1;
nodes = (
(87,0,l),
(87,589,l),
(91,589,l),
(198,0,l),
(242,0,l),
(351,589,l),
(355,589,l),
(355,0,l),
(391,0,l),
(391,688,l),
(336,688,l),
(224,79,l),
(219,79,l),
(106,688,l),
(52,688,l),
(52,0,l)
);
}
);
};
layerId = "B5B62657-8F5D-48EE-9125-14A639410D02";
shapes = (
{
closed = 1;
nodes = (
(232,0,l),
(233,6,l),
(86,688,l),
(52,688,l),
(52,679,l),
(198,0,l)
);
},
{
closed = 1;
nodes = (
(87,0,l),
(87,343,l),
(52,508,l),
(52,0,l)
);
},
{
closed = 1;
nodes = (
(391,0,l),
(391,688,l),
(351,688,l),
(238,153,l),
(255,72,l),
(351,531,l),
(355,531,l),
(355,0,l)
);
}
);
width = 443;
},
{
anchors = (
{
name = bottom;
pos = (506,0);
},
{
name = top;
pos = (506,688);
}
);
background = {
shapes = (
{
closed = 1;
nodes = (
(304,0,l),
(304,345,l),
(316,345,l),
(424,0,l),
(580,0,l),
(688,345,l),
(700,345,l),
(700,0,l),
(953,0,l),
(953,688,l),
(600,688,l),
(510,415,l),
(501,415,l),
(410,688,l),
(58,688,l),
(58,0,l)
);
}
);
};
layerId = "8EBCA172-37CB-4E59-A5FF-33FE92477777";
shapes = (
{
closed = 1;
nodes = (
(580,0,l),
(615,78,l),
(330,688,l),
(58,688,l),
(58,672,l),
(404,0,l)
);
},
{
closed = 1;
nodes = (
(304,0,l),
(304,109,l),
(58,589,l),
(58,0,l)
);
},
{
closed = 1;
nodes = (
(953,0,l),
(953,688,l),
(639,688,l),
(517,382,l),
(637,124,l),
(688,255,l),
(700,255,l),
(700,0,l)
);
}
);
width = 1011;
},
{
anchors = (
{
name = bottom;
pos = (517,0);
},
{
name = top;
pos = (517,688);
}
);
background = {
shapes = (
{
closed = 1;
nodes = (
(226,0,l),
(226,505,l),
(230,505,l),
(465,0,l),
(563,0,l),
(801,505,l),
(804,505,l),
(804,0,l),
(926,0,l),
(926,688,l),
(763,688,l),
(521,174,l),
(514,174,l),
(270,688,l),
(108,688,l),
(108,0,l)
);
}
);
};
layerId = "C6199351-AF36-494D-BF00-13EB6406F65F";
shapes = (
{
closed = 1;
nodes = (
(563,0,l),
(585,41,l),
(240,688,l),
(108,688,l),
(108,682,l),
(465,0,l)
);
},
{
closed = 1;
nodes = (
(226,0,l),
(226,361,l),
(108,583,l),
(108,0,l)
);
},
{
closed = 1;
nodes = (
(926,0,l),
(926,688,l),
(793,688,l),
(543,216,l),
(610,89,l),
(801,447,l),
(804,447,l),
(804,0,l)
);
}
);
width = 1034;
},
{
anchors = (
{
name = bottom;
pos = (533,0);
},
{
name = top;
pos = (533,688);
}
);
background = {
shapes = (
{
closed = 1;
nodes = (
(170,0,l),
(170,622,l),
(174,622,l),
(519,0,l),
(547,0,l),
(891,622,l),
(895,622,l),
(895,0,l),
(931,0,l),
(931,688,l),
(887,688,l),
(535,50,l),
(531,50,l),
(178,688,l),
(135,688,l),
(135,0,l)
);
}
);
};
layerId = "E7639064-56EC-4BF1-BEDD-A20273C7A444";
shapes = (
{
closed = 1;
nodes = (
(547,0,l),
(553,11,l),
(173,688,l),
(135,688,l),
(135,684,l),
(519,0,l)
);
},
{
closed = 1;
nodes = (
(170,0,l),
(170,523,l),
(135,579,l),
(135,0,l)
);
},
{
closed = 1;
nodes = (
(931,0,l),
(931,688,l),
(893,688,l),
(562,99,l),
(582,64,l),
(891,614,l),
(895,614,l),
(895,0,l)
);
}
);
width = 1066;
}
);
unicode = 77;
},
{
glyphname = N;
kernLeft = H;
kernRight = H;
layers = (
{
anchors = (
{
name = bottom;
pos = (379,0);
},
{
name = top;
pos = (379,688);
}
);
background = {
shapes = (
{
closed = 1;
nodes = (
(150,0,l),
(150,622,l),
(154,622,l),
(588,0,l),
(623,0,l),
(623,688,l),
(588,688,l),
(588,66,l),
(584,66,l),
(150,688,l),
(115,688,l),
(115,0,l)
);
}
);
};
layerId = UUID0;
shapes = (
{
closed = 1;
nodes = (
(623,0,l),
(623,13,l),
(150,688,l),
(115,688,l),
(115,675,l),
(588,0,l)
);
},
{
closed = 1;
nodes = (
(150,0,l),
(150,560,l),
(115,611,l),
(115,0,l)
);
},
{
closed = 1;
nodes = (
(623,688,l),
(588,688,l),
(588,132,l),
(623,82,l)
);
}
);
width = 738;
},
{
anchors = (
{
name = bottom;
pos = (358,0);
},
{
name = top;
pos = (358,688);
}
);
background = {
shapes = (
{
closed = 1;
nodes = (
(274,0,l),
(274,321,l),
(280,321,l),
(439,0,l),
(654,0,l),
(654,688,l),
(431,688,l),
(431,422,l),
(424,422,l),
(290,688,l),
(51,688,l),
(51,0,l)
);
}
);
};
layerId = "4F93A97B-747D-4721-B098-38A63C534D7A";
shapes = (
{
closed = 1;
nodes = (
(654,0,l),
(654,24,l),
(268,688,l),
(51,688,l),
(51,666,l),
(438,0,l)
);
},
{
closed = 1;
nodes = (
(274,0,l),
(274,217,l),
(51,600,l),
(51,0,l)
);
},
{
closed = 1;
nodes = (
(654,688,l),
(431,688,l),
(431,473,l),
(654,90,l)
);
}
);
width = 705;
},
{
anchors = (
{
name = bottom;
pos = (267,0);
},
{
name = top;
pos = (274,688);
}
);
background = {
shapes = (
{
closed = 1;
nodes = (
(116,0,l),
(116,604,l),
(120,604,l),
(412,0,l),
(452,0,l),
(452,688,l),
(417,688,l),
(417,84,l),
(413,84,l),
(122,688,l),
(81,688,l),
(81,0,l)
);
}
);
};
layerId = "E6BBBBE7-ECAD-4929-840D-43673C7BDEAF";
shapes = (
{
closed = 1;
nodes = (
(452,0,l),
(452,12,l),
(119,688,l),
(81,688,l),
(81,677,l),
(415,0,l)
);
},
{
closed = 1;
nodes = (
(116,0,l),
(116,512,l),
(81,583,l),
(81,0,l)
);
},
{
closed = 1;
nodes = (
(452,688,l),
(417,688,l),
(417,177,l),
(452,105,l)
);
}
);
width = 534;
},
{
anchors = (
{
name = bottom;
pos = (263,0);
},
{
name = top;
pos = (263,688);
}
);
background = {
shapes = (
{
closed = 1;
nodes = (
(211,0,l),
(211,310,l),
(216,310,l),
(327,0,l),
(486,0,l),
(486,688,l),
(315,688,l),
(315,421,l),
(309,421,l),
(213,688,l),
(40,688,l),
(40,0,l)
);
}
);
};
layerId = "7836D3B9-397C-42C1-8084-A98A44B9119A";
shapes = (
{
closed = 1;
nodes = (
(486,0,l),
(486,79,l),
(198,688,l),
(40,688,l),
(40,665,l),
(342,0,l)
);
},
{
closed = 1;
nodes = (
(211,0,l),
(211,228,l),
(40,606,l),
(40,0,l)
);
},
{
closed = 1;
nodes = (
(486,688,l),
(315,688,l),
(315,498,l),
(486,136,l)
);
}
);
width = 526;
},
{
anchors = (
{
name = bottom;
pos = (263,0);
},
{
name = top;
pos = (263,688);
}
);
background = {
shapes = (
{
closed = 1;
nodes = (
(155,0,l),
(155,487,l),
(159,487,l),
(370,0,l),
(461,0,l),
(461,688,l),
(370,688,l),
(370,217,l),
(366,217,l),
(162,688,l),
(64,688,l),
(64,0,l)
);
}
);
};
layerId = "374FF654-0B40-45EE-AE97-0DEB7620D1EC";
shapes = (
{
closed = 1;
nodes = (
(461,0,l),
(461,38,l),
(152,688,l),
(64,688,l),
(64,668,l),
(380,0,l)
);
},
{
closed = 1;
nodes = (
(155,0,l),
(155,392,l),
(64,582,l),
(64,0,l)
);
},
{
closed = 1;
nodes = (
(461,688,l),
(370,688,l),
(370,310,l),
(461,120,l)
);
}
);
width = 525;
},
{
anchors = (
{
name = bottom;
pos = (373,0);
},
{
name = top;
pos = (373,688);
}
);
layerId = "E7A95A6A-7487-49EE-B62A-BA87B06E4B57";
shapes = (
{
closed = 1;
nodes = (
(639,0,l),
(639,45,l),
(220,688,l),
(87,688,l),
(87,662,l),
(516,0,l)
);
},
{
closed = 1;
nodes = (
(210,0,l),
(210,399,l),
(87,586,l),
(87,0,l)
);
},
{
closed = 1;
nodes = (
(639,688,l),
(516,688,l),
(516,308,l),
(639,116,l)
);
}
);
width = 726;
},
{
anchors = (
{
name = bottom;
pos = (182,0);
},
{
name = top;
pos = (182,688);
}
);
background = {
shapes = (
{
closed = 1;
nodes = (
(117,0,l),
(117,473,l),
(120,473,l),
(236,0,l),
(319,0,l),
(319,688,l),
(246,688,l),
(246,230,l),
(243,230,l),
(131,688,l),
(44,688,l),
(44,0,l)
);
}
);
};
layerId = "487ADAF7-57C4-4091-879E-1D750F439591";
shapes = (
{
closed = 1;
nodes = (
(319,0,l),
(319,33,l),
(116,688,l),
(44,688,l),
(44,671,l),
(251,0,l)
);
},
{
closed = 1;
nodes = (
(117,0,l),
(117,332,l),
(44,568,l),
(44,0,l)
);
},
{
closed = 1;
nodes = (
(319,688,l),
(246,688,l),
(246,368,l),
(319,131,l)
);
}
);
width = 363;
},
{
anchors = (
{
name = bottom;
pos = (183,0);
},
{
name = top;
pos = (183,688);
}
);
background = {
shapes = (
{
closed = 1;
nodes = (
(155,0,l),
(155,296,l),
(158,296,l),
(226,0,l),
(337,0,l),
(337,688,l),
(211,688,l),
(211,422,l),
(205,422,l),
(145,688,l),
(29,688,l),
(29,0,l)
);
}
);
};
layerId = "7674DAFD-136A-491A-A3F0-195DB056B53F";
shapes = (
{
closed = 1;
nodes = (
(337,0,l),
(337,43,l),
(133,688,l),
(29,688,l),
(29,672,l),
(238,0,l)
);
},
{
closed = 1;
nodes = (
(155,0,l),
(155,199,l),
(29,603,l),
(29,0,l)
);
},
{
closed = 1;
nodes = (
(337,688,l),
(211,688,l),
(211,506,l),
(337,107,l)
);
}
);
width = 366;
},
{
anchors = (
{
name = bottom;
pos = (177,0);
},
{
name = top;
pos = (179,688);
}
);
background = {
shapes = (
{
closed = 1;
nodes = (
(87,0,l),
(87,588,l),
(91,588,l),
(256,0,l),
(303,0,l),
(303,688,l),
(268,688,l),
(268,100,l),
(264,100,l),
(98,688,l),
(52,688,l),
(52,0,l)
);
}
);
};
layerId = "B5B62657-8F5D-48EE-9125-14A639410D02";
shapes = (
{
closed = 1;
nodes = (
(303,0,l),
(303,16,l),
(86,688,l),
(52,688,l),
(52,674,l),
(268,0,l)
);
},
{
closed = 1;
nodes = (
(87,0,l),
(87,447,l),
(52,554,l),
(52,0,l)
);
},
{
closed = 1;
nodes = (
(303,688,l),
(268,688,l),
(268,241,l),
(303,132,l)
);
}
);
width = 354;
},
{
anchors = (
{
name = bottom;
pos = (406,0);
},
{
name = top;
pos = (406,688);
}
);
background = {
shapes = (
{
closed = 1;
nodes = (
(312,0,l),
(312,328,l),
(318,328,l),
(506,0,l),
(755,0,l),
(755,688,l),
(501,688,l),
(501,422,l),
(493,422,l),
(340,688,l),
(58,688,l),
(58,0,l)
);
}
);
};
layerId = "8EBCA172-37CB-4E59-A5FF-33FE92477777";
shapes = (
{
closed = 1;
nodes = (
(755,0,l),
(755,89,l),
(320,688,l),
(58,688,l),
(58,674,l),
(526,0,l)
);
},
{
closed = 1;
nodes = (
(312,0,l),
(312,240,l),
(58,605,l),
(58,0,l)
);
},
{
closed = 1;
nodes = (
(755,688,l),
(501,688,l),
(501,505,l),
(755,155,l)
);
}
);
width = 812;
},
{
anchors = (
{
name = bottom;
pos = (424,0);
},
{
name = top;
pos = (424,688);
}
);
background = {
shapes = (
{
closed = 1;
nodes = (
(226,0,l),
(226,502,l),
(230,502,l),
(621,0,l),
(740,0,l),
(740,688,l),
(622,688,l),
(622,201,l),
(618,201,l),
(238,688,l),
(108,688,l),
(108,0,l)
);
}
);
};
layerId = "C6199351-AF36-494D-BF00-13EB6406F65F";
shapes = (
{
closed = 1;
nodes = (
(740,0,l),
(740,45,l),
(238,688,l),
(108,688,l),
(108,660,l),
(621,0,l)
);
},
{
closed = 1;
nodes = (
(226,0,l),
(226,435,l),
(108,586,l),
(108,0,l)
);
},
{
closed = 1;
nodes = (
(740,688,l),
(622,688,l),
(622,269,l),
(740,118,l)
);
}
);
width = 848;
},
{
anchors = (
{
name = bottom;
pos = (430,0);
},
{
name = top;
pos = (430,688);
}
);
background = {
shapes = (
{
closed = 1;
nodes = (
(170,0,l),
(170,626,l),
(174,626,l),
(694,0,l),
(726,0,l),
(726,688,l),
(691,688,l),
(691,62,l),
(687,62,l),
(167,688,l),
(135,688,l),
(135,0,l)
);
}
);
};
layerId = "E7639064-56EC-4BF1-BEDD-A20273C7A444";
shapes = (
{
closed = 1;
nodes = (
(726,0,l),
(726,15,l),
(167,688,l),
(135,688,l),
(135,673,l),
(694,0,l)
);
},
{
closed = 1;
nodes = (
(170,0,l),
(170,550,l),
(135,593,l),
(135,0,l)
);
},
{
closed = 1;
nodes = (
(726,688,l),
(691,688,l),
(691,137,l),
(726,96,l)
);
}
);
width = 860;
}
);
unicode = 78;
},
{
glyphname = Nhookleft;
kernLeft = j;
kernRight = H;
layers = (
{
anchors = (
{
name = bottom;
pos = (369,0);
},
{
name = top;
pos = (369,688);
}
);
background = {
shapes = (
{
closed = 1;
nodes = (
(106,-200,o),
(150,-195,o),
(150,-103,cs),
(150,622,l),
(154,622,l),
(588,0,l),
(623,0,l),
(623,688,l),
(588,688,l),
(588,66,l),
(584,66,l),
(150,688,l),
(115,688,l),
(115,-113,ls),
(115,-158,o),
(106,-170,o),
(13,-170,c),
(13,-200,l)
);
}
);
};
layerId = UUID0;
shapes = (
{
closed = 1;
nodes = (
(623,0,l),
(623,13,l),
(150,688,l),
(115,688,l),
(115,675,l),
(588,0,l)
);
},
{
closed = 1;
nodes = (
(106,-200,o),
(150,-195,o),
(150,-103,cs),
(150,560,l),
(115,611,l),
(115,-113,ls),
(115,-158,o),
(106,-170,o),
(13,-170,c),
(13,-200,l)
);
},
{
closed = 1;
nodes = (
(623,688,l),
(588,688,l),
(588,132,l),
(623,82,l)
);
}
);
width = 738;
},
{
anchors = (
{
name = bottom;
pos = (363,0);
},
{
name = top;
pos = (363,688);
}
);
background = {
shapes = (
{
closed = 1;
nodes = (
(165,-200,o),
(210,-186,o),
(210,-29,cs),
(210,466,l),
(214,466,l),
(516,0,l),
(639,0,l),
(639,688,l),
(516,688,l),
(516,240,l),
(512,240,l),
(220,688,l),
(87,688,l),
(87,-54,ls),
(87,-95,o),
(81,-108,o),
(-3,-108,c),
(-3,-200,l)
);
}
);
};
layerId = "E7A95A6A-7487-49EE-B62A-BA87B06E4B57";
shapes = (
{
closed = 1;
nodes = (
(639,0,l),
(639,45,l),
(220,688,l),
(87,688,l),
(87,662,l),
(516,0,l)
);
},
{
closed = 1;
nodes = (
(165,-200,o),
(210,-186,o),
(210,-29,cs),
(210,398,l),
(87,588,l),
(87,-54,ls),
(87,-95,o),
(81,-108,o),
(-3,-108,c),
(-3,-200,l)
);
},
{
closed = 1;
nodes = (
(639,688,l),
(516,688,l),
(516,307,l),
(639,118,l)
);
}
);
width = 726;
},
{
anchors = (
{
name = bottom;
pos = (353,0);
},
{
name = top;
pos = (353,688);
}
);
background = {
shapes = (
{
closed = 1;
nodes = (
(230,-199,o),
(274,-179,o),
(274,37,cs),
(274,321,l),
(280,321,l),
(439,0,l),
(654,0,l),
(654,688,l),
(431,688,l),
(431,422,l),
(424,422,l),
(290,688,l),
(51,688,l),
(51,-10,ls),
(51,-45,o),
(48,-61,o),
(-21,-61,c),
(-21,-199,l)
);
}
);
};
layerId = "4F93A97B-747D-4721-B098-38A63C534D7A";
shapes = (
{
closed = 1;
nodes = (
(654,0,l),
(654,24,l),
(268,688,l),
(51,688,l),
(51,666,l),
(438,0,l)
);
},
{
closed = 1;
nodes = (
(230,-199,o),
(274,-179,o),
(274,37,cs),
(274,217,l),
(51,600,l),
(51,-10,ls),
(51,-45,o),
(48,-61,o),
(-21,-61,c),
(-21,-199,l)
);
},
{
closed = 1;
nodes = (
(654,688,l),
(431,688,l),
(431,473,l),
(654,90,l)
);
}
);
width = 705;
},
{
anchors = (
{
name = bottom;
pos = (267,0);
},
{
name = top;
pos = (267,688);
}
);
background = {
shapes = (
{
closed = 1;
nodes = (
(82,-193,o),
(116,-188,o),
(116,-96,cs),
(116,604,l),
(120,604,l),
(412,0,l),
(452,0,l),
(452,688,l),
(417,688,l),
(417,84,l),
(413,84,l),
(122,688,l),
(81,688,l),
(81,-106,ls),
(81,-151,o),
(75,-163,o),
(7,-163,c),
(7,-193,l)
);
}
);
};
layerId = "E6BBBBE7-ECAD-4929-840D-43673C7BDEAF";
shapes = (
{
closed = 1;
nodes = (
(452,0,l),
(452,12,l),
(119,688,l),
(81,688,l),
(81,677,l),
(415,0,l)
);
},
{
closed = 1;
nodes = (
(82,-193,o),
(116,-188,o),
(116,-96,cs),
(116,512,l),
(81,583,l),
(81,-106,ls),
(81,-151,o),
(75,-163,o),
(7,-163,c),
(7,-193,l)
);
},
{
closed = 1;
nodes = (
(452,688,l),
(417,688,l),
(417,177,l),
(452,105,l)
);
}
);
width = 534;
},
{
anchors = (
{
name = bottom;
pos = (263,0);
},
{
name = top;
pos = (263,688);
}
);
background = {
shapes = (
{
closed = 1;
nodes = (
(124,-193,o),
(155,-179,o),
(155,-41,cs),
(155,487,l),
(159,487,l),
(370,0,l),
(461,0,l),
(461,688,l),
(370,688,l),
(370,217,l),
(366,217,l),
(162,688,l),
(64,688,l),
(64,-69,ls),
(64,-108,o),
(62,-124,o),
(-2,-124,c),
(-2,-193,l)
);
}
);
};
layerId = "374FF654-0B40-45EE-AE97-0DEB7620D1EC";
shapes = (
{
closed = 1;
nodes = (
(461,0,l),
(461,38,l),
(152,688,l),
(64,688,l),
(64,668,l),
(380,0,l)
);
},
{
closed = 1;
nodes = (
(124,-193,o),
(155,-179,o),
(155,-41,cs),
(155,392,l),
(64,582,l),
(64,-69,ls),
(64,-108,o),
(62,-124,o),
(-2,-124,c),
(-2,-193,l)
);
},
{
closed = 1;
nodes = (
(461,688,l),
(370,688,l),
(370,310,l),
(461,120,l)
);
}
);
width = 525;
},
{
anchors = (
{
name = bottom;
pos = (263,0);
},
{
name = top;
pos = (263,688);
}
);
background = {
shapes = (
{
closed = 1;
nodes = (
(170,-198,o),
(211,-179,o),
(211,35,cs),
(211,310,l),
(216,310,l),
(327,0,l),
(486,0,l),
(486,688,l),
(315,688,l),
(315,421,l),
(309,421,l),
(213,688,l),
(40,688,l),
(40,-29,ls),
(40,-64,o),
(40,-80,o),
(-15,-80,c),
(-15,-198,l)
);
}
);
};
layerId = "7836D3B9-397C-42C1-8084-A98A44B9119A";
shapes = (
{
closed = 1;
nodes = (
(486,0,l),
(486,79,l),
(198,688,l),
(40,688,l),
(40,665,l),
(342,0,l)
);
},
{
closed = 1;
nodes = (
(170,-198,o),
(211,-179,o),
(211,35,cs),
(211,228,l),
(40,606,l),
(40,-29,ls),
(40,-64,o),
(40,-80,o),
(-15,-80,c),
(-15,-198,l)
);
},
{
closed = 1;
nodes = (
(486,688,l),
(315,688,l),
(315,498,l),
(486,136,l)
);
}
);
width = 526;
},
{
anchors = (
{
name = bottom;
pos = (177,0);
},
{
name = top;
pos = (177,688);
}
);
background = {
shapes = (
{
closed = 1;
nodes = (
(81,-187,o),
(87,-174,o),
(87,0,cs),
(87,588,l),
(91,588,l),
(256,0,l),
(303,0,l),
(303,688,l),
(268,688,l),
(268,100,l),
(264,100,l),
(98,688,l),
(52,688,l),
(52,0,ls),
(52,-153,o),
(51,-156,o),
(0,-160,c),
(0,-190,l)
);
}
);
};
layerId = "B5B62657-8F5D-48EE-9125-14A639410D02";
shapes = (
{
closed = 1;
nodes = (
(303,0,l),
(303,16,l),
(86,688,l),
(52,688,l),
(52,674,l),
(268,0,l)
);
},
{
closed = 1;
nodes = (
(81,-187,o),
(87,-174,o),
(87,0,cs),
(87,447,l),
(52,554,l),
(52,0,ls),
(52,-153,o),
(51,-156,o),
(0,-160,c),
(0,-190,l)
);
},
{
closed = 1;
nodes = (
(303,688,l),
(268,688,l),
(268,241,l),
(303,132,l)
);
}
);
width = 354;
},
{
anchors = (
{
name = bottom;
pos = (182,0);
},
{
name = top;
pos = (182,688);
}
);
background = {
shapes = (
{
closed = 1;
nodes = (
(97,-193,o),
(117,-182,o),
(117,0,cs,{
name = "2.2 ⛔️";
}),
(117,473,l),
(120,473,l),
(236,0,l),
(319,0,l),
(319,688,l),
(246,688,l),
(246,230,l),
(243,230,l),
(131,688,l),
(44,688,l),
(44,0,ls),
(44,-120,o),
(42,-122,o),
(-4,-122,c),
(-4,-193,l)
);
}
);
};
layerId = "487ADAF7-57C4-4091-879E-1D750F439591";
shapes = (
{
closed = 1;
nodes = (
(319,0,l),
(319,33,l),
(116,688,l),
(44,688,l),
(44,671,l),
(251,0,l)
);
},
{
closed = 1;
nodes = (
(97,-193,o),
(117,-182,o),
(117,0,cs,{
name = "2.2 ⛔️";
}),
(117,332,l),
(44,568,l),
(44,0,ls),
(44,-120,o),
(42,-122,o),
(-4,-122,c),
(-4,-193,l)
);
},
{
closed = 1;
nodes = (
(319,688,l),
(246,688,l),
(246,368,l),
(319,131,l)
);
}
);
width = 363;
},
{
anchors = (
{
name = bottom;
pos = (184,0);
},
{
name = top;
pos = (184,688);
}
);
background = {
shapes = (
{
closed = 1;
nodes = (
(145,-198,o),
(155,-151,o),
(155,40,cs),
(155,296,l),
(158,296,l),
(226,0,l),
(337,0,l),
(337,688,l),
(211,688,l),
(211,422,l),
(205,422,l),
(145,688,l),
(29,688,l),
(29,1,ls),
(29,-70,o),
(25,-80,o),
(-17,-80,c),
(-17,-198,l)
);
}
);
};
layerId = "7674DAFD-136A-491A-A3F0-195DB056B53F";
shapes = (
{
closed = 1;
nodes = (
(337,0,l),
(337,43,l),
(133,688,l),
(29,688,l),
(29,672,l),
(238,0,l)
);
},
{
closed = 1;
nodes = (
(145,-198,o),
(155,-151,o),
(155,40,cs),
(155,199,l),
(29,603,l),
(29,1,ls),
(29,-70,o),
(25,-80,o),
(-17,-80,c),
(-17,-198,l)
);
},
{
closed = 1;
nodes = (
(337,688,l),
(211,688,l),
(211,506,l),
(337,107,l)
);
}
);
width = 366;
},
{
anchors = (
{
name = bottom;
pos = (430,0);
},
{
name = top;
pos = (430,688);
}
);
background = {
shapes = (
{
closed = 1;
nodes = (
(164,-200,o),
(170,-188,o),
(170,53,cs,{
name = "0.7 ⛔️";
}),
(170,626,l),
(174,626,l),
(694,0,l),
(726,0,l),
(726,688,l),
(691,688,l),
(691,62,l),
(687,62,l),
(167,688,l),
(135,688,l),
(135,53,ls),
(135,-161,o),
(132,-170,o),
(0,-170,c),
(0,-200,l)
);
}
);
};
layerId = "E7639064-56EC-4BF1-BEDD-A20273C7A444";
shapes = (
{
closed = 1;
nodes = (
(726,0,l),
(726,15,l),
(167,688,l),
(135,688,l),
(135,673,l),
(694,0,l)
);
},
{
closed = 1;
nodes = (
(164,-200,o),
(170,-188,o),
(170,53,cs,{
name = "0.7 ⛔️";
}),
(170,550,l),
(135,593,l),
(135,53,ls),
(135,-161,o),
(132,-170,o),
(0,-170,c),
(0,-200,l)
);
},
{
closed = 1;
nodes = (
(726,688,l),
(691,688,l),
(691,137,l),
(726,96,l)
);
}
);
width = 860;
},
{
anchors = (
{
name = bottom;
pos = (425,0);
},
{
name = top;
pos = (425,688);
}
);
background = {
shapes = (
{
closed = 1;
nodes = (
(216,-200,o),
(226,-194,o),
(226,97,cs),
(226,502,l),
(230,502,l),
(621,0,l),
(740,0,l),
(740,688,l),
(622,688,l),
(622,201,l),
(618,201,l),
(238,688,l),
(108,688,l),
(108,65,ls),
(108,-93,o),
(108,-102,o),
(-20,-103,c),
(-20,-201,l)
);
}
);
};
layerId = "C6199351-AF36-494D-BF00-13EB6406F65F";
shapes = (
{
closed = 1;
nodes = (
(740,0,l),
(740,45,l),
(238,688,l),
(108,688,l),
(108,660,l),
(621,0,l)
);
},
{
closed = 1;
nodes = (
(216,-200,o),
(226,-194,o),
(226,97,cs),
(226,435,l),
(108,586,l),
(108,65,ls),
(108,-93,o),
(108,-102,o),
(-20,-103,c),
(-20,-201,l)
);
},
{
closed = 1;
nodes = (
(740,688,l),
(622,688,l),
(622,269,l),
(740,118,l)
);
}
);
width = 848;
},
{
anchors = (
{
name = bottom;
pos = (407,0);
},
{
name = top;
pos = (407,688);
}
);
background = {
shapes = (
{
closed = 1;
nodes = (
(297,-248,o),
(312,-236,o),
(312,80,cs),
(312,328,l),
(318,328,l),
(506,0,l),
(755,0,l),
(755,688,l),
(501,688,l),
(501,422,l),
(493,422,l),
(340,688,l),
(58,688,l),
(58,44,ls),
(58,-67,o),
(53,-71,o),
(-99,-71,c),
(-99,-248,l)
);
}
);
};
layerId = "8EBCA172-37CB-4E59-A5FF-33FE92477777";
shapes = (
{
closed = 1;
nodes = (
(755,0,l),
(755,89,l),
(320,688,l),
(58,688,l),
(58,674,l),
(526,0,l)
);
},
{
closed = 1;
nodes = (
(297,-248,o),
(312,-236,o),
(312,80,cs),
(312,240,l),
(58,603,l),
(58,44,ls),
(58,-67,o),
(53,-71,o),
(-99,-71,c),
(-99,-248,l)
);
},
{
closed = 1;
nodes = (
(755,688,l),
(501,688,l),
(501,505,l),
(755,155,l)
);
}
);
width = 812;
}
);
metricRight = N;
unicode = 413;
},
